G75*
%MOIN*%
%OFA0B0*%
%FSLAX25Y25*%
%IPPOS*%
%LPD*%
%AMOC8*
5,1,8,0,0,1.08239X$1,22.5*
%
%ADD10R,0.00787X0.02362*%
%ADD11R,0.02362X0.00787*%
%ADD12C,0.03031*%
%ADD13R,0.01378X0.00984*%
%ADD14R,0.00984X0.01378*%
%ADD15C,0.02362*%
%ADD16C,0.00500*%
%ADD17C,0.05118*%
%ADD18C,0.02559*%
%ADD19C,0.03937*%
%ADD20C,0.00787*%
%ADD21C,0.00600*%
D10*
X0753900Y0031506D03*
X0755474Y0031506D03*
X0757049Y0031506D03*
X0758624Y0031506D03*
X0760199Y0031506D03*
X0761774Y0031506D03*
X0761774Y0044104D03*
X0760199Y0044104D03*
X0758624Y0044104D03*
X0757049Y0044104D03*
X0755474Y0044104D03*
X0753900Y0044104D03*
D11*
X0751537Y0041742D03*
X0751537Y0040167D03*
X0751537Y0038593D03*
X0751537Y0037018D03*
X0751537Y0035443D03*
X0764136Y0035443D03*
X0764136Y0037018D03*
X0764136Y0038593D03*
X0764136Y0040167D03*
X0764136Y0041742D03*
X0764136Y0033868D03*
X0751537Y0033868D03*
D12*
X0759353Y0035974D02*
X0759353Y0039636D01*
X0759353Y0035974D02*
X0756321Y0035974D01*
X0756321Y0039636D01*
X0759353Y0039636D01*
X0759353Y0038853D02*
X0756321Y0038853D01*
D13*
X0749978Y0030734D03*
X0749978Y0028766D03*
D14*
X0749494Y0045750D03*
X0751463Y0045750D03*
D15*
X0764785Y0044455D03*
X0768951Y0044238D03*
X0767478Y0039000D03*
X0050169Y0052407D03*
X0045250Y0051750D03*
X0049569Y0046557D03*
X0045750Y0042250D03*
X0049500Y0041750D03*
X0045750Y0032250D03*
X0045250Y0021750D03*
X0045250Y0011250D03*
X0043781Y0061856D03*
D16*
X0003692Y0009731D02*
X0003692Y0004098D01*
X0041848Y0004098D01*
X0043561Y0004194D01*
X0046901Y0004953D01*
X0049990Y0006433D01*
X0052674Y0008560D01*
X0054820Y0011230D01*
X0055657Y0012727D01*
X0055657Y0012727D01*
X0057359Y0016217D01*
X0057359Y0016217D01*
X0061996Y0022446D01*
X0061996Y0022446D01*
X0067705Y0027709D01*
X0067705Y0027709D01*
X0074291Y0031824D01*
X0074291Y0031824D01*
X0081524Y0034649D01*
X0081524Y0034649D01*
X0089155Y0036087D01*
X0740780Y0036087D01*
X0742792Y0035129D01*
X0742792Y0035129D01*
X0742792Y0035129D01*
X0744198Y0033400D01*
X0744198Y0033400D01*
X0744244Y0033211D01*
X0744244Y0033211D01*
X0744356Y0032754D01*
X0744912Y0033311D01*
X0745449Y0033533D01*
X0745879Y0034278D01*
X0745879Y0034278D01*
X0745879Y0034278D01*
X0746900Y0034868D01*
X0747377Y0034868D01*
X0746657Y0035408D01*
X0746155Y0035784D01*
X0746074Y0035784D01*
X0745831Y0036027D01*
X0745557Y0036233D01*
X0745545Y0036313D01*
X0745488Y0036370D01*
X0745488Y0036713D01*
X0745440Y0037053D01*
X0745488Y0037118D01*
X0745488Y0037423D01*
X0745111Y0037579D01*
X0744427Y0038263D01*
X0744057Y0039156D01*
X0744057Y0040123D01*
X0744427Y0041017D01*
X0745111Y0041701D01*
X0745147Y0041716D01*
X0744956Y0041795D01*
X0744272Y0042479D01*
X0744253Y0042524D01*
X0742582Y0040668D01*
X0742582Y0040668D01*
X0740011Y0039524D01*
X0088726Y0039524D01*
X0081215Y0040915D01*
X0081215Y0040915D01*
X0074083Y0043651D01*
X0074083Y0043651D01*
X0067569Y0047641D01*
X0067569Y0047641D01*
X0061890Y0052750D01*
X0061890Y0052750D01*
X0057237Y0058808D01*
X0057237Y0058808D01*
X0055918Y0061392D01*
X0055918Y0061392D01*
X0055501Y0062210D01*
X0054536Y0063818D01*
X0051996Y0066564D01*
X0048806Y0068517D01*
X0045205Y0069532D01*
X0043335Y0069661D01*
X0003692Y0069661D01*
X0003692Y0069347D01*
X0003692Y0069347D01*
X0003692Y0054028D01*
X0004349Y0054685D01*
X0005565Y0055188D01*
X0018824Y0055188D01*
X0018978Y0055124D01*
X0021693Y0056199D01*
X0022173Y0056397D01*
X0022195Y0056397D01*
X0022216Y0056405D01*
X0022735Y0056397D01*
X0031478Y0056397D01*
X0031519Y0056413D01*
X0032017Y0056397D01*
X0032515Y0056397D01*
X0032556Y0056380D01*
X0032600Y0056379D01*
X0033054Y0056174D01*
X0033515Y0055983D01*
X0033546Y0055952D01*
X0035270Y0055174D01*
X0035304Y0055188D01*
X0045439Y0055188D01*
X0046655Y0054685D01*
X0047586Y0053754D01*
X0048090Y0052538D01*
X0048090Y0051221D01*
X0047656Y0050174D01*
X0048940Y0048890D01*
X0050535Y0048890D01*
X0051902Y0047523D01*
X0051902Y0045591D01*
X0050535Y0044224D01*
X0048603Y0044224D01*
X0047236Y0045591D01*
X0047236Y0047359D01*
X0045853Y0048742D01*
X0045439Y0048570D01*
X0035304Y0048570D01*
X0034903Y0048736D01*
X0034913Y0048689D01*
X0035004Y0048555D01*
X0034981Y0048435D01*
X0035002Y0048395D01*
X0035065Y0048345D01*
X0035073Y0048266D01*
X0035112Y0048194D01*
X0035089Y0048115D01*
X0035095Y0048055D01*
X0035188Y0047961D01*
X0035188Y0047810D01*
X0035245Y0047675D01*
X0035199Y0047561D01*
X0035234Y0047447D01*
X0035271Y0047401D01*
X0035265Y0047347D01*
X0035282Y0047295D01*
X0035255Y0047243D01*
X0035242Y0047117D01*
X0035311Y0047013D01*
X0035284Y0046879D01*
X0035311Y0046746D01*
X0035242Y0046641D01*
X0035255Y0046516D01*
X0035282Y0046464D01*
X0035265Y0046412D01*
X0035271Y0046357D01*
X0035234Y0046312D01*
X0035199Y0046198D01*
X0035245Y0046084D01*
X0035188Y0045949D01*
X0035188Y0045797D01*
X0035095Y0045704D01*
X0035089Y0045644D01*
X0035112Y0045565D01*
X0035073Y0045493D01*
X0035065Y0045414D01*
X0035002Y0045363D01*
X0034981Y0045323D01*
X0035004Y0045204D01*
X0034913Y0045070D01*
X0034879Y0044904D01*
X0034772Y0044833D01*
X0034768Y0044822D01*
X0034777Y0044729D01*
X0034716Y0044655D01*
X0034687Y0044562D01*
X0034603Y0044518D01*
X0034603Y0044397D01*
X0034496Y0044290D01*
X0034496Y0044290D01*
X0034479Y0044273D01*
X0034469Y0044249D01*
X0034469Y0044249D01*
X0034409Y0044108D01*
X0034300Y0044064D01*
X0034292Y0043981D01*
X0034996Y0044685D01*
X0036213Y0045188D01*
X0045439Y0045188D01*
X0046655Y0044685D01*
X0047586Y0043754D01*
X0047615Y0043684D01*
X0047875Y0043424D01*
X0048534Y0044083D01*
X0050466Y0044083D01*
X0051833Y0042716D01*
X0051833Y0040784D01*
X0050466Y0039417D01*
X0048534Y0039417D01*
X0047691Y0040260D01*
X0047586Y0040005D01*
X0046655Y0039074D01*
X0045439Y0038570D01*
X0036645Y0038570D01*
X0035570Y0037923D01*
X0035423Y0037776D01*
X0035111Y0037646D01*
X0034822Y0037472D01*
X0034616Y0037441D01*
X0034424Y0037362D01*
X0034086Y0037362D01*
X0033752Y0037311D01*
X0033550Y0037362D01*
X0021087Y0037362D01*
X0020896Y0037313D01*
X0020550Y0037362D01*
X0020201Y0037362D01*
X0020020Y0037437D01*
X0019826Y0037464D01*
X0019525Y0037642D01*
X0019202Y0037776D01*
X0019063Y0037914D01*
X0017952Y0038570D01*
X0005565Y0038570D01*
X0004349Y0039074D01*
X0003692Y0039731D01*
X0003692Y0034028D01*
X0004349Y0034685D01*
X0005565Y0035188D01*
X0017324Y0035188D01*
X0017568Y0035087D01*
X0020736Y0036216D01*
X0021173Y0036397D01*
X0021243Y0036397D01*
X0021310Y0036421D01*
X0021782Y0036397D01*
X0032978Y0036397D01*
X0033019Y0036413D01*
X0033517Y0036397D01*
X0034015Y0036397D01*
X0034056Y0036380D01*
X0034100Y0036379D01*
X0034554Y0036174D01*
X0035015Y0035983D01*
X0035046Y0035952D01*
X0036770Y0035174D01*
X0036804Y0035188D01*
X0045439Y0035188D01*
X0046593Y0034710D01*
X0047128Y0035245D01*
X0046894Y0035810D01*
X0046894Y0036777D01*
X0047264Y0037670D01*
X0047948Y0038354D01*
X0048841Y0038724D01*
X0049808Y0038724D01*
X0050702Y0038354D01*
X0051386Y0037670D01*
X0051756Y0036777D01*
X0051756Y0035810D01*
X0051386Y0034916D01*
X0050702Y0034232D01*
X0049808Y0033862D01*
X0048980Y0033862D01*
X0048083Y0032965D01*
X0048083Y0032554D01*
X0048090Y0032538D01*
X0048090Y0031221D01*
X0047586Y0030005D01*
X0046655Y0029074D01*
X0045439Y0028570D01*
X0036804Y0028570D01*
X0035588Y0029074D01*
X0034657Y0030005D01*
X0034577Y0030199D01*
X0033099Y0030866D01*
X0033214Y0030751D01*
X0033237Y0030741D01*
X0033237Y0030741D01*
X0033379Y0030681D01*
X0033423Y0030572D01*
X0033510Y0030564D01*
X0033577Y0030483D01*
X0033670Y0030432D01*
X0033694Y0030351D01*
X0033805Y0030329D01*
X0033907Y0030179D01*
X0034057Y0030077D01*
X0034079Y0029967D01*
X0034160Y0029943D01*
X0034211Y0029849D01*
X0034292Y0029782D01*
X0034300Y0029695D01*
X0034409Y0029651D01*
X0034469Y0029509D01*
X0034469Y0029509D01*
X0034479Y0029485D01*
X0034603Y0029362D01*
X0034603Y0029241D01*
X0034687Y0029197D01*
X0034716Y0029104D01*
X0034777Y0029030D01*
X0034768Y0028937D01*
X0034772Y0028925D01*
X0034879Y0028854D01*
X0034913Y0028689D01*
X0035004Y0028555D01*
X0034981Y0028435D01*
X0035002Y0028395D01*
X0035065Y0028345D01*
X0035073Y0028266D01*
X0035112Y0028194D01*
X0035089Y0028115D01*
X0035095Y0028055D01*
X0035188Y0027961D01*
X0035188Y0027810D01*
X0035245Y0027675D01*
X0035199Y0027561D01*
X0035234Y0027447D01*
X0035271Y0027401D01*
X0035265Y0027347D01*
X0035282Y0027295D01*
X0035255Y0027243D01*
X0035242Y0027117D01*
X0035311Y0027013D01*
X0035284Y0026879D01*
X0035311Y0026746D01*
X0035242Y0026641D01*
X0035255Y0026516D01*
X0035282Y0026464D01*
X0035265Y0026412D01*
X0035271Y0026357D01*
X0035234Y0026312D01*
X0035199Y0026198D01*
X0035245Y0026084D01*
X0035188Y0025949D01*
X0035188Y0025797D01*
X0035095Y0025704D01*
X0035089Y0025644D01*
X0035112Y0025565D01*
X0035073Y0025493D01*
X0035065Y0025414D01*
X0035002Y0025363D01*
X0034981Y0025323D01*
X0035004Y0025204D01*
X0034913Y0025070D01*
X0034879Y0024904D01*
X0034772Y0024833D01*
X0034768Y0024822D01*
X0034777Y0024729D01*
X0034716Y0024655D01*
X0034687Y0024562D01*
X0034603Y0024518D01*
X0034603Y0024397D01*
X0034496Y0024290D01*
X0034496Y0024290D01*
X0034479Y0024273D01*
X0034469Y0024249D01*
X0034469Y0024249D01*
X0034409Y0024108D01*
X0034300Y0024064D01*
X0034292Y0023981D01*
X0034996Y0024685D01*
X0036213Y0025188D01*
X0045439Y0025188D01*
X0046655Y0024685D01*
X0046704Y0024636D01*
X0047325Y0025262D01*
X0047165Y0025648D01*
X0047165Y0026615D01*
X0047535Y0027509D01*
X0048219Y0028193D01*
X0049113Y0028563D01*
X0050080Y0028563D01*
X0050974Y0028193D01*
X0051657Y0027509D01*
X0052028Y0026615D01*
X0052028Y0025648D01*
X0051657Y0024755D01*
X0050974Y0024071D01*
X0050080Y0023701D01*
X0049113Y0023701D01*
X0048745Y0023853D01*
X0047898Y0023000D01*
X0048090Y0022538D01*
X0048090Y0021221D01*
X0047586Y0020005D01*
X0046655Y0019074D01*
X0045439Y0018570D01*
X0042486Y0018570D01*
X0042681Y0018375D01*
X0043051Y0017482D01*
X0043051Y0016514D01*
X0042681Y0015621D01*
X0042249Y0015188D01*
X0045439Y0015188D01*
X0046628Y0014696D01*
X0047676Y0015744D01*
X0047520Y0016121D01*
X0047520Y0017088D01*
X0047890Y0017981D01*
X0048574Y0018665D01*
X0049467Y0019035D01*
X0050434Y0019035D01*
X0051328Y0018665D01*
X0052012Y0017981D01*
X0052382Y0017088D01*
X0052382Y0016121D01*
X0052012Y0015227D01*
X0051328Y0014543D01*
X0050434Y0014173D01*
X0049467Y0014173D01*
X0049090Y0014329D01*
X0047858Y0013097D01*
X0048090Y0012538D01*
X0048090Y0011221D01*
X0047586Y0010005D01*
X0046655Y0009074D01*
X0045439Y0008570D01*
X0005565Y0008570D01*
X0004349Y0009074D01*
X0003692Y0009731D01*
X0003692Y0009124D02*
X0004299Y0009124D01*
X0005187Y0008727D02*
X0005187Y0004098D01*
X0003692Y0005187D02*
X0047390Y0005187D01*
X0046526Y0004867D02*
X0046526Y0009021D01*
X0046705Y0009124D02*
X0053127Y0009124D01*
X0052431Y0008368D02*
X0052431Y0066093D01*
X0052322Y0066211D02*
X0003692Y0066211D01*
X0003692Y0064242D02*
X0043315Y0064242D01*
X0043532Y0064242D02*
X0044031Y0064242D01*
X0044031Y0064285D02*
X0044491Y0064194D01*
X0044933Y0064011D01*
X0045331Y0063745D01*
X0045670Y0063406D01*
X0045936Y0063008D01*
X0046119Y0062565D01*
X0046210Y0062106D01*
X0044032Y0062106D01*
X0044032Y0061606D01*
X0046210Y0061606D01*
X0046119Y0061147D01*
X0045936Y0060705D01*
X0045670Y0060307D01*
X0045331Y0059968D01*
X0044933Y0059702D01*
X0044491Y0059519D01*
X0044031Y0059427D01*
X0044031Y0061606D01*
X0043532Y0061606D01*
X0043532Y0059427D01*
X0043072Y0059519D01*
X0042630Y0059702D01*
X0042232Y0059968D01*
X0041893Y0060307D01*
X0041627Y0060705D01*
X0041444Y0061147D01*
X0041352Y0061606D01*
X0043531Y0061606D01*
X0043531Y0062106D01*
X0041352Y0062106D01*
X0041444Y0062565D01*
X0041627Y0063008D01*
X0041893Y0063406D01*
X0042232Y0063745D01*
X0042630Y0064011D01*
X0043072Y0064194D01*
X0043532Y0064285D01*
X0043532Y0062106D01*
X0044031Y0062106D01*
X0044031Y0064285D01*
X0044248Y0064242D02*
X0054144Y0064242D01*
X0054400Y0063965D02*
X0054400Y0010707D01*
X0054710Y0011093D02*
X0048036Y0011093D01*
X0045712Y0012366D02*
X0045659Y0012310D01*
X0045608Y0012251D01*
X0045561Y0012190D01*
X0045516Y0012127D01*
X0045475Y0012061D01*
X0045436Y0011994D01*
X0045402Y0011925D01*
X0045370Y0011854D01*
X0045342Y0011782D01*
X0045318Y0011708D01*
X0045297Y0011633D01*
X0045280Y0011558D01*
X0045267Y0011482D01*
X0045258Y0011405D01*
X0045252Y0011327D01*
X0045250Y0011250D01*
X0044894Y0011606D01*
X0044869Y0011634D01*
X0044846Y0011665D01*
X0044827Y0011697D01*
X0044810Y0011731D01*
X0044798Y0011767D01*
X0044788Y0011804D01*
X0044783Y0011841D01*
X0044781Y0011879D01*
X0045712Y0012366D02*
X0049951Y0016604D01*
X0052382Y0016998D02*
X0057940Y0016998D01*
X0058337Y0017530D02*
X0058337Y0057376D01*
X0057599Y0058337D02*
X0003692Y0058337D01*
X0003692Y0060305D02*
X0041895Y0060305D01*
X0042589Y0059730D02*
X0042589Y0055188D01*
X0044557Y0055188D02*
X0044557Y0059546D01*
X0044031Y0060305D02*
X0043532Y0060305D01*
X0042589Y0061606D02*
X0042589Y0062106D01*
X0043532Y0062274D02*
X0044031Y0062274D01*
X0044557Y0062106D02*
X0044557Y0061606D01*
X0045668Y0060305D02*
X0056473Y0060305D01*
X0056368Y0060510D02*
X0056368Y0014185D01*
X0056780Y0015030D02*
X0051814Y0015030D01*
X0050463Y0014185D02*
X0050463Y0006807D01*
X0050902Y0007156D02*
X0003692Y0007156D01*
X0007156Y0008570D02*
X0007156Y0004098D01*
X0009124Y0004098D02*
X0009124Y0008570D01*
X0011093Y0008570D02*
X0011093Y0004098D01*
X0013061Y0004098D02*
X0013061Y0008570D01*
X0015030Y0008570D02*
X0015030Y0004098D01*
X0016998Y0004098D02*
X0016998Y0008570D01*
X0018967Y0008570D02*
X0018967Y0004098D01*
X0020935Y0004098D02*
X0020935Y0008570D01*
X0022904Y0008570D02*
X0022904Y0004098D01*
X0024872Y0004098D02*
X0024872Y0008570D01*
X0026841Y0008570D02*
X0026841Y0004098D01*
X0028809Y0004098D02*
X0028809Y0008570D01*
X0030778Y0008570D02*
X0030778Y0004098D01*
X0032746Y0004098D02*
X0032746Y0008570D01*
X0034715Y0008570D02*
X0034715Y0004098D01*
X0036683Y0004098D02*
X0036683Y0008570D01*
X0038652Y0008570D02*
X0038652Y0004098D01*
X0040620Y0004098D02*
X0040620Y0008570D01*
X0042589Y0008570D02*
X0042589Y0004139D01*
X0044557Y0004420D02*
X0044557Y0008570D01*
X0048494Y0005716D02*
X0048494Y0013733D01*
X0047873Y0013061D02*
X0055820Y0013061D01*
X0046962Y0015030D02*
X0045822Y0015030D01*
X0046526Y0014738D02*
X0046526Y0019021D01*
X0046395Y0018967D02*
X0049301Y0018967D01*
X0048494Y0018586D02*
X0048494Y0023601D01*
X0047938Y0022904D02*
X0062492Y0022904D01*
X0062274Y0022702D02*
X0062274Y0052405D01*
X0062244Y0052431D02*
X0048090Y0052431D01*
X0064242Y0050634D02*
X0064242Y0024517D01*
X0064628Y0024872D02*
X0051706Y0024872D01*
X0049596Y0026132D02*
X0045250Y0021750D01*
X0047971Y0020935D02*
X0060871Y0020935D01*
X0060305Y0020175D02*
X0060305Y0054813D01*
X0060623Y0054400D02*
X0046940Y0054400D01*
X0046526Y0054738D02*
X0046526Y0069160D01*
X0044557Y0069577D02*
X0044557Y0064166D01*
X0042589Y0063983D02*
X0042589Y0069661D01*
X0040620Y0069661D02*
X0040620Y0055188D01*
X0038652Y0055188D02*
X0038652Y0069661D01*
X0036683Y0069661D02*
X0036683Y0055188D01*
X0034715Y0055425D02*
X0034715Y0069661D01*
X0032746Y0069661D02*
X0032746Y0056313D01*
X0032624Y0056368D02*
X0059111Y0056368D01*
X0030778Y0056397D02*
X0030778Y0069661D01*
X0028809Y0069661D02*
X0028809Y0056397D01*
X0026841Y0056397D02*
X0026841Y0069661D01*
X0024872Y0069661D02*
X0024872Y0056397D01*
X0022904Y0056397D02*
X0022904Y0069661D01*
X0020935Y0069661D02*
X0020935Y0055899D01*
X0022103Y0056368D02*
X0003692Y0056368D01*
X0005187Y0055032D02*
X0005187Y0069661D01*
X0007156Y0069661D02*
X0007156Y0055188D01*
X0009124Y0055188D02*
X0009124Y0069661D01*
X0011093Y0069661D02*
X0011093Y0055188D01*
X0013061Y0055188D02*
X0013061Y0069661D01*
X0015030Y0069661D02*
X0015030Y0055188D01*
X0016998Y0055188D02*
X0016998Y0069661D01*
X0018967Y0069661D02*
X0018967Y0055129D01*
X0004064Y0054400D02*
X0003692Y0054400D01*
X0003692Y0049731D02*
X0003692Y0044028D01*
X0004349Y0044685D01*
X0005565Y0045188D01*
X0018352Y0045188D01*
X0019355Y0044773D01*
X0019360Y0044822D01*
X0019357Y0044833D01*
X0019249Y0044904D01*
X0019217Y0045058D01*
X0019217Y0045058D01*
X0019215Y0045070D01*
X0019209Y0045078D01*
X0019209Y0045078D01*
X0019124Y0045204D01*
X0019147Y0045323D01*
X0019126Y0045363D01*
X0019063Y0045414D01*
X0019055Y0045493D01*
X0019016Y0045565D01*
X0019039Y0045644D01*
X0019033Y0045704D01*
X0018940Y0045797D01*
X0018940Y0045949D01*
X0018883Y0046083D01*
X0018930Y0046198D01*
X0018894Y0046312D01*
X0018857Y0046358D01*
X0018863Y0046412D01*
X0018846Y0046464D01*
X0018873Y0046516D01*
X0018886Y0046641D01*
X0018817Y0046746D01*
X0018845Y0046879D01*
X0018817Y0047013D01*
X0018886Y0047117D01*
X0018873Y0047243D01*
X0018846Y0047295D01*
X0018863Y0047347D01*
X0018857Y0047401D01*
X0018894Y0047447D01*
X0018930Y0047561D01*
X0018883Y0047676D01*
X0018940Y0047810D01*
X0018940Y0047961D01*
X0019033Y0048055D01*
X0019039Y0048115D01*
X0019016Y0048194D01*
X0019055Y0048266D01*
X0019063Y0048345D01*
X0019126Y0048396D01*
X0019147Y0048435D01*
X0019124Y0048555D01*
X0019209Y0048681D01*
X0019209Y0048681D01*
X0019215Y0048689D01*
X0019217Y0048700D01*
X0019217Y0048700D01*
X0019225Y0048736D01*
X0018824Y0048570D01*
X0005565Y0048570D01*
X0004349Y0049074D01*
X0003692Y0049731D01*
X0003692Y0048494D02*
X0019136Y0048494D01*
X0018967Y0048629D02*
X0018967Y0047988D01*
X0016998Y0048570D02*
X0016998Y0045188D01*
X0015030Y0045188D02*
X0015030Y0048570D01*
X0013061Y0048570D02*
X0013061Y0045188D01*
X0011093Y0045188D02*
X0011093Y0048570D01*
X0009124Y0048570D02*
X0009124Y0045188D01*
X0007156Y0045188D02*
X0007156Y0048570D01*
X0005187Y0048727D02*
X0005187Y0045032D01*
X0004221Y0044557D02*
X0003692Y0044557D01*
X0003692Y0046526D02*
X0018874Y0046526D01*
X0018967Y0045771D02*
X0018967Y0044934D01*
X0034678Y0044557D02*
X0034869Y0044557D01*
X0034715Y0044651D02*
X0034715Y0044403D01*
X0036683Y0045188D02*
X0036683Y0048570D01*
X0034992Y0048494D02*
X0046101Y0048494D01*
X0046526Y0048070D02*
X0046526Y0044738D01*
X0046783Y0044557D02*
X0048270Y0044557D01*
X0048494Y0044333D02*
X0048494Y0044043D01*
X0050463Y0044083D02*
X0050463Y0044224D01*
X0050868Y0044557D02*
X0072604Y0044557D01*
X0072116Y0044856D02*
X0072116Y0030465D01*
X0072616Y0030778D02*
X0047906Y0030778D01*
X0034715Y0029948D02*
X0034715Y0029108D01*
X0034889Y0028809D02*
X0036228Y0028809D01*
X0036683Y0028621D02*
X0036683Y0025188D01*
X0035449Y0024872D02*
X0034830Y0024872D01*
X0034715Y0024651D02*
X0034715Y0024403D01*
X0038652Y0025188D02*
X0038652Y0028570D01*
X0040620Y0028570D02*
X0040620Y0025188D01*
X0042589Y0025188D02*
X0042589Y0028570D01*
X0044557Y0028570D02*
X0044557Y0025188D01*
X0046203Y0024872D02*
X0046938Y0024872D01*
X0046526Y0024738D02*
X0046526Y0029021D01*
X0046015Y0028809D02*
X0069466Y0028809D01*
X0070148Y0029235D02*
X0070148Y0046061D01*
X0069389Y0046526D02*
X0051902Y0046526D01*
X0047236Y0046526D02*
X0035254Y0046526D01*
X0038652Y0045188D02*
X0038652Y0048570D01*
X0040620Y0048570D02*
X0040620Y0045188D01*
X0042589Y0045188D02*
X0042589Y0048570D01*
X0044557Y0048570D02*
X0044557Y0045188D01*
X0045750Y0042250D02*
X0045944Y0042056D01*
X0045979Y0042024D01*
X0046016Y0041994D01*
X0046055Y0041968D01*
X0046097Y0041945D01*
X0046140Y0041925D01*
X0046184Y0041909D01*
X0046230Y0041896D01*
X0046277Y0041886D01*
X0046324Y0041881D01*
X0046371Y0041879D01*
X0051833Y0042589D02*
X0076853Y0042589D01*
X0076053Y0042895D02*
X0076053Y0032512D01*
X0076651Y0032746D02*
X0048083Y0032746D01*
X0048494Y0033377D02*
X0048494Y0028307D01*
X0050463Y0028405D02*
X0050463Y0034133D01*
X0051184Y0034715D02*
X0081871Y0034715D01*
X0081959Y0034731D02*
X0081959Y0040777D01*
X0082807Y0040620D02*
X0051669Y0040620D01*
X0050463Y0039417D02*
X0050463Y0038453D01*
X0049984Y0038652D02*
X0744266Y0038652D01*
X0746488Y0039640D02*
X0746488Y0036784D01*
X0747303Y0036173D01*
X0748277Y0035443D01*
X0751537Y0035443D01*
X0747313Y0034916D02*
X0747313Y0034868D01*
X0746635Y0034715D02*
X0743130Y0034715D01*
X0743376Y0034412D02*
X0743376Y0041550D01*
X0747187Y0043856D02*
X0747270Y0043854D01*
X0747354Y0043849D01*
X0747436Y0043839D01*
X0747519Y0043826D01*
X0747600Y0043809D01*
X0747681Y0043789D01*
X0747761Y0043765D01*
X0747840Y0043738D01*
X0747917Y0043706D01*
X0747993Y0043672D01*
X0748067Y0043634D01*
X0748140Y0043593D01*
X0748211Y0043549D01*
X0748279Y0043501D01*
X0748345Y0043451D01*
X0748409Y0043397D01*
X0748471Y0043341D01*
X0748530Y0043282D01*
X0748586Y0043220D01*
X0748640Y0043156D01*
X0748690Y0043090D01*
X0748738Y0043022D01*
X0748782Y0042951D01*
X0748823Y0042878D01*
X0748861Y0042804D01*
X0748895Y0042728D01*
X0748927Y0042651D01*
X0748954Y0042572D01*
X0748978Y0042492D01*
X0748998Y0042411D01*
X0749015Y0042330D01*
X0749028Y0042247D01*
X0749038Y0042165D01*
X0749043Y0042081D01*
X0749045Y0041998D01*
X0749045Y0037018D01*
X0751537Y0037018D01*
X0745488Y0036683D02*
X0051756Y0036683D01*
X0046894Y0036683D02*
X0003692Y0036683D01*
X0003692Y0034715D02*
X0004421Y0034715D01*
X0005187Y0035032D02*
X0005187Y0038727D01*
X0005369Y0038652D02*
X0003692Y0038652D01*
X0007156Y0038570D02*
X0007156Y0035188D01*
X0009124Y0035188D02*
X0009124Y0038570D01*
X0011093Y0038570D02*
X0011093Y0035188D01*
X0013061Y0035188D02*
X0013061Y0038570D01*
X0015030Y0038570D02*
X0015030Y0035188D01*
X0016998Y0035188D02*
X0016998Y0038570D01*
X0018967Y0037971D02*
X0018967Y0035586D01*
X0020935Y0036299D02*
X0020935Y0037323D01*
X0022904Y0037362D02*
X0022904Y0036397D01*
X0024872Y0036397D02*
X0024872Y0037362D01*
X0026841Y0037362D02*
X0026841Y0036397D01*
X0028809Y0036397D02*
X0028809Y0037362D01*
X0030778Y0037362D02*
X0030778Y0036397D01*
X0032746Y0036397D02*
X0032746Y0037362D01*
X0034715Y0037456D02*
X0034715Y0036107D01*
X0036683Y0035213D02*
X0036683Y0038570D01*
X0038652Y0038570D02*
X0038652Y0035188D01*
X0040620Y0035188D02*
X0040620Y0038570D01*
X0042589Y0038570D02*
X0042589Y0035188D01*
X0044557Y0035188D02*
X0044557Y0038570D01*
X0045635Y0038652D02*
X0048665Y0038652D01*
X0048494Y0038581D02*
X0048494Y0039457D01*
X0046526Y0039021D02*
X0046526Y0034738D01*
X0046583Y0034715D02*
X0046597Y0034715D01*
X0074085Y0031695D02*
X0074085Y0043651D01*
X0078022Y0042140D02*
X0078022Y0033281D01*
X0079990Y0034050D02*
X0079990Y0041385D01*
X0083927Y0040413D02*
X0083927Y0035102D01*
X0085896Y0035473D02*
X0085896Y0040048D01*
X0087864Y0039683D02*
X0087864Y0035843D01*
X0089833Y0036087D02*
X0089833Y0039524D01*
X0091801Y0039524D02*
X0091801Y0036087D01*
X0093770Y0036087D02*
X0093770Y0039524D01*
X0095738Y0039524D02*
X0095738Y0036087D01*
X0097707Y0036087D02*
X0097707Y0039524D01*
X0099675Y0039524D02*
X0099675Y0036087D01*
X0101644Y0036087D02*
X0101644Y0039524D01*
X0103612Y0039524D02*
X0103612Y0036087D01*
X0105581Y0036087D02*
X0105581Y0039524D01*
X0107549Y0039524D02*
X0107549Y0036087D01*
X0109518Y0036087D02*
X0109518Y0039524D01*
X0111486Y0039524D02*
X0111486Y0036087D01*
X0113455Y0036087D02*
X0113455Y0039524D01*
X0115423Y0039524D02*
X0115423Y0036087D01*
X0117392Y0036087D02*
X0117392Y0039524D01*
X0119360Y0039524D02*
X0119360Y0036087D01*
X0121329Y0036087D02*
X0121329Y0039524D01*
X0123297Y0039524D02*
X0123297Y0036087D01*
X0125266Y0036087D02*
X0125266Y0039524D01*
X0127234Y0039524D02*
X0127234Y0036087D01*
X0129203Y0036087D02*
X0129203Y0039524D01*
X0131171Y0039524D02*
X0131171Y0036087D01*
X0133140Y0036087D02*
X0133140Y0039524D01*
X0135108Y0039524D02*
X0135108Y0036087D01*
X0137077Y0036087D02*
X0137077Y0039524D01*
X0139045Y0039524D02*
X0139045Y0036087D01*
X0141014Y0036087D02*
X0141014Y0039524D01*
X0142982Y0039524D02*
X0142982Y0036087D01*
X0144951Y0036087D02*
X0144951Y0039524D01*
X0146919Y0039524D02*
X0146919Y0036087D01*
X0148888Y0036087D02*
X0148888Y0039524D01*
X0150856Y0039524D02*
X0150856Y0036087D01*
X0152825Y0036087D02*
X0152825Y0039524D01*
X0154793Y0039524D02*
X0154793Y0036087D01*
X0156762Y0036087D02*
X0156762Y0039524D01*
X0158730Y0039524D02*
X0158730Y0036087D01*
X0160699Y0036087D02*
X0160699Y0039524D01*
X0162667Y0039524D02*
X0162667Y0036087D01*
X0164636Y0036087D02*
X0164636Y0039524D01*
X0166604Y0039524D02*
X0166604Y0036087D01*
X0168573Y0036087D02*
X0168573Y0039524D01*
X0170541Y0039524D02*
X0170541Y0036087D01*
X0172510Y0036087D02*
X0172510Y0039524D01*
X0174478Y0039524D02*
X0174478Y0036087D01*
X0176447Y0036087D02*
X0176447Y0039524D01*
X0178415Y0039524D02*
X0178415Y0036087D01*
X0180384Y0036087D02*
X0180384Y0039524D01*
X0182352Y0039524D02*
X0182352Y0036087D01*
X0184321Y0036087D02*
X0184321Y0039524D01*
X0186289Y0039524D02*
X0186289Y0036087D01*
X0188258Y0036087D02*
X0188258Y0039524D01*
X0190226Y0039524D02*
X0190226Y0036087D01*
X0192195Y0036087D02*
X0192195Y0039524D01*
X0194163Y0039524D02*
X0194163Y0036087D01*
X0196132Y0036087D02*
X0196132Y0039524D01*
X0198100Y0039524D02*
X0198100Y0036087D01*
X0200069Y0036087D02*
X0200069Y0039524D01*
X0202037Y0039524D02*
X0202037Y0036087D01*
X0204006Y0036087D02*
X0204006Y0039524D01*
X0205974Y0039524D02*
X0205974Y0036087D01*
X0207943Y0036087D02*
X0207943Y0039524D01*
X0209911Y0039524D02*
X0209911Y0036087D01*
X0211880Y0036087D02*
X0211880Y0039524D01*
X0213848Y0039524D02*
X0213848Y0036087D01*
X0215817Y0036087D02*
X0215817Y0039524D01*
X0217785Y0039524D02*
X0217785Y0036087D01*
X0219754Y0036087D02*
X0219754Y0039524D01*
X0221722Y0039524D02*
X0221722Y0036087D01*
X0223691Y0036087D02*
X0223691Y0039524D01*
X0225659Y0039524D02*
X0225659Y0036087D01*
X0227628Y0036087D02*
X0227628Y0039524D01*
X0229596Y0039524D02*
X0229596Y0036087D01*
X0231565Y0036087D02*
X0231565Y0039524D01*
X0233533Y0039524D02*
X0233533Y0036087D01*
X0235502Y0036087D02*
X0235502Y0039524D01*
X0237470Y0039524D02*
X0237470Y0036087D01*
X0239439Y0036087D02*
X0239439Y0039524D01*
X0241407Y0039524D02*
X0241407Y0036087D01*
X0243376Y0036087D02*
X0243376Y0039524D01*
X0245344Y0039524D02*
X0245344Y0036087D01*
X0247313Y0036087D02*
X0247313Y0039524D01*
X0249281Y0039524D02*
X0249281Y0036087D01*
X0251250Y0036087D02*
X0251250Y0039524D01*
X0253219Y0039524D02*
X0253219Y0036087D01*
X0255187Y0036087D02*
X0255187Y0039524D01*
X0257156Y0039524D02*
X0257156Y0036087D01*
X0259124Y0036087D02*
X0259124Y0039524D01*
X0261093Y0039524D02*
X0261093Y0036087D01*
X0263061Y0036087D02*
X0263061Y0039524D01*
X0265030Y0039524D02*
X0265030Y0036087D01*
X0266998Y0036087D02*
X0266998Y0039524D01*
X0268967Y0039524D02*
X0268967Y0036087D01*
X0270935Y0036087D02*
X0270935Y0039524D01*
X0272904Y0039524D02*
X0272904Y0036087D01*
X0274872Y0036087D02*
X0274872Y0039524D01*
X0276841Y0039524D02*
X0276841Y0036087D01*
X0278809Y0036087D02*
X0278809Y0039524D01*
X0280778Y0039524D02*
X0280778Y0036087D01*
X0282746Y0036087D02*
X0282746Y0039524D01*
X0284715Y0039524D02*
X0284715Y0036087D01*
X0286683Y0036087D02*
X0286683Y0039524D01*
X0288652Y0039524D02*
X0288652Y0036087D01*
X0290620Y0036087D02*
X0290620Y0039524D01*
X0292589Y0039524D02*
X0292589Y0036087D01*
X0294557Y0036087D02*
X0294557Y0039524D01*
X0296526Y0039524D02*
X0296526Y0036087D01*
X0298494Y0036087D02*
X0298494Y0039524D01*
X0300463Y0039524D02*
X0300463Y0036087D01*
X0302431Y0036087D02*
X0302431Y0039524D01*
X0304400Y0039524D02*
X0304400Y0036087D01*
X0306368Y0036087D02*
X0306368Y0039524D01*
X0308337Y0039524D02*
X0308337Y0036087D01*
X0310305Y0036087D02*
X0310305Y0039524D01*
X0312274Y0039524D02*
X0312274Y0036087D01*
X0314242Y0036087D02*
X0314242Y0039524D01*
X0316211Y0039524D02*
X0316211Y0036087D01*
X0318179Y0036087D02*
X0318179Y0039524D01*
X0320148Y0039524D02*
X0320148Y0036087D01*
X0322116Y0036087D02*
X0322116Y0039524D01*
X0324085Y0039524D02*
X0324085Y0036087D01*
X0326053Y0036087D02*
X0326053Y0039524D01*
X0328022Y0039524D02*
X0328022Y0036087D01*
X0329990Y0036087D02*
X0329990Y0039524D01*
X0331959Y0039524D02*
X0331959Y0036087D01*
X0333927Y0036087D02*
X0333927Y0039524D01*
X0335896Y0039524D02*
X0335896Y0036087D01*
X0337864Y0036087D02*
X0337864Y0039524D01*
X0339833Y0039524D02*
X0339833Y0036087D01*
X0341801Y0036087D02*
X0341801Y0039524D01*
X0343770Y0039524D02*
X0343770Y0036087D01*
X0345738Y0036087D02*
X0345738Y0039524D01*
X0347707Y0039524D02*
X0347707Y0036087D01*
X0349675Y0036087D02*
X0349675Y0039524D01*
X0351644Y0039524D02*
X0351644Y0036087D01*
X0353612Y0036087D02*
X0353612Y0039524D01*
X0355581Y0039524D02*
X0355581Y0036087D01*
X0357549Y0036087D02*
X0357549Y0039524D01*
X0359518Y0039524D02*
X0359518Y0036087D01*
X0361486Y0036087D02*
X0361486Y0039524D01*
X0363455Y0039524D02*
X0363455Y0036087D01*
X0365423Y0036087D02*
X0365423Y0039524D01*
X0367392Y0039524D02*
X0367392Y0036087D01*
X0369360Y0036087D02*
X0369360Y0039524D01*
X0371329Y0039524D02*
X0371329Y0036087D01*
X0373297Y0036087D02*
X0373297Y0039524D01*
X0375266Y0039524D02*
X0375266Y0036087D01*
X0377234Y0036087D02*
X0377234Y0039524D01*
X0379203Y0039524D02*
X0379203Y0036087D01*
X0381171Y0036087D02*
X0381171Y0039524D01*
X0383140Y0039524D02*
X0383140Y0036087D01*
X0385108Y0036087D02*
X0385108Y0039524D01*
X0387077Y0039524D02*
X0387077Y0036087D01*
X0389045Y0036087D02*
X0389045Y0039524D01*
X0391014Y0039524D02*
X0391014Y0036087D01*
X0392982Y0036087D02*
X0392982Y0039524D01*
X0394951Y0039524D02*
X0394951Y0036087D01*
X0396919Y0036087D02*
X0396919Y0039524D01*
X0398888Y0039524D02*
X0398888Y0036087D01*
X0400856Y0036087D02*
X0400856Y0039524D01*
X0402825Y0039524D02*
X0402825Y0036087D01*
X0404793Y0036087D02*
X0404793Y0039524D01*
X0406762Y0039524D02*
X0406762Y0036087D01*
X0408730Y0036087D02*
X0408730Y0039524D01*
X0410699Y0039524D02*
X0410699Y0036087D01*
X0412667Y0036087D02*
X0412667Y0039524D01*
X0414636Y0039524D02*
X0414636Y0036087D01*
X0416604Y0036087D02*
X0416604Y0039524D01*
X0418573Y0039524D02*
X0418573Y0036087D01*
X0420541Y0036087D02*
X0420541Y0039524D01*
X0422510Y0039524D02*
X0422510Y0036087D01*
X0424478Y0036087D02*
X0424478Y0039524D01*
X0426447Y0039524D02*
X0426447Y0036087D01*
X0428415Y0036087D02*
X0428415Y0039524D01*
X0430384Y0039524D02*
X0430384Y0036087D01*
X0432352Y0036087D02*
X0432352Y0039524D01*
X0434321Y0039524D02*
X0434321Y0036087D01*
X0436289Y0036087D02*
X0436289Y0039524D01*
X0438258Y0039524D02*
X0438258Y0036087D01*
X0440226Y0036087D02*
X0440226Y0039524D01*
X0442195Y0039524D02*
X0442195Y0036087D01*
X0444163Y0036087D02*
X0444163Y0039524D01*
X0446132Y0039524D02*
X0446132Y0036087D01*
X0448100Y0036087D02*
X0448100Y0039524D01*
X0450069Y0039524D02*
X0450069Y0036087D01*
X0452037Y0036087D02*
X0452037Y0039524D01*
X0454006Y0039524D02*
X0454006Y0036087D01*
X0455974Y0036087D02*
X0455974Y0039524D01*
X0457943Y0039524D02*
X0457943Y0036087D01*
X0459911Y0036087D02*
X0459911Y0039524D01*
X0461880Y0039524D02*
X0461880Y0036087D01*
X0463848Y0036087D02*
X0463848Y0039524D01*
X0465817Y0039524D02*
X0465817Y0036087D01*
X0467785Y0036087D02*
X0467785Y0039524D01*
X0469754Y0039524D02*
X0469754Y0036087D01*
X0471722Y0036087D02*
X0471722Y0039524D01*
X0473691Y0039524D02*
X0473691Y0036087D01*
X0475659Y0036087D02*
X0475659Y0039524D01*
X0477628Y0039524D02*
X0477628Y0036087D01*
X0479596Y0036087D02*
X0479596Y0039524D01*
X0481565Y0039524D02*
X0481565Y0036087D01*
X0483533Y0036087D02*
X0483533Y0039524D01*
X0485502Y0039524D02*
X0485502Y0036087D01*
X0487470Y0036087D02*
X0487470Y0039524D01*
X0489439Y0039524D02*
X0489439Y0036087D01*
X0491407Y0036087D02*
X0491407Y0039524D01*
X0493376Y0039524D02*
X0493376Y0036087D01*
X0495344Y0036087D02*
X0495344Y0039524D01*
X0497313Y0039524D02*
X0497313Y0036087D01*
X0499281Y0036087D02*
X0499281Y0039524D01*
X0501250Y0039524D02*
X0501250Y0036087D01*
X0503219Y0036087D02*
X0503219Y0039524D01*
X0505187Y0039524D02*
X0505187Y0036087D01*
X0507156Y0036087D02*
X0507156Y0039524D01*
X0509124Y0039524D02*
X0509124Y0036087D01*
X0511093Y0036087D02*
X0511093Y0039524D01*
X0513061Y0039524D02*
X0513061Y0036087D01*
X0515030Y0036087D02*
X0515030Y0039524D01*
X0516998Y0039524D02*
X0516998Y0036087D01*
X0518967Y0036087D02*
X0518967Y0039524D01*
X0520935Y0039524D02*
X0520935Y0036087D01*
X0522904Y0036087D02*
X0522904Y0039524D01*
X0524872Y0039524D02*
X0524872Y0036087D01*
X0526841Y0036087D02*
X0526841Y0039524D01*
X0528809Y0039524D02*
X0528809Y0036087D01*
X0530778Y0036087D02*
X0530778Y0039524D01*
X0532746Y0039524D02*
X0532746Y0036087D01*
X0534715Y0036087D02*
X0534715Y0039524D01*
X0536683Y0039524D02*
X0536683Y0036087D01*
X0538652Y0036087D02*
X0538652Y0039524D01*
X0540620Y0039524D02*
X0540620Y0036087D01*
X0542589Y0036087D02*
X0542589Y0039524D01*
X0544557Y0039524D02*
X0544557Y0036087D01*
X0546526Y0036087D02*
X0546526Y0039524D01*
X0548494Y0039524D02*
X0548494Y0036087D01*
X0550463Y0036087D02*
X0550463Y0039524D01*
X0552431Y0039524D02*
X0552431Y0036087D01*
X0554400Y0036087D02*
X0554400Y0039524D01*
X0556368Y0039524D02*
X0556368Y0036087D01*
X0558337Y0036087D02*
X0558337Y0039524D01*
X0560305Y0039524D02*
X0560305Y0036087D01*
X0562274Y0036087D02*
X0562274Y0039524D01*
X0564242Y0039524D02*
X0564242Y0036087D01*
X0566211Y0036087D02*
X0566211Y0039524D01*
X0568179Y0039524D02*
X0568179Y0036087D01*
X0570148Y0036087D02*
X0570148Y0039524D01*
X0572116Y0039524D02*
X0572116Y0036087D01*
X0574085Y0036087D02*
X0574085Y0039524D01*
X0576053Y0039524D02*
X0576053Y0036087D01*
X0578022Y0036087D02*
X0578022Y0039524D01*
X0579990Y0039524D02*
X0579990Y0036087D01*
X0581959Y0036087D02*
X0581959Y0039524D01*
X0583927Y0039524D02*
X0583927Y0036087D01*
X0585896Y0036087D02*
X0585896Y0039524D01*
X0587864Y0039524D02*
X0587864Y0036087D01*
X0589833Y0036087D02*
X0589833Y0039524D01*
X0591801Y0039524D02*
X0591801Y0036087D01*
X0593770Y0036087D02*
X0593770Y0039524D01*
X0595738Y0039524D02*
X0595738Y0036087D01*
X0597707Y0036087D02*
X0597707Y0039524D01*
X0599675Y0039524D02*
X0599675Y0036087D01*
X0601644Y0036087D02*
X0601644Y0039524D01*
X0603612Y0039524D02*
X0603612Y0036087D01*
X0605581Y0036087D02*
X0605581Y0039524D01*
X0607549Y0039524D02*
X0607549Y0036087D01*
X0609518Y0036087D02*
X0609518Y0039524D01*
X0611486Y0039524D02*
X0611486Y0036087D01*
X0613455Y0036087D02*
X0613455Y0039524D01*
X0615423Y0039524D02*
X0615423Y0036087D01*
X0617392Y0036087D02*
X0617392Y0039524D01*
X0619360Y0039524D02*
X0619360Y0036087D01*
X0621329Y0036087D02*
X0621329Y0039524D01*
X0623297Y0039524D02*
X0623297Y0036087D01*
X0625266Y0036087D02*
X0625266Y0039524D01*
X0627234Y0039524D02*
X0627234Y0036087D01*
X0629203Y0036087D02*
X0629203Y0039524D01*
X0631171Y0039524D02*
X0631171Y0036087D01*
X0633140Y0036087D02*
X0633140Y0039524D01*
X0635108Y0039524D02*
X0635108Y0036087D01*
X0637077Y0036087D02*
X0637077Y0039524D01*
X0639045Y0039524D02*
X0639045Y0036087D01*
X0641014Y0036087D02*
X0641014Y0039524D01*
X0642982Y0039524D02*
X0642982Y0036087D01*
X0644951Y0036087D02*
X0644951Y0039524D01*
X0646919Y0039524D02*
X0646919Y0036087D01*
X0648888Y0036087D02*
X0648888Y0039524D01*
X0650856Y0039524D02*
X0650856Y0036087D01*
X0652825Y0036087D02*
X0652825Y0039524D01*
X0654793Y0039524D02*
X0654793Y0036087D01*
X0656762Y0036087D02*
X0656762Y0039524D01*
X0658730Y0039524D02*
X0658730Y0036087D01*
X0660699Y0036087D02*
X0660699Y0039524D01*
X0662667Y0039524D02*
X0662667Y0036087D01*
X0664636Y0036087D02*
X0664636Y0039524D01*
X0666604Y0039524D02*
X0666604Y0036087D01*
X0668573Y0036087D02*
X0668573Y0039524D01*
X0670541Y0039524D02*
X0670541Y0036087D01*
X0672510Y0036087D02*
X0672510Y0039524D01*
X0674478Y0039524D02*
X0674478Y0036087D01*
X0676447Y0036087D02*
X0676447Y0039524D01*
X0678415Y0039524D02*
X0678415Y0036087D01*
X0680384Y0036087D02*
X0680384Y0039524D01*
X0682352Y0039524D02*
X0682352Y0036087D01*
X0684321Y0036087D02*
X0684321Y0039524D01*
X0686289Y0039524D02*
X0686289Y0036087D01*
X0688258Y0036087D02*
X0688258Y0039524D01*
X0690226Y0039524D02*
X0690226Y0036087D01*
X0692195Y0036087D02*
X0692195Y0039524D01*
X0694163Y0039524D02*
X0694163Y0036087D01*
X0696132Y0036087D02*
X0696132Y0039524D01*
X0698100Y0039524D02*
X0698100Y0036087D01*
X0700069Y0036087D02*
X0700069Y0039524D01*
X0702037Y0039524D02*
X0702037Y0036087D01*
X0704006Y0036087D02*
X0704006Y0039524D01*
X0705974Y0039524D02*
X0705974Y0036087D01*
X0707943Y0036087D02*
X0707943Y0039524D01*
X0709911Y0039524D02*
X0709911Y0036087D01*
X0711880Y0036087D02*
X0711880Y0039524D01*
X0713848Y0039524D02*
X0713848Y0036087D01*
X0715817Y0036087D02*
X0715817Y0039524D01*
X0717785Y0039524D02*
X0717785Y0036087D01*
X0719754Y0036087D02*
X0719754Y0039524D01*
X0721722Y0039524D02*
X0721722Y0036087D01*
X0723691Y0036087D02*
X0723691Y0039524D01*
X0725659Y0039524D02*
X0725659Y0036087D01*
X0727628Y0036087D02*
X0727628Y0039524D01*
X0729596Y0039524D02*
X0729596Y0036087D01*
X0731565Y0036087D02*
X0731565Y0039524D01*
X0733533Y0039524D02*
X0733533Y0036087D01*
X0735502Y0036087D02*
X0735502Y0039524D01*
X0737470Y0039524D02*
X0737470Y0036087D01*
X0739439Y0036087D02*
X0739439Y0039524D01*
X0741407Y0040145D02*
X0741407Y0035788D01*
X0745344Y0037482D02*
X0745344Y0033490D01*
X0747490Y0033868D02*
X0751537Y0033868D01*
X0747490Y0033868D02*
X0747423Y0033866D01*
X0747356Y0033860D01*
X0747289Y0033851D01*
X0747223Y0033838D01*
X0747158Y0033821D01*
X0747093Y0033801D01*
X0747030Y0033777D01*
X0746969Y0033749D01*
X0746909Y0033718D01*
X0746851Y0033684D01*
X0746795Y0033646D01*
X0746741Y0033606D01*
X0746690Y0033563D01*
X0746641Y0033516D01*
X0746594Y0033467D01*
X0746551Y0033416D01*
X0746511Y0033362D01*
X0746473Y0033306D01*
X0746439Y0033248D01*
X0746408Y0033188D01*
X0746380Y0033127D01*
X0746356Y0033064D01*
X0746336Y0032999D01*
X0746319Y0032934D01*
X0746306Y0032868D01*
X0746297Y0032801D01*
X0746291Y0032734D01*
X0746289Y0032667D01*
X0753728Y0030750D02*
X0753900Y0031506D01*
X0753728Y0030750D02*
X0749978Y0030734D01*
X0751831Y0029742D02*
X0752457Y0029745D01*
X0752728Y0029474D01*
X0752728Y0028586D01*
X0753314Y0028000D01*
X0763138Y0028000D01*
X0751888Y0028000D01*
X0751917Y0028109D01*
X0751917Y0028766D01*
X0751917Y0029422D01*
X0751832Y0029740D01*
X0751831Y0029742D01*
X0751917Y0028809D02*
X0752728Y0028809D01*
X0751917Y0028766D02*
X0749978Y0028766D01*
X0749978Y0028766D01*
X0748039Y0028766D01*
X0748039Y0029422D01*
X0748090Y0029613D01*
X0747666Y0029189D01*
X0746977Y0028904D01*
X0747248Y0028691D01*
X0748039Y0028417D01*
X0748039Y0028766D01*
X0749978Y0028766D01*
X0749978Y0028000D01*
X0763978Y0028000D01*
X0770978Y0036750D01*
X0770978Y0041250D01*
X0764978Y0047750D01*
X0749478Y0047750D01*
X0749494Y0045750D01*
X0749486Y0044682D01*
X0750423Y0043744D01*
X0750424Y0043750D01*
X0753585Y0043750D01*
X0753872Y0044037D01*
X0753900Y0044104D02*
X0753900Y0044104D01*
X0753900Y0041673D01*
X0754458Y0041673D01*
X0754633Y0041720D01*
X0754060Y0041147D01*
X0753870Y0040689D01*
X0753870Y0041038D01*
X0753870Y0041673D01*
X0753900Y0041673D01*
X0753900Y0044104D01*
X0753885Y0044125D01*
X0753900Y0044104D02*
X0753898Y0044085D01*
X0753893Y0044068D01*
X0753884Y0044051D01*
X0753872Y0044037D01*
X0752256Y0043909D02*
X0752256Y0043287D01*
X0749879Y0043287D01*
X0749793Y0043201D01*
X0749441Y0043811D01*
X0749494Y0043811D01*
X0749494Y0045750D01*
X0749494Y0047689D01*
X0748837Y0047689D01*
X0748519Y0047604D01*
X0748234Y0047439D01*
X0748002Y0047206D01*
X0747837Y0046921D01*
X0747752Y0046604D01*
X0747752Y0045875D01*
X0747710Y0045917D01*
X0746816Y0046287D01*
X0746235Y0046287D01*
X0746279Y0046348D01*
X0747710Y0047388D01*
X0749393Y0047934D01*
X0750278Y0048004D01*
X0765386Y0048004D01*
X0766271Y0047934D01*
X0767953Y0047388D01*
X0769385Y0046347D01*
X0770425Y0044916D01*
X0770972Y0043233D01*
X0771041Y0042348D01*
X0771041Y0033655D01*
X0770972Y0032771D01*
X0770425Y0031088D01*
X0769385Y0029656D01*
X0767953Y0028616D01*
X0766271Y0028070D01*
X0765386Y0028000D01*
X0763543Y0028000D01*
X0763893Y0028000D01*
X0763945Y0028052D01*
X0764018Y0028062D01*
X0764231Y0028339D01*
X0764478Y0028586D01*
X0764478Y0028659D01*
X0768454Y0033820D01*
X0768565Y0033840D01*
X0768658Y0033975D01*
X0768804Y0034050D01*
X0768885Y0034303D01*
X0769405Y0035054D01*
X0770585Y0036585D01*
X0770831Y0036828D01*
X0770831Y0036832D01*
X0770835Y0036836D01*
X0770835Y0036909D01*
X0770880Y0036968D01*
X0770835Y0037311D01*
X0770838Y0037656D01*
X0770835Y0037659D01*
X0770835Y0040309D01*
X0770882Y0040372D01*
X0770835Y0040713D01*
X0770835Y0041058D01*
X0770779Y0041114D01*
X0770768Y0041192D01*
X0770493Y0041400D01*
X0770249Y0041644D01*
X0770170Y0041644D01*
X0767118Y0043947D01*
X0767118Y0045421D01*
X0765752Y0046787D01*
X0764215Y0046787D01*
X0764069Y0046885D01*
X0763897Y0047093D01*
X0763738Y0047108D01*
X0763117Y0047526D01*
X0762893Y0047750D01*
X0762783Y0047750D01*
X0762693Y0047811D01*
X0762381Y0047750D01*
X0762133Y0047750D01*
X0762125Y0047757D01*
X0761720Y0047750D01*
X0751486Y0047750D01*
X0751080Y0047756D01*
X0751073Y0047750D01*
X0751064Y0047750D01*
X0750905Y0047591D01*
X0750493Y0047591D01*
X0750493Y0047590D01*
X0750469Y0047604D01*
X0750151Y0047689D01*
X0749494Y0047689D01*
X0749494Y0045750D01*
X0749494Y0045750D01*
X0749494Y0045750D01*
X0749494Y0043811D01*
X0750151Y0043811D01*
X0750469Y0043896D01*
X0750493Y0043910D01*
X0750493Y0043909D01*
X0752256Y0043909D01*
X0751250Y0043909D02*
X0751250Y0043287D01*
X0753900Y0042589D02*
X0753900Y0042589D01*
X0747187Y0043856D02*
X0746333Y0043856D01*
X0749494Y0044557D02*
X0749494Y0044557D01*
X0749486Y0044682D02*
X0749511Y0047905D01*
X0765148Y0047782D01*
X0765129Y0047745D01*
X0768636Y0044238D01*
X0768951Y0044238D01*
X0770542Y0044557D02*
X0767118Y0044557D01*
X0766998Y0045541D02*
X0766998Y0047698D01*
X0765030Y0048004D02*
X0765030Y0046787D01*
X0766013Y0046526D02*
X0769140Y0046526D01*
X0768967Y0046651D02*
X0768967Y0042552D01*
X0768918Y0042589D02*
X0771022Y0042589D01*
X0770935Y0043346D02*
X0770935Y0032658D01*
X0770964Y0032746D02*
X0767627Y0032746D01*
X0766998Y0031930D02*
X0766998Y0028306D01*
X0768219Y0028809D02*
X0764594Y0028809D01*
X0765030Y0029375D02*
X0765030Y0028000D01*
X0763543Y0028000D02*
X0763543Y0028000D01*
X0763138Y0028000D02*
X0763138Y0028000D01*
X0763061Y0028000D02*
X0763061Y0028000D01*
X0763478Y0029000D02*
X0753728Y0029000D01*
X0753728Y0030750D01*
X0751917Y0028766D02*
X0749978Y0028766D01*
X0749978Y0028766D01*
X0749281Y0028766D02*
X0749281Y0028766D01*
X0748039Y0028809D02*
X0747098Y0028809D01*
X0747313Y0028668D02*
X0747313Y0029043D01*
X0751250Y0028766D02*
X0751250Y0028766D01*
X0753219Y0028096D02*
X0753219Y0028000D01*
X0755187Y0028000D02*
X0755187Y0028000D01*
X0757156Y0028000D02*
X0757156Y0028000D01*
X0759124Y0028000D02*
X0759124Y0028000D01*
X0761093Y0028000D02*
X0761093Y0028000D01*
X0763478Y0029000D02*
X0769835Y0037250D01*
X0769441Y0036863D01*
X0767978Y0034750D01*
X0765817Y0035443D01*
X0764136Y0035443D01*
X0769170Y0034715D02*
X0771041Y0034715D01*
X0768967Y0034421D02*
X0768967Y0029353D01*
X0770199Y0030778D02*
X0766110Y0030778D01*
X0770684Y0036683D02*
X0771041Y0036683D01*
X0769835Y0037250D02*
X0769835Y0040644D01*
X0764785Y0044455D01*
X0763392Y0046136D01*
X0762478Y0046750D01*
X0761728Y0046750D01*
X0761774Y0044104D01*
X0751463Y0045750D02*
X0751478Y0046750D01*
X0761728Y0046750D01*
X0761093Y0047750D02*
X0761093Y0048004D01*
X0763061Y0048004D02*
X0763061Y0047582D01*
X0759124Y0047750D02*
X0759124Y0048004D01*
X0757156Y0048004D02*
X0757156Y0047750D01*
X0755187Y0047750D02*
X0755187Y0048004D01*
X0753219Y0048004D02*
X0753219Y0047750D01*
X0751250Y0047754D02*
X0751250Y0048004D01*
X0749281Y0047898D02*
X0749281Y0047689D01*
X0747313Y0047099D02*
X0747313Y0046082D01*
X0747752Y0046526D02*
X0746524Y0046526D01*
X0749494Y0046526D02*
X0749494Y0046526D01*
X0744263Y0040620D02*
X0742474Y0040620D01*
X0766978Y0037000D02*
X0767478Y0039000D01*
X0770835Y0038652D02*
X0771041Y0038652D01*
X0771041Y0040620D02*
X0770848Y0040620D01*
X0766978Y0037000D02*
X0764136Y0037018D01*
X0068179Y0028005D02*
X0068179Y0047267D01*
X0066620Y0048494D02*
X0050931Y0048494D01*
X0050463Y0048890D02*
X0050463Y0067503D01*
X0049358Y0068179D02*
X0003692Y0068179D01*
X0048494Y0068605D02*
X0048494Y0049336D01*
X0047775Y0050463D02*
X0064432Y0050463D01*
X0066211Y0048862D02*
X0066211Y0026331D01*
X0066763Y0026841D02*
X0051934Y0026841D01*
X0047259Y0026841D02*
X0035291Y0026841D01*
X0019357Y0024833D02*
X0019249Y0024904D01*
X0019217Y0025058D01*
X0019217Y0025058D01*
X0019215Y0025070D01*
X0019209Y0025078D01*
X0019209Y0025078D01*
X0019124Y0025204D01*
X0019147Y0025323D01*
X0019126Y0025363D01*
X0019063Y0025414D01*
X0019055Y0025493D01*
X0019016Y0025565D01*
X0019039Y0025644D01*
X0019033Y0025704D01*
X0018940Y0025797D01*
X0018940Y0025949D01*
X0018883Y0026083D01*
X0018930Y0026198D01*
X0018894Y0026312D01*
X0018857Y0026358D01*
X0018863Y0026412D01*
X0018846Y0026464D01*
X0018873Y0026516D01*
X0018886Y0026641D01*
X0018817Y0026746D01*
X0018845Y0026879D01*
X0018817Y0027013D01*
X0018886Y0027117D01*
X0018873Y0027243D01*
X0018846Y0027295D01*
X0018863Y0027347D01*
X0018857Y0027401D01*
X0018894Y0027447D01*
X0018930Y0027561D01*
X0018883Y0027676D01*
X0018940Y0027810D01*
X0018940Y0027961D01*
X0019033Y0028055D01*
X0019039Y0028115D01*
X0019016Y0028194D01*
X0019055Y0028266D01*
X0019063Y0028345D01*
X0019126Y0028396D01*
X0019147Y0028435D01*
X0019124Y0028555D01*
X0019209Y0028681D01*
X0019209Y0028681D01*
X0019215Y0028689D01*
X0019217Y0028700D01*
X0019217Y0028700D01*
X0019249Y0028854D01*
X0019357Y0028925D01*
X0019360Y0028937D01*
X0019351Y0029030D01*
X0019412Y0029104D01*
X0019441Y0029197D01*
X0019525Y0029241D01*
X0019525Y0029362D01*
X0019649Y0029486D01*
X0019719Y0029651D01*
X0019828Y0029695D01*
X0019836Y0029782D01*
X0019918Y0029849D01*
X0019968Y0029943D01*
X0020050Y0029967D01*
X0020071Y0030077D01*
X0020197Y0030162D01*
X0020197Y0030162D01*
X0020221Y0030179D01*
X0020238Y0030203D01*
X0020238Y0030203D01*
X0020294Y0030287D01*
X0019453Y0029987D01*
X0018540Y0029074D01*
X0017324Y0028570D01*
X0005565Y0028570D01*
X0004349Y0029074D01*
X0003692Y0029731D01*
X0003692Y0024028D01*
X0004349Y0024685D01*
X0005565Y0025188D01*
X0017352Y0025188D01*
X0018569Y0024685D01*
X0019499Y0023754D01*
X0019630Y0023439D01*
X0020892Y0022799D01*
X0021208Y0022799D01*
X0021203Y0022800D01*
X0021159Y0022884D01*
X0021038Y0022884D01*
X0020915Y0023007D01*
X0020891Y0023017D01*
X0020891Y0023017D01*
X0020749Y0023077D01*
X0020705Y0023186D01*
X0020618Y0023195D01*
X0020551Y0023276D01*
X0020458Y0023327D01*
X0020434Y0023408D01*
X0020323Y0023430D01*
X0020238Y0023555D01*
X0020238Y0023555D01*
X0020221Y0023580D01*
X0020197Y0023597D01*
X0020197Y0023597D01*
X0020071Y0023682D01*
X0020050Y0023792D01*
X0019968Y0023816D01*
X0019917Y0023910D01*
X0019836Y0023977D01*
X0019828Y0024064D01*
X0019719Y0024108D01*
X0019659Y0024249D01*
X0019659Y0024249D01*
X0019649Y0024273D01*
X0019525Y0024397D01*
X0019525Y0024518D01*
X0019441Y0024562D01*
X0019412Y0024655D01*
X0019351Y0024729D01*
X0019360Y0024822D01*
X0019357Y0024833D01*
X0019298Y0024872D02*
X0018116Y0024872D01*
X0018967Y0024287D02*
X0018967Y0025771D01*
X0018837Y0026841D02*
X0003692Y0026841D01*
X0003692Y0024872D02*
X0004801Y0024872D01*
X0005187Y0025032D02*
X0005187Y0028727D01*
X0004989Y0028809D02*
X0003692Y0028809D01*
X0007156Y0028570D02*
X0007156Y0025188D01*
X0009124Y0025188D02*
X0009124Y0028570D01*
X0011093Y0028570D02*
X0011093Y0025188D01*
X0013061Y0025188D02*
X0013061Y0028570D01*
X0015030Y0028570D02*
X0015030Y0025188D01*
X0016998Y0025188D02*
X0016998Y0028570D01*
X0017900Y0028809D02*
X0019240Y0028809D01*
X0018967Y0029501D02*
X0018967Y0027988D01*
X0033187Y0030778D02*
X0033294Y0030778D01*
X0050463Y0023859D02*
X0050463Y0019024D01*
X0050601Y0018967D02*
X0059406Y0018967D01*
X0044557Y0018570D02*
X0044557Y0015188D01*
X0042589Y0015188D02*
X0042589Y0015528D01*
X0038992Y0015188D02*
X0005565Y0015188D01*
X0004349Y0014685D01*
X0003692Y0014028D01*
X0003692Y0019731D01*
X0004349Y0019074D01*
X0005565Y0018570D01*
X0017209Y0018570D01*
X0018626Y0017852D01*
X0018702Y0017776D01*
X0019105Y0017609D01*
X0019495Y0017411D01*
X0019602Y0017403D01*
X0019701Y0017362D01*
X0020138Y0017362D01*
X0020573Y0017328D01*
X0020675Y0017362D01*
X0034815Y0017362D01*
X0035288Y0017338D01*
X0035354Y0017362D01*
X0035424Y0017362D01*
X0035860Y0017543D01*
X0036306Y0017702D01*
X0036358Y0017749D01*
X0036423Y0017776D01*
X0036757Y0018110D01*
X0037266Y0018570D01*
X0038754Y0018570D01*
X0038559Y0018375D01*
X0038189Y0017482D01*
X0038189Y0016514D01*
X0038559Y0015621D01*
X0038992Y0015188D01*
X0038652Y0015188D02*
X0038652Y0015528D01*
X0036683Y0015188D02*
X0036683Y0018036D01*
X0038189Y0016998D02*
X0003692Y0016998D01*
X0005187Y0018727D02*
X0005187Y0015032D01*
X0005182Y0015030D02*
X0003692Y0015030D01*
X0007156Y0015188D02*
X0007156Y0018570D01*
X0009124Y0018570D02*
X0009124Y0015188D01*
X0011093Y0015188D02*
X0011093Y0018570D01*
X0013061Y0018570D02*
X0013061Y0015188D01*
X0015030Y0015188D02*
X0015030Y0018570D01*
X0016998Y0018570D02*
X0016998Y0015188D01*
X0018967Y0015188D02*
X0018967Y0017666D01*
X0020935Y0017362D02*
X0020935Y0015188D01*
X0022904Y0015188D02*
X0022904Y0017362D01*
X0024872Y0017362D02*
X0024872Y0015188D01*
X0026841Y0015188D02*
X0026841Y0017362D01*
X0028809Y0017362D02*
X0028809Y0015188D01*
X0030778Y0015188D02*
X0030778Y0017362D01*
X0032746Y0017362D02*
X0032746Y0015188D01*
X0034715Y0015188D02*
X0034715Y0017362D01*
X0038652Y0018468D02*
X0038652Y0018570D01*
X0042589Y0018570D02*
X0042589Y0018468D01*
X0043051Y0016998D02*
X0047520Y0016998D01*
X0004609Y0018967D02*
X0003692Y0018967D01*
X0020685Y0022904D02*
X0021018Y0022904D01*
X0020935Y0022987D02*
X0020935Y0022799D01*
X0061996Y0022446D02*
X0061996Y0022446D01*
X0055463Y0062274D02*
X0046177Y0062274D01*
X0041386Y0062274D02*
X0003692Y0062274D01*
D17*
X0006223Y0061879D02*
X0044781Y0061879D01*
X0006223Y0061879D01*
X0044781Y0061879D01*
X0044781Y0051879D02*
X0035963Y0051879D01*
X0018166Y0051879D02*
X0006223Y0051879D01*
X0006223Y0041879D02*
X0017694Y0041879D01*
X0036871Y0041879D02*
X0044781Y0041879D01*
X0044781Y0031879D02*
X0037463Y0031879D01*
X0016666Y0031879D02*
X0006223Y0031879D01*
X0006223Y0021879D02*
X0016694Y0021879D01*
X0036871Y0021879D02*
X0044781Y0021879D01*
X0044781Y0011879D02*
X0006223Y0011879D01*
D18*
X0010699Y0016998D03*
X0040620Y0016998D03*
X0049951Y0016604D03*
X0049596Y0026132D03*
X0040620Y0026841D03*
X0010699Y0026841D03*
X0062274Y0030778D03*
X0049325Y0036293D03*
X0010699Y0046919D03*
X0746333Y0043856D03*
X0746488Y0039640D03*
X0746289Y0031250D03*
D19*
X0037463Y0031879D02*
X0033475Y0033679D01*
X0021713Y0033679D01*
X0016666Y0031879D01*
X0020742Y0040080D02*
X0033883Y0040080D01*
X0036871Y0041879D01*
X0020742Y0040080D02*
X0017694Y0041879D01*
X0018166Y0051879D02*
X0022713Y0053679D01*
X0031975Y0053679D01*
X0035963Y0051879D01*
X0036871Y0021879D02*
X0034883Y0020080D01*
X0020242Y0020080D01*
X0016694Y0021879D01*
D20*
X0045750Y0032250D02*
X0049325Y0035825D01*
X0049325Y0036293D01*
X0049500Y0041750D02*
X0046371Y0041879D01*
X0044781Y0041879D01*
X0049569Y0046557D02*
X0049610Y0046603D01*
X0045250Y0050963D01*
X0045250Y0051750D01*
D21*
X0746289Y0032667D02*
X0746289Y0031250D01*
M02*
