G75*
%MOIN*%
%OFA0B0*%
%FSLAX25Y25*%
%IPPOS*%
%LPD*%
%AMOC8*
5,1,8,0,0,1.08239X$1,22.5*
%
%ADD10C,0.02756*%
%ADD11C,0.02953*%
%ADD12C,0.00500*%
%ADD13C,0.00600*%
D10*
X0049500Y0041750D03*
X0049569Y0046557D03*
X0050169Y0052407D03*
X0764785Y0044455D03*
X0768951Y0044238D03*
X0767478Y0039000D03*
D11*
X0746488Y0039640D03*
X0746333Y0043856D03*
X0746289Y0031250D03*
X0062274Y0030778D03*
X0040620Y0026841D03*
X0049596Y0026132D03*
X0010699Y0026841D03*
X0010699Y0016998D03*
X0040620Y0016998D03*
X0049951Y0016604D03*
X0049325Y0036293D03*
X0010699Y0046919D03*
D12*
X0003692Y0069347D02*
X0003692Y0004098D01*
X0041848Y0004098D01*
X0043561Y0004194D01*
X0046901Y0004953D01*
X0049990Y0006433D01*
X0052674Y0008560D01*
X0054820Y0011230D01*
X0055657Y0012727D01*
X0055657Y0012727D01*
X0057359Y0016217D01*
X0057359Y0016217D01*
X0061996Y0022446D01*
X0061996Y0022446D01*
X0067705Y0027709D01*
X0067705Y0027709D01*
X0074291Y0031824D01*
X0074291Y0031824D01*
X0081524Y0034649D01*
X0081524Y0034649D01*
X0084713Y0035250D01*
X0056164Y0035250D01*
X0054500Y0033586D01*
X0054500Y0019952D01*
X0053914Y0019366D01*
X0053914Y0019366D01*
X0052314Y0017766D01*
X0052579Y0017127D01*
X0052579Y0016082D01*
X0052179Y0015116D01*
X0051439Y0014376D01*
X0050474Y0013976D01*
X0049428Y0013976D01*
X0048462Y0014376D01*
X0047723Y0015116D01*
X0047323Y0016082D01*
X0047323Y0017127D01*
X0047723Y0018093D01*
X0048462Y0018832D01*
X0049428Y0019232D01*
X0050474Y0019232D01*
X0050812Y0019092D01*
X0052500Y0020780D01*
X0052500Y0027761D01*
X0052500Y0027761D01*
X0052500Y0027743D01*
X0052218Y0027461D01*
X0051991Y0027219D01*
X0052224Y0026655D01*
X0052224Y0025609D01*
X0051824Y0024643D01*
X0051085Y0023904D01*
X0050119Y0023504D01*
X0049074Y0023504D01*
X0048108Y0023904D01*
X0047369Y0024643D01*
X0046969Y0025609D01*
X0046969Y0026655D01*
X0047369Y0027620D01*
X0048108Y0028360D01*
X0049074Y0028760D01*
X0050119Y0028760D01*
X0050500Y0028602D01*
X0050500Y0033936D01*
X0049848Y0033665D01*
X0048802Y0033665D01*
X0047836Y0034065D01*
X0047097Y0034805D01*
X0046697Y0035771D01*
X0046697Y0036816D01*
X0047097Y0037782D01*
X0047836Y0038521D01*
X0048802Y0038921D01*
X0049848Y0038921D01*
X0050336Y0038719D01*
X0051867Y0040250D01*
X0084805Y0040250D01*
X0081215Y0040915D01*
X0081215Y0040915D01*
X0074083Y0043651D01*
X0074083Y0043651D01*
X0067569Y0047641D01*
X0067569Y0047641D01*
X0061890Y0052750D01*
X0061890Y0052750D01*
X0057237Y0058808D01*
X0057237Y0058808D01*
X0055918Y0061392D01*
X0055918Y0061392D01*
X0055501Y0062210D01*
X0054536Y0063818D01*
X0051996Y0066564D01*
X0048806Y0068517D01*
X0045205Y0069532D01*
X0043335Y0069661D01*
X0003692Y0069661D01*
X0003692Y0069347D01*
X0003692Y0069347D01*
X0005187Y0069661D02*
X0005187Y0004098D01*
X0003692Y0005187D02*
X0047390Y0005187D01*
X0046526Y0004867D02*
X0046526Y0069160D01*
X0044557Y0069577D02*
X0044557Y0004420D01*
X0042589Y0004139D02*
X0042589Y0015250D01*
X0042368Y0015030D02*
X0047809Y0015030D01*
X0048494Y0014363D02*
X0048494Y0005716D01*
X0050463Y0006807D02*
X0050463Y0013976D01*
X0052092Y0015030D02*
X0056780Y0015030D01*
X0056368Y0014185D02*
X0056368Y0035250D01*
X0055629Y0034715D02*
X0081871Y0034715D01*
X0081959Y0034731D02*
X0081959Y0035250D01*
X0083927Y0035250D02*
X0083927Y0035102D01*
X0079990Y0035250D02*
X0079990Y0034050D01*
X0078022Y0033281D02*
X0078022Y0035250D01*
X0076053Y0035250D02*
X0076053Y0032512D01*
X0076651Y0032746D02*
X0054500Y0032746D01*
X0050500Y0032746D02*
X0003692Y0032746D01*
X0021159Y0030875D02*
X0021203Y0030959D01*
X0021296Y0030988D01*
X0021370Y0031049D01*
X0021464Y0031040D01*
X0021475Y0031044D01*
X0021546Y0031151D01*
X0021711Y0031185D01*
X0021719Y0031191D01*
X0021719Y0031191D01*
X0021845Y0031276D01*
X0021965Y0031253D01*
X0022005Y0031274D01*
X0022055Y0031337D01*
X0022134Y0031345D01*
X0022206Y0031384D01*
X0022285Y0031361D01*
X0022346Y0031367D01*
X0022439Y0031460D01*
X0022590Y0031460D01*
X0022725Y0031517D01*
X0022839Y0031471D01*
X0023105Y0031554D01*
X0023220Y0031494D01*
X0023654Y0031583D01*
X0023759Y0031514D01*
X0024043Y0031543D01*
X0024145Y0031460D01*
X0029983Y0031460D01*
X0030085Y0031543D01*
X0030369Y0031514D01*
X0030474Y0031583D01*
X0030908Y0031494D01*
X0031023Y0031554D01*
X0031289Y0031471D01*
X0031403Y0031517D01*
X0031538Y0031460D01*
X0031689Y0031460D01*
X0031782Y0031367D01*
X0031843Y0031361D01*
X0031922Y0031384D01*
X0031994Y0031345D01*
X0032073Y0031337D01*
X0032123Y0031274D01*
X0032163Y0031253D01*
X0032283Y0031276D01*
X0032417Y0031185D01*
X0032582Y0031151D01*
X0032653Y0031044D01*
X0032665Y0031040D01*
X0032758Y0031049D01*
X0032832Y0030988D01*
X0032925Y0030959D01*
X0032969Y0030875D01*
X0033090Y0030875D01*
X0033214Y0030751D01*
X0033237Y0030741D01*
X0033237Y0030741D01*
X0033379Y0030681D01*
X0033423Y0030572D01*
X0033510Y0030564D01*
X0033577Y0030483D01*
X0033670Y0030432D01*
X0033694Y0030351D01*
X0033805Y0030329D01*
X0033907Y0030179D01*
X0034057Y0030077D01*
X0034079Y0029967D01*
X0034160Y0029943D01*
X0034211Y0029849D01*
X0034292Y0029782D01*
X0034300Y0029695D01*
X0034409Y0029651D01*
X0034469Y0029509D01*
X0034469Y0029509D01*
X0034479Y0029485D01*
X0034603Y0029362D01*
X0034603Y0029241D01*
X0034687Y0029197D01*
X0034716Y0029104D01*
X0034777Y0029030D01*
X0034768Y0028937D01*
X0034772Y0028925D01*
X0034879Y0028854D01*
X0034913Y0028689D01*
X0035004Y0028555D01*
X0034981Y0028435D01*
X0035002Y0028395D01*
X0035065Y0028345D01*
X0035073Y0028266D01*
X0035112Y0028194D01*
X0035089Y0028115D01*
X0035095Y0028055D01*
X0035188Y0027961D01*
X0035188Y0027810D01*
X0035245Y0027675D01*
X0035199Y0027561D01*
X0035234Y0027447D01*
X0035271Y0027401D01*
X0035265Y0027347D01*
X0035282Y0027295D01*
X0035255Y0027243D01*
X0035242Y0027117D01*
X0035311Y0027013D01*
X0035284Y0026879D01*
X0035311Y0026746D01*
X0035242Y0026641D01*
X0035255Y0026516D01*
X0035282Y0026464D01*
X0035265Y0026412D01*
X0035271Y0026357D01*
X0035234Y0026312D01*
X0035199Y0026198D01*
X0035245Y0026084D01*
X0035188Y0025949D01*
X0035188Y0025797D01*
X0035095Y0025704D01*
X0035089Y0025644D01*
X0035112Y0025565D01*
X0035073Y0025493D01*
X0035065Y0025414D01*
X0035002Y0025363D01*
X0034981Y0025323D01*
X0035004Y0025204D01*
X0034913Y0025070D01*
X0034879Y0024904D01*
X0034772Y0024833D01*
X0034768Y0024822D01*
X0034777Y0024729D01*
X0034716Y0024655D01*
X0034687Y0024562D01*
X0034603Y0024518D01*
X0034603Y0024397D01*
X0034496Y0024290D01*
X0034496Y0024290D01*
X0034479Y0024273D01*
X0034469Y0024249D01*
X0034469Y0024249D01*
X0034409Y0024108D01*
X0034300Y0024064D01*
X0034292Y0023977D01*
X0034211Y0023910D01*
X0034160Y0023816D01*
X0034079Y0023792D01*
X0034057Y0023682D01*
X0033907Y0023580D01*
X0033805Y0023430D01*
X0033694Y0023408D01*
X0033670Y0023327D01*
X0033577Y0023276D01*
X0033510Y0023195D01*
X0033423Y0023186D01*
X0033379Y0023077D01*
X0033237Y0023018D01*
X0033237Y0023017D01*
X0033213Y0023007D01*
X0033197Y0022991D01*
X0033197Y0022991D01*
X0033090Y0022884D01*
X0032969Y0022884D01*
X0032925Y0022800D01*
X0032832Y0022771D01*
X0032758Y0022710D01*
X0032665Y0022719D01*
X0032653Y0022715D01*
X0032582Y0022607D01*
X0032417Y0022574D01*
X0032283Y0022483D01*
X0032163Y0022506D01*
X0032123Y0022484D01*
X0032073Y0022422D01*
X0031994Y0022414D01*
X0031922Y0022375D01*
X0031843Y0022398D01*
X0031782Y0022392D01*
X0031689Y0022299D01*
X0031538Y0022299D01*
X0031403Y0022242D01*
X0031289Y0022288D01*
X0031023Y0022205D01*
X0030908Y0022265D01*
X0030474Y0022176D01*
X0030369Y0022245D01*
X0030085Y0022216D01*
X0029983Y0022299D01*
X0024145Y0022299D01*
X0024043Y0022216D01*
X0023759Y0022245D01*
X0023654Y0022176D01*
X0023220Y0022265D01*
X0023105Y0022205D01*
X0022839Y0022288D01*
X0022725Y0022242D01*
X0022590Y0022299D01*
X0022439Y0022299D01*
X0022346Y0022392D01*
X0022285Y0022398D01*
X0022206Y0022375D01*
X0022134Y0022414D01*
X0022055Y0022422D01*
X0022005Y0022484D01*
X0021965Y0022506D01*
X0021845Y0022483D01*
X0021719Y0022568D01*
X0021719Y0022568D01*
X0021711Y0022574D01*
X0021546Y0022607D01*
X0021475Y0022715D01*
X0021464Y0022719D01*
X0021370Y0022710D01*
X0021296Y0022771D01*
X0021203Y0022800D01*
X0021159Y0022884D01*
X0021038Y0022884D01*
X0020915Y0023007D01*
X0020891Y0023017D01*
X0020891Y0023017D01*
X0020749Y0023077D01*
X0020705Y0023186D01*
X0020618Y0023195D01*
X0020551Y0023276D01*
X0020458Y0023327D01*
X0020434Y0023408D01*
X0020323Y0023430D01*
X0020238Y0023555D01*
X0020238Y0023555D01*
X0020221Y0023580D01*
X0020197Y0023597D01*
X0020197Y0023597D01*
X0020071Y0023682D01*
X0020050Y0023792D01*
X0019968Y0023816D01*
X0019917Y0023910D01*
X0019836Y0023977D01*
X0019828Y0024064D01*
X0019719Y0024108D01*
X0019659Y0024249D01*
X0019659Y0024249D01*
X0019649Y0024273D01*
X0019525Y0024397D01*
X0019525Y0024518D01*
X0019441Y0024562D01*
X0019412Y0024655D01*
X0019351Y0024729D01*
X0019360Y0024822D01*
X0019357Y0024833D01*
X0019249Y0024904D01*
X0019217Y0025058D01*
X0019217Y0025058D01*
X0019215Y0025070D01*
X0019209Y0025078D01*
X0019209Y0025078D01*
X0019124Y0025204D01*
X0019147Y0025323D01*
X0019126Y0025363D01*
X0019063Y0025414D01*
X0019055Y0025493D01*
X0019016Y0025565D01*
X0019039Y0025644D01*
X0019033Y0025704D01*
X0018940Y0025797D01*
X0018940Y0025949D01*
X0018883Y0026083D01*
X0018930Y0026198D01*
X0018894Y0026312D01*
X0018857Y0026358D01*
X0018863Y0026412D01*
X0018846Y0026464D01*
X0018873Y0026516D01*
X0018886Y0026641D01*
X0018817Y0026746D01*
X0018845Y0026879D01*
X0018817Y0027013D01*
X0018886Y0027117D01*
X0018873Y0027243D01*
X0018846Y0027295D01*
X0018863Y0027347D01*
X0018857Y0027401D01*
X0018894Y0027447D01*
X0018930Y0027561D01*
X0018883Y0027676D01*
X0018940Y0027810D01*
X0018940Y0027961D01*
X0019033Y0028055D01*
X0019039Y0028115D01*
X0019016Y0028194D01*
X0019055Y0028266D01*
X0019063Y0028345D01*
X0019126Y0028396D01*
X0019147Y0028435D01*
X0019124Y0028555D01*
X0019209Y0028681D01*
X0019209Y0028681D01*
X0019215Y0028689D01*
X0019217Y0028700D01*
X0019217Y0028700D01*
X0019249Y0028854D01*
X0019357Y0028925D01*
X0019360Y0028937D01*
X0019351Y0029030D01*
X0019412Y0029104D01*
X0019441Y0029197D01*
X0019525Y0029241D01*
X0019525Y0029362D01*
X0019649Y0029486D01*
X0019719Y0029651D01*
X0019828Y0029695D01*
X0019836Y0029782D01*
X0019918Y0029849D01*
X0019968Y0029943D01*
X0020050Y0029967D01*
X0020071Y0030077D01*
X0020197Y0030162D01*
X0020197Y0030162D01*
X0020221Y0030179D01*
X0020238Y0030203D01*
X0020238Y0030203D01*
X0020323Y0030329D01*
X0020434Y0030351D01*
X0020458Y0030432D01*
X0020551Y0030483D01*
X0020618Y0030564D01*
X0020705Y0030572D01*
X0020749Y0030682D01*
X0020914Y0030751D01*
X0021038Y0030875D01*
X0021159Y0030875D01*
X0020941Y0030778D02*
X0003692Y0030778D01*
X0003692Y0028809D02*
X0019240Y0028809D01*
X0018967Y0027988D02*
X0018967Y0045771D01*
X0018940Y0045797D02*
X0019033Y0045704D01*
X0019039Y0045644D01*
X0019016Y0045565D01*
X0019055Y0045493D01*
X0019063Y0045414D01*
X0019126Y0045363D01*
X0019147Y0045323D01*
X0019124Y0045204D01*
X0019209Y0045078D01*
X0019215Y0045070D01*
X0019217Y0045058D01*
X0019249Y0044904D01*
X0019357Y0044833D01*
X0019360Y0044822D01*
X0019351Y0044729D01*
X0019412Y0044655D01*
X0019441Y0044562D01*
X0019525Y0044518D01*
X0019525Y0044397D01*
X0019649Y0044273D01*
X0019659Y0044249D01*
X0019719Y0044108D01*
X0019828Y0044064D01*
X0019836Y0043977D01*
X0019917Y0043910D01*
X0019968Y0043816D01*
X0020050Y0043792D01*
X0020071Y0043682D01*
X0020197Y0043597D01*
X0020197Y0043597D01*
X0020221Y0043580D01*
X0020238Y0043555D01*
X0020323Y0043430D01*
X0020434Y0043408D01*
X0020458Y0043327D01*
X0020551Y0043276D01*
X0020618Y0043195D01*
X0020705Y0043186D01*
X0020749Y0043077D01*
X0020891Y0043017D01*
X0020915Y0043007D01*
X0021038Y0042884D01*
X0021159Y0042884D01*
X0021203Y0042800D01*
X0021296Y0042771D01*
X0021370Y0042710D01*
X0021464Y0042719D01*
X0021475Y0042715D01*
X0021546Y0042607D01*
X0021711Y0042574D01*
X0021719Y0042568D01*
X0021719Y0042568D01*
X0021845Y0042483D01*
X0021965Y0042506D01*
X0022005Y0042484D01*
X0022055Y0042422D01*
X0022134Y0042414D01*
X0022206Y0042375D01*
X0022285Y0042398D01*
X0022346Y0042392D01*
X0022439Y0042299D01*
X0022590Y0042299D01*
X0022725Y0042242D01*
X0022839Y0042288D01*
X0023105Y0042205D01*
X0023220Y0042265D01*
X0023654Y0042176D01*
X0023759Y0042245D01*
X0024043Y0042216D01*
X0024145Y0042299D01*
X0029983Y0042299D01*
X0030085Y0042216D01*
X0030369Y0042245D01*
X0030474Y0042176D01*
X0030908Y0042265D01*
X0031023Y0042205D01*
X0031289Y0042288D01*
X0031403Y0042242D01*
X0031538Y0042299D01*
X0031689Y0042299D01*
X0031782Y0042392D01*
X0031843Y0042398D01*
X0031922Y0042375D01*
X0031994Y0042414D01*
X0032073Y0042422D01*
X0032123Y0042484D01*
X0032163Y0042506D01*
X0032283Y0042483D01*
X0032417Y0042574D01*
X0032582Y0042607D01*
X0032653Y0042715D01*
X0032665Y0042719D01*
X0032758Y0042710D01*
X0032832Y0042771D01*
X0032925Y0042800D01*
X0032969Y0042884D01*
X0033090Y0042884D01*
X0033197Y0042991D01*
X0033213Y0043007D01*
X0033237Y0043017D01*
X0033237Y0043018D01*
X0033379Y0043077D01*
X0033423Y0043186D01*
X0033510Y0043195D01*
X0033577Y0043276D01*
X0033670Y0043327D01*
X0033694Y0043408D01*
X0033805Y0043430D01*
X0033907Y0043580D01*
X0034057Y0043682D01*
X0034079Y0043792D01*
X0034160Y0043816D01*
X0034211Y0043910D01*
X0034292Y0043977D01*
X0034300Y0044064D01*
X0034409Y0044108D01*
X0034469Y0044249D01*
X0034469Y0044249D01*
X0034479Y0044273D01*
X0034496Y0044290D01*
X0034603Y0044397D01*
X0034603Y0044518D01*
X0034687Y0044562D01*
X0034716Y0044655D01*
X0034777Y0044729D01*
X0034768Y0044822D01*
X0034772Y0044833D01*
X0034879Y0044904D01*
X0034913Y0045070D01*
X0035004Y0045204D01*
X0034981Y0045323D01*
X0035002Y0045363D01*
X0035065Y0045414D01*
X0035073Y0045493D01*
X0035112Y0045565D01*
X0035089Y0045644D01*
X0035095Y0045704D01*
X0035188Y0045797D01*
X0035188Y0045949D01*
X0035245Y0046084D01*
X0035199Y0046198D01*
X0035234Y0046312D01*
X0035271Y0046357D01*
X0035265Y0046412D01*
X0035282Y0046464D01*
X0035255Y0046516D01*
X0035242Y0046641D01*
X0035311Y0046746D01*
X0035284Y0046879D01*
X0035311Y0047013D01*
X0035242Y0047117D01*
X0035255Y0047243D01*
X0035282Y0047295D01*
X0035265Y0047347D01*
X0035271Y0047401D01*
X0035234Y0047447D01*
X0035199Y0047561D01*
X0035245Y0047675D01*
X0035188Y0047810D01*
X0035188Y0047961D01*
X0035095Y0048055D01*
X0035089Y0048115D01*
X0035112Y0048194D01*
X0035073Y0048266D01*
X0035065Y0048345D01*
X0035002Y0048395D01*
X0034981Y0048435D01*
X0035004Y0048555D01*
X0034913Y0048689D01*
X0034879Y0048854D01*
X0034772Y0048925D01*
X0034768Y0048937D01*
X0034777Y0049030D01*
X0034716Y0049104D01*
X0034687Y0049197D01*
X0034603Y0049241D01*
X0034603Y0049362D01*
X0034479Y0049485D01*
X0034469Y0049509D01*
X0034409Y0049651D01*
X0034300Y0049695D01*
X0034292Y0049782D01*
X0034211Y0049849D01*
X0034160Y0049943D01*
X0034079Y0049967D01*
X0034057Y0050077D01*
X0033907Y0050179D01*
X0033805Y0050329D01*
X0033694Y0050351D01*
X0033670Y0050432D01*
X0033577Y0050483D01*
X0033510Y0050564D01*
X0033423Y0050572D01*
X0033379Y0050681D01*
X0033237Y0050741D01*
X0033237Y0050741D01*
X0033214Y0050751D01*
X0033090Y0050875D01*
X0032969Y0050875D01*
X0032925Y0050959D01*
X0032832Y0050988D01*
X0032758Y0051049D01*
X0032665Y0051040D01*
X0032653Y0051044D01*
X0032582Y0051151D01*
X0032417Y0051185D01*
X0032283Y0051276D01*
X0032163Y0051253D01*
X0032123Y0051274D01*
X0032073Y0051337D01*
X0031994Y0051345D01*
X0031922Y0051384D01*
X0031843Y0051361D01*
X0031782Y0051367D01*
X0031689Y0051460D01*
X0031538Y0051460D01*
X0031403Y0051517D01*
X0031289Y0051471D01*
X0031023Y0051554D01*
X0030908Y0051494D01*
X0030474Y0051583D01*
X0030369Y0051514D01*
X0030085Y0051543D01*
X0029983Y0051460D01*
X0024145Y0051460D01*
X0024043Y0051543D01*
X0023759Y0051514D01*
X0023654Y0051583D01*
X0023220Y0051494D01*
X0023105Y0051554D01*
X0022839Y0051471D01*
X0022725Y0051517D01*
X0022590Y0051460D01*
X0022439Y0051460D01*
X0022346Y0051367D01*
X0022285Y0051361D01*
X0022206Y0051384D01*
X0022134Y0051345D01*
X0022055Y0051337D01*
X0022005Y0051274D01*
X0021965Y0051253D01*
X0021845Y0051276D01*
X0021719Y0051191D01*
X0021711Y0051185D01*
X0021546Y0051151D01*
X0021475Y0051044D01*
X0021464Y0051040D01*
X0021370Y0051049D01*
X0021296Y0050988D01*
X0021203Y0050959D01*
X0021159Y0050875D01*
X0021038Y0050875D01*
X0020914Y0050751D01*
X0020749Y0050682D01*
X0020705Y0050572D01*
X0020618Y0050564D01*
X0020551Y0050483D01*
X0020458Y0050432D01*
X0020434Y0050351D01*
X0020323Y0050329D01*
X0020238Y0050203D01*
X0020221Y0050179D01*
X0020197Y0050162D01*
X0020071Y0050077D01*
X0020050Y0049967D01*
X0019968Y0049943D01*
X0019918Y0049849D01*
X0019836Y0049782D01*
X0019828Y0049695D01*
X0019719Y0049651D01*
X0019649Y0049486D01*
X0019525Y0049362D01*
X0019525Y0049241D01*
X0019441Y0049197D01*
X0019412Y0049104D01*
X0019351Y0049030D01*
X0019360Y0048937D01*
X0019357Y0048925D01*
X0019249Y0048854D01*
X0019217Y0048700D01*
X0019215Y0048689D01*
X0019209Y0048681D01*
X0019209Y0048681D01*
X0019124Y0048555D01*
X0019147Y0048435D01*
X0019126Y0048396D01*
X0019063Y0048345D01*
X0019055Y0048266D01*
X0019016Y0048194D01*
X0019039Y0048115D01*
X0019033Y0048055D01*
X0018940Y0047961D01*
X0018940Y0047810D01*
X0018883Y0047676D01*
X0018930Y0047561D01*
X0018894Y0047447D01*
X0018857Y0047401D01*
X0018863Y0047347D01*
X0018846Y0047295D01*
X0018873Y0047243D01*
X0018886Y0047117D01*
X0018817Y0047013D01*
X0018845Y0046879D01*
X0018817Y0046746D01*
X0018886Y0046641D01*
X0018873Y0046516D01*
X0018846Y0046464D01*
X0018863Y0046412D01*
X0018857Y0046358D01*
X0018894Y0046312D01*
X0018930Y0046198D01*
X0018883Y0046083D01*
X0018940Y0045949D01*
X0018940Y0045797D01*
X0018874Y0046526D02*
X0003692Y0046526D01*
X0003692Y0044557D02*
X0019450Y0044557D01*
X0019659Y0044249D02*
X0019659Y0044249D01*
X0020238Y0043555D02*
X0020238Y0043555D01*
X0020891Y0043017D02*
X0020891Y0043017D01*
X0020935Y0042987D02*
X0020935Y0030772D01*
X0022904Y0031491D02*
X0022904Y0042268D01*
X0021638Y0042589D02*
X0003692Y0042589D01*
X0003692Y0040620D02*
X0047230Y0040620D01*
X0047356Y0040317D02*
X0048067Y0039606D01*
X0048997Y0039220D01*
X0050003Y0039220D01*
X0050933Y0039606D01*
X0051644Y0040317D01*
X0052030Y0041247D01*
X0052030Y0042253D01*
X0051644Y0043183D01*
X0050933Y0043894D01*
X0050342Y0044139D01*
X0051002Y0044413D01*
X0051713Y0045124D01*
X0052098Y0046054D01*
X0052098Y0047060D01*
X0051713Y0047990D01*
X0051002Y0048702D01*
X0050072Y0049087D01*
X0049066Y0049087D01*
X0048136Y0048702D01*
X0047424Y0047990D01*
X0047039Y0047060D01*
X0047039Y0046054D01*
X0047424Y0045124D01*
X0048136Y0044413D01*
X0048727Y0044168D01*
X0048067Y0043894D01*
X0047356Y0043183D01*
X0046970Y0042253D01*
X0046970Y0041247D01*
X0047356Y0040317D01*
X0048494Y0039429D02*
X0048494Y0038794D01*
X0048151Y0038652D02*
X0003692Y0038652D01*
X0003692Y0036683D02*
X0046697Y0036683D01*
X0049325Y0036293D02*
X0052281Y0039250D01*
X0741796Y0039250D01*
X0741864Y0039251D01*
X0741932Y0039257D01*
X0741999Y0039265D01*
X0742066Y0039278D01*
X0742132Y0039294D01*
X0742198Y0039313D01*
X0742262Y0039337D01*
X0742324Y0039363D01*
X0742386Y0039393D01*
X0742445Y0039426D01*
X0742503Y0039463D01*
X0742558Y0039502D01*
X0742612Y0039544D01*
X0742663Y0039590D01*
X0742711Y0039637D01*
X0742757Y0039688D01*
X0742800Y0039741D01*
X0742840Y0039796D01*
X0742877Y0039853D01*
X0742911Y0039912D01*
X0742942Y0039973D01*
X0742969Y0040035D01*
X0742993Y0040099D01*
X0743013Y0040164D01*
X0743030Y0040230D01*
X0743043Y0040297D01*
X0743053Y0040365D01*
X0743059Y0040432D01*
X0743061Y0040501D01*
X0743061Y0040500D02*
X0743061Y0040620D01*
X0746297Y0043856D01*
X0746333Y0043856D01*
X0748850Y0043067D02*
X0748850Y0040805D01*
X0748831Y0040850D02*
X0765751Y0040850D01*
X0765650Y0040749D02*
X0765650Y0042075D01*
X0765590Y0042050D02*
X0771041Y0042050D01*
X0771041Y0042348D02*
X0771041Y0033655D01*
X0770972Y0032771D01*
X0770425Y0031088D01*
X0769385Y0029656D01*
X0767953Y0028616D01*
X0766271Y0028070D01*
X0765386Y0028000D01*
X0749957Y0028000D01*
X0749020Y0028078D01*
X0747248Y0028691D01*
X0747155Y0028764D01*
X0747778Y0029022D01*
X0748517Y0029761D01*
X0748917Y0030727D01*
X0748917Y0031773D01*
X0748517Y0032739D01*
X0747778Y0033478D01*
X0747339Y0033660D01*
X0747339Y0033949D01*
X0746724Y0034564D01*
X0746654Y0034564D01*
X0745615Y0035602D01*
X0745484Y0035841D01*
X0745333Y0035885D01*
X0745222Y0035996D01*
X0744950Y0035996D01*
X0742506Y0036707D01*
X0745487Y0036707D01*
X0746015Y0037012D01*
X0747011Y0037012D01*
X0747977Y0037412D01*
X0748716Y0038151D01*
X0749116Y0039117D01*
X0749116Y0040162D01*
X0748716Y0041128D01*
X0748019Y0041826D01*
X0748561Y0042368D01*
X0748961Y0043334D01*
X0748961Y0044379D01*
X0748561Y0045345D01*
X0747821Y0046084D01*
X0746855Y0046484D01*
X0746467Y0046484D01*
X0747710Y0047388D01*
X0749393Y0047934D01*
X0750278Y0048004D01*
X0765386Y0048004D01*
X0766271Y0047934D01*
X0767953Y0047388D01*
X0769385Y0046347D01*
X0770425Y0044916D01*
X0770972Y0043233D01*
X0771041Y0042348D01*
X0770966Y0043250D02*
X0767024Y0043250D01*
X0766930Y0043022D02*
X0767315Y0043952D01*
X0767315Y0044958D01*
X0766930Y0045888D01*
X0766218Y0046599D01*
X0765289Y0046984D01*
X0764282Y0046984D01*
X0763353Y0046599D01*
X0762641Y0045888D01*
X0762256Y0044958D01*
X0762256Y0043952D01*
X0762641Y0043022D01*
X0763353Y0042310D01*
X0764282Y0041925D01*
X0765289Y0041925D01*
X0766218Y0042310D01*
X0766930Y0043022D01*
X0766850Y0042942D02*
X0766850Y0041478D01*
X0766975Y0041530D02*
X0766045Y0041144D01*
X0765334Y0040433D01*
X0764949Y0039503D01*
X0764949Y0038497D01*
X0765334Y0037567D01*
X0766045Y0036856D01*
X0766975Y0036470D01*
X0767981Y0036470D01*
X0768911Y0036856D01*
X0769623Y0037567D01*
X0770008Y0038497D01*
X0770008Y0039503D01*
X0769623Y0040433D01*
X0768911Y0041144D01*
X0767981Y0041530D01*
X0766975Y0041530D01*
X0768050Y0041501D02*
X0768050Y0047317D01*
X0768693Y0046850D02*
X0765613Y0046850D01*
X0765650Y0046835D02*
X0765650Y0047983D01*
X0764450Y0048004D02*
X0764450Y0046984D01*
X0763958Y0046850D02*
X0746970Y0046850D01*
X0747650Y0047344D02*
X0747650Y0046155D01*
X0748255Y0045650D02*
X0762543Y0045650D01*
X0763250Y0046497D02*
X0763250Y0048004D01*
X0762050Y0048004D02*
X0762050Y0028000D01*
X0763250Y0028000D02*
X0763250Y0042413D01*
X0763981Y0042050D02*
X0748243Y0042050D01*
X0748926Y0043250D02*
X0762547Y0043250D01*
X0762256Y0044450D02*
X0748931Y0044450D01*
X0748850Y0044646D02*
X0748850Y0047758D01*
X0750050Y0047986D02*
X0750050Y0028000D01*
X0751250Y0028000D02*
X0751250Y0048004D01*
X0752450Y0048004D02*
X0752450Y0028000D01*
X0753650Y0028000D02*
X0753650Y0048004D01*
X0754850Y0048004D02*
X0754850Y0028000D01*
X0756050Y0028000D02*
X0756050Y0048004D01*
X0757250Y0048004D02*
X0757250Y0028000D01*
X0758450Y0028000D02*
X0758450Y0048004D01*
X0759650Y0048004D02*
X0759650Y0028000D01*
X0760850Y0028000D02*
X0760850Y0048004D01*
X0766850Y0047746D02*
X0766850Y0045967D01*
X0767028Y0045650D02*
X0769892Y0045650D01*
X0770450Y0044839D02*
X0770450Y0031165D01*
X0770478Y0031250D02*
X0748917Y0031250D01*
X0748850Y0031935D02*
X0748850Y0038475D01*
X0748840Y0038450D02*
X0764968Y0038450D01*
X0765010Y0039650D02*
X0749116Y0039650D01*
X0746488Y0039640D02*
X0746488Y0039441D01*
X0746486Y0039358D01*
X0746480Y0039276D01*
X0746470Y0039194D01*
X0746457Y0039113D01*
X0746439Y0039032D01*
X0746418Y0038952D01*
X0746393Y0038874D01*
X0746364Y0038797D01*
X0746331Y0038721D01*
X0746295Y0038646D01*
X0746256Y0038574D01*
X0746213Y0038504D01*
X0746166Y0038435D01*
X0746117Y0038369D01*
X0746064Y0038305D01*
X0746009Y0038244D01*
X0745951Y0038186D01*
X0745890Y0038131D01*
X0745826Y0038078D01*
X0745760Y0038029D01*
X0745691Y0037982D01*
X0745621Y0037939D01*
X0745549Y0037900D01*
X0745474Y0037864D01*
X0745398Y0037831D01*
X0745321Y0037802D01*
X0745243Y0037777D01*
X0745163Y0037756D01*
X0745082Y0037738D01*
X0745001Y0037725D01*
X0744919Y0037715D01*
X0744837Y0037709D01*
X0744754Y0037707D01*
X0060927Y0037707D01*
X0058250Y0037750D01*
X0055000Y0037750D01*
X0051500Y0034250D01*
X0051500Y0028157D01*
X0049596Y0026132D01*
X0047274Y0024872D02*
X0034830Y0024872D01*
X0034715Y0024651D02*
X0034715Y0004098D01*
X0036683Y0004098D02*
X0036683Y0069661D01*
X0034715Y0069661D02*
X0034715Y0049108D01*
X0034469Y0049509D02*
X0034469Y0049509D01*
X0034992Y0048494D02*
X0047929Y0048494D01*
X0048494Y0048850D02*
X0048494Y0068605D01*
X0049358Y0068179D02*
X0003692Y0068179D01*
X0007156Y0069661D02*
X0007156Y0004098D01*
X0009124Y0004098D02*
X0009124Y0069661D01*
X0011093Y0069661D02*
X0011093Y0004098D01*
X0013061Y0004098D02*
X0013061Y0069661D01*
X0015030Y0069661D02*
X0015030Y0004098D01*
X0016998Y0004098D02*
X0016998Y0069661D01*
X0018967Y0069661D02*
X0018967Y0047988D01*
X0019136Y0048494D02*
X0003692Y0048494D01*
X0003692Y0050463D02*
X0020514Y0050463D01*
X0020238Y0050203D02*
X0020238Y0050203D01*
X0020197Y0050162D02*
X0020197Y0050162D01*
X0020935Y0050772D02*
X0020935Y0069661D01*
X0022904Y0069661D02*
X0022904Y0051491D01*
X0021719Y0051191D02*
X0021719Y0051191D01*
X0024872Y0051460D02*
X0024872Y0069661D01*
X0026841Y0069661D02*
X0026841Y0051460D01*
X0028809Y0051460D02*
X0028809Y0069661D01*
X0030778Y0069661D02*
X0030778Y0051521D01*
X0032746Y0051048D02*
X0032746Y0069661D01*
X0038652Y0069661D02*
X0038652Y0018746D01*
X0038872Y0018967D02*
X0003692Y0018967D01*
X0003692Y0020935D02*
X0052500Y0020935D01*
X0052431Y0020711D02*
X0052431Y0027674D01*
X0052500Y0026841D02*
X0052147Y0026841D01*
X0054500Y0026841D02*
X0066763Y0026841D01*
X0066211Y0026331D02*
X0066211Y0035250D01*
X0068179Y0035250D02*
X0068179Y0028005D01*
X0069466Y0028809D02*
X0054500Y0028809D01*
X0050500Y0028809D02*
X0034889Y0028809D01*
X0034715Y0029108D02*
X0034715Y0044651D01*
X0034678Y0044557D02*
X0047992Y0044557D01*
X0048494Y0044264D02*
X0048494Y0044071D01*
X0050463Y0044089D02*
X0050463Y0044189D01*
X0051146Y0044557D02*
X0072604Y0044557D01*
X0072116Y0044856D02*
X0072116Y0040250D01*
X0070148Y0040250D02*
X0070148Y0046061D01*
X0069389Y0046526D02*
X0052098Y0046526D01*
X0047039Y0046526D02*
X0035254Y0046526D01*
X0019217Y0045058D02*
X0019217Y0045058D01*
X0019209Y0045078D02*
X0019209Y0045078D01*
X0033197Y0042991D02*
X0033197Y0042991D01*
X0032746Y0042711D02*
X0032746Y0031048D01*
X0033187Y0030778D02*
X0050500Y0030778D01*
X0054500Y0030778D02*
X0072616Y0030778D01*
X0072116Y0030465D02*
X0072116Y0035250D01*
X0070148Y0035250D02*
X0070148Y0029235D01*
X0050463Y0028618D02*
X0050463Y0033920D01*
X0048494Y0033793D02*
X0048494Y0028520D01*
X0047046Y0026841D02*
X0035291Y0026841D01*
X0019298Y0024872D02*
X0003692Y0024872D01*
X0003692Y0026841D02*
X0018837Y0026841D01*
X0018967Y0025771D02*
X0018967Y0004098D01*
X0020935Y0004098D02*
X0020935Y0022987D01*
X0021018Y0022904D02*
X0003692Y0022904D01*
X0022904Y0022268D02*
X0022904Y0004098D01*
X0024872Y0004098D02*
X0024872Y0022299D01*
X0026841Y0022299D02*
X0026841Y0004098D01*
X0028809Y0004098D02*
X0028809Y0022299D01*
X0030778Y0022238D02*
X0030778Y0004098D01*
X0032746Y0004098D02*
X0032746Y0022711D01*
X0033110Y0022904D02*
X0052500Y0022904D01*
X0054500Y0022904D02*
X0062492Y0022904D01*
X0062274Y0022702D02*
X0062274Y0035250D01*
X0064242Y0035250D02*
X0064242Y0024517D01*
X0064628Y0024872D02*
X0054500Y0024872D01*
X0052500Y0024872D02*
X0051919Y0024872D01*
X0050463Y0023646D02*
X0050463Y0019232D01*
X0048787Y0018967D02*
X0042368Y0018967D01*
X0042589Y0018746D02*
X0042589Y0069661D01*
X0040620Y0069661D02*
X0040620Y0019626D01*
X0040097Y0019626D02*
X0039131Y0019226D01*
X0038392Y0018487D01*
X0037992Y0017521D01*
X0037992Y0016475D01*
X0038392Y0015509D01*
X0039131Y0014770D01*
X0040097Y0014370D01*
X0041143Y0014370D01*
X0042109Y0014770D01*
X0042848Y0015509D01*
X0043248Y0016475D01*
X0043248Y0017521D01*
X0042848Y0018487D01*
X0042109Y0019226D01*
X0041143Y0019626D01*
X0040097Y0019626D01*
X0048494Y0018845D02*
X0048494Y0023744D01*
X0061996Y0022446D02*
X0061996Y0022446D01*
X0060871Y0020935D02*
X0054500Y0020935D01*
X0054400Y0019852D02*
X0054400Y0010707D01*
X0054710Y0011093D02*
X0003692Y0011093D01*
X0003692Y0009124D02*
X0053127Y0009124D01*
X0052431Y0008368D02*
X0052431Y0015725D01*
X0052579Y0016998D02*
X0057940Y0016998D01*
X0058337Y0017530D02*
X0058337Y0035250D01*
X0060305Y0035250D02*
X0060305Y0020175D01*
X0059406Y0018967D02*
X0053515Y0018967D01*
X0053500Y0020366D02*
X0050101Y0016967D01*
X0050071Y0016934D01*
X0050044Y0016898D01*
X0050020Y0016861D01*
X0049999Y0016821D01*
X0049982Y0016779D01*
X0049968Y0016737D01*
X0049959Y0016693D01*
X0049953Y0016649D01*
X0049951Y0016604D01*
X0052431Y0017483D02*
X0052431Y0017883D01*
X0047323Y0016998D02*
X0043248Y0016998D01*
X0037992Y0016998D02*
X0003692Y0016998D01*
X0003692Y0015030D02*
X0038872Y0015030D01*
X0038652Y0015250D02*
X0038652Y0004098D01*
X0040620Y0004098D02*
X0040620Y0014370D01*
X0055820Y0013061D02*
X0003692Y0013061D01*
X0003692Y0007156D02*
X0050902Y0007156D01*
X0053500Y0020366D02*
X0053500Y0034000D01*
X0055750Y0036250D01*
X0058281Y0036250D01*
X0740541Y0036250D01*
X0740560Y0036231D02*
X0744807Y0034996D01*
X0746289Y0033514D01*
X0747362Y0033650D02*
X0771041Y0033650D01*
X0770867Y0032450D02*
X0748637Y0032450D01*
X0747650Y0033531D02*
X0747650Y0037277D01*
X0747586Y0037250D02*
X0765651Y0037250D01*
X0765650Y0037251D02*
X0765650Y0028021D01*
X0764450Y0028000D02*
X0764450Y0041925D01*
X0769206Y0040850D02*
X0771041Y0040850D01*
X0769250Y0040806D02*
X0769250Y0046445D01*
X0770576Y0044450D02*
X0767315Y0044450D01*
X0769947Y0039650D02*
X0771041Y0039650D01*
X0771041Y0038450D02*
X0769988Y0038450D01*
X0769306Y0037250D02*
X0771041Y0037250D01*
X0769250Y0037194D02*
X0769250Y0029558D01*
X0769671Y0030050D02*
X0748637Y0030050D01*
X0748850Y0030565D02*
X0748850Y0028137D01*
X0747650Y0028552D02*
X0747650Y0028969D01*
X0747362Y0028850D02*
X0768275Y0028850D01*
X0768050Y0028687D02*
X0768050Y0036499D01*
X0766850Y0036522D02*
X0766850Y0028258D01*
X0746289Y0031171D02*
X0746289Y0031250D01*
X0746450Y0034768D02*
X0746450Y0037012D01*
X0745250Y0036707D02*
X0745250Y0035968D01*
X0744764Y0036050D02*
X0771041Y0036050D01*
X0771041Y0034850D02*
X0746368Y0034850D01*
X0744050Y0036258D02*
X0744050Y0036707D01*
X0742850Y0036707D02*
X0742850Y0036607D01*
X0083927Y0040250D02*
X0083927Y0040413D01*
X0082807Y0040620D02*
X0051770Y0040620D01*
X0052431Y0040250D02*
X0052431Y0066093D01*
X0052322Y0066211D02*
X0003692Y0066211D01*
X0003692Y0064242D02*
X0054144Y0064242D01*
X0054400Y0063965D02*
X0054400Y0040250D01*
X0056368Y0040250D02*
X0056368Y0060510D01*
X0056473Y0060305D02*
X0003692Y0060305D01*
X0003692Y0062274D02*
X0055463Y0062274D01*
X0057599Y0058337D02*
X0003692Y0058337D01*
X0003692Y0056368D02*
X0059111Y0056368D01*
X0058337Y0057376D02*
X0058337Y0040250D01*
X0060305Y0040250D02*
X0060305Y0054813D01*
X0060623Y0054400D02*
X0003692Y0054400D01*
X0003692Y0052431D02*
X0062244Y0052431D01*
X0062274Y0052405D02*
X0062274Y0040250D01*
X0064242Y0040250D02*
X0064242Y0050634D01*
X0064432Y0050463D02*
X0033614Y0050463D01*
X0019217Y0048700D02*
X0019217Y0048700D01*
X0050463Y0048925D02*
X0050463Y0067503D01*
X0051209Y0048494D02*
X0066620Y0048494D01*
X0066211Y0048862D02*
X0066211Y0040250D01*
X0068179Y0040250D02*
X0068179Y0047267D01*
X0034496Y0044290D02*
X0034496Y0044290D01*
X0032491Y0042589D02*
X0047109Y0042589D01*
X0051891Y0042589D02*
X0076853Y0042589D01*
X0076053Y0042895D02*
X0076053Y0040250D01*
X0074085Y0040250D02*
X0074085Y0043651D01*
X0078022Y0042140D02*
X0078022Y0040250D01*
X0079990Y0040250D02*
X0079990Y0041385D01*
X0081959Y0040777D02*
X0081959Y0040250D01*
X0050463Y0039411D02*
X0050463Y0038845D01*
X0047187Y0034715D02*
X0003692Y0034715D01*
X0024872Y0031460D02*
X0024872Y0042299D01*
X0026841Y0042299D02*
X0026841Y0031460D01*
X0028809Y0031460D02*
X0028809Y0042299D01*
X0030778Y0042238D02*
X0030778Y0031521D01*
X0074085Y0031695D02*
X0074085Y0035250D01*
D13*
X0740541Y0036250D02*
X0740560Y0036231D01*
X0746289Y0033514D02*
X0746289Y0031250D01*
M02*
