G75*
%MOIN*%
%OFA0B0*%
%FSLAX25Y25*%
%IPPOS*%
%LPD*%
%AMOC8*
5,1,8,0,0,1.08239X$1,22.5*
%
%ADD10C,0.02362*%
%ADD11C,0.00500*%
%ADD12C,0.02559*%
D10*
X0049500Y0041750D03*
X0049569Y0046557D03*
X0050169Y0052407D03*
X0764785Y0044455D03*
X0768951Y0044238D03*
X0767478Y0039000D03*
D11*
X0003692Y0069347D02*
X0003692Y0004098D01*
X0041848Y0004098D01*
X0043561Y0004194D01*
X0046901Y0004953D01*
X0049990Y0006433D01*
X0052674Y0008560D01*
X0054820Y0011230D01*
X0055657Y0012727D01*
X0055657Y0012727D01*
X0057359Y0016217D01*
X0057359Y0016217D01*
X0061996Y0022446D01*
X0061996Y0022446D01*
X0067705Y0027709D01*
X0067705Y0027709D01*
X0074291Y0031824D01*
X0074291Y0031824D01*
X0081524Y0034649D01*
X0081524Y0034649D01*
X0089155Y0036087D01*
X0740780Y0036087D01*
X0742792Y0035129D01*
X0742792Y0035129D01*
X0742792Y0035129D01*
X0744198Y0033400D01*
X0744198Y0033400D01*
X0744244Y0033211D01*
X0744244Y0033211D01*
X0744356Y0032754D01*
X0744912Y0033311D01*
X0745806Y0033681D01*
X0746773Y0033681D01*
X0747666Y0033311D01*
X0748350Y0032627D01*
X0748720Y0031734D01*
X0748720Y0030766D01*
X0748350Y0029873D01*
X0747666Y0029189D01*
X0746977Y0028904D01*
X0747248Y0028691D01*
X0749020Y0028078D01*
X0749957Y0028000D01*
X0765386Y0028000D01*
X0766271Y0028070D01*
X0767953Y0028616D01*
X0769385Y0029656D01*
X0770425Y0031088D01*
X0770972Y0032771D01*
X0771041Y0033655D01*
X0771041Y0042348D01*
X0770972Y0043233D01*
X0770425Y0044916D01*
X0769385Y0046347D01*
X0767953Y0047388D01*
X0766271Y0047934D01*
X0765386Y0048004D01*
X0750278Y0048004D01*
X0749393Y0047934D01*
X0747710Y0047388D01*
X0746279Y0046348D01*
X0746235Y0046287D01*
X0746816Y0046287D01*
X0747710Y0045917D01*
X0748394Y0045233D01*
X0748764Y0044340D01*
X0748764Y0043373D01*
X0748394Y0042479D01*
X0747710Y0041795D01*
X0747673Y0041780D01*
X0747865Y0041701D01*
X0748549Y0041017D01*
X0748919Y0040123D01*
X0748919Y0039156D01*
X0748549Y0038263D01*
X0747865Y0037579D01*
X0746972Y0037209D01*
X0746005Y0037209D01*
X0745111Y0037579D01*
X0744427Y0038263D01*
X0744057Y0039156D01*
X0744057Y0040123D01*
X0744427Y0041017D01*
X0745111Y0041701D01*
X0745147Y0041716D01*
X0744956Y0041795D01*
X0744272Y0042479D01*
X0744253Y0042524D01*
X0742582Y0040668D01*
X0742582Y0040668D01*
X0740011Y0039524D01*
X0088726Y0039524D01*
X0081215Y0040915D01*
X0081215Y0040915D01*
X0074083Y0043651D01*
X0074083Y0043651D01*
X0067569Y0047641D01*
X0067569Y0047641D01*
X0061890Y0052750D01*
X0061890Y0052750D01*
X0057237Y0058808D01*
X0057237Y0058808D01*
X0055918Y0061392D01*
X0055918Y0061392D01*
X0055501Y0062210D01*
X0054536Y0063818D01*
X0051996Y0066564D01*
X0048806Y0068517D01*
X0045205Y0069532D01*
X0043335Y0069661D01*
X0003692Y0069661D01*
X0003692Y0069347D01*
X0003692Y0069347D01*
X0004450Y0069661D02*
X0004450Y0004098D01*
X0003692Y0004450D02*
X0044689Y0004450D01*
X0044450Y0004396D02*
X0044450Y0069584D01*
X0042850Y0069661D02*
X0042850Y0017967D01*
X0042681Y0018375D02*
X0043051Y0017482D01*
X0043051Y0016514D01*
X0042681Y0015621D01*
X0041997Y0014937D01*
X0041104Y0014567D01*
X0040136Y0014567D01*
X0039243Y0014937D01*
X0038559Y0015621D01*
X0038189Y0016514D01*
X0038189Y0017482D01*
X0038559Y0018375D01*
X0039243Y0019059D01*
X0040136Y0019429D01*
X0041104Y0019429D01*
X0041997Y0019059D01*
X0042681Y0018375D01*
X0042206Y0018850D02*
X0049020Y0018850D01*
X0049250Y0018945D02*
X0049250Y0023701D01*
X0049113Y0023701D02*
X0050080Y0023701D01*
X0050974Y0024071D01*
X0051657Y0024755D01*
X0052028Y0025648D01*
X0052028Y0026615D01*
X0051657Y0027509D01*
X0050974Y0028193D01*
X0050080Y0028563D01*
X0049113Y0028563D01*
X0048219Y0028193D01*
X0047535Y0027509D01*
X0047165Y0026615D01*
X0047165Y0025648D01*
X0047535Y0024755D01*
X0048219Y0024071D01*
X0049113Y0023701D01*
X0047650Y0024640D02*
X0047650Y0017403D01*
X0047587Y0017250D02*
X0043051Y0017250D01*
X0042850Y0016029D02*
X0042850Y0004154D01*
X0041250Y0004098D02*
X0041250Y0014628D01*
X0039650Y0014768D02*
X0039650Y0004098D01*
X0038050Y0004098D02*
X0038050Y0069661D01*
X0039650Y0069661D02*
X0039650Y0019228D01*
X0039034Y0018850D02*
X0003692Y0018850D01*
X0003692Y0020450D02*
X0060510Y0020450D01*
X0060450Y0020370D02*
X0060450Y0054625D01*
X0060891Y0054050D02*
X0003692Y0054050D01*
X0003692Y0052450D02*
X0062223Y0052450D01*
X0062050Y0052606D02*
X0062050Y0022496D01*
X0061996Y0022446D02*
X0061996Y0022446D01*
X0061701Y0022050D02*
X0003692Y0022050D01*
X0003692Y0023650D02*
X0020118Y0023650D01*
X0020071Y0023682D02*
X0020197Y0023597D01*
X0020197Y0023597D01*
X0020221Y0023580D01*
X0020238Y0023555D01*
X0020323Y0023430D01*
X0020434Y0023408D01*
X0020458Y0023327D01*
X0020551Y0023276D01*
X0020618Y0023195D01*
X0020705Y0023186D01*
X0020749Y0023077D01*
X0020891Y0023017D01*
X0020915Y0023007D01*
X0021038Y0022884D01*
X0021159Y0022884D01*
X0021203Y0022800D01*
X0021296Y0022771D01*
X0021370Y0022710D01*
X0021464Y0022719D01*
X0021475Y0022715D01*
X0021546Y0022607D01*
X0021711Y0022574D01*
X0021719Y0022568D01*
X0021719Y0022568D01*
X0021845Y0022483D01*
X0021965Y0022506D01*
X0022005Y0022484D01*
X0022055Y0022422D01*
X0022134Y0022414D01*
X0022206Y0022375D01*
X0022285Y0022398D01*
X0022346Y0022392D01*
X0022439Y0022299D01*
X0022590Y0022299D01*
X0022725Y0022242D01*
X0022839Y0022288D01*
X0023105Y0022205D01*
X0023220Y0022265D01*
X0023654Y0022176D01*
X0023759Y0022245D01*
X0024043Y0022216D01*
X0024145Y0022299D01*
X0029983Y0022299D01*
X0030085Y0022216D01*
X0030369Y0022245D01*
X0030474Y0022176D01*
X0030908Y0022265D01*
X0031023Y0022205D01*
X0031289Y0022288D01*
X0031403Y0022242D01*
X0031538Y0022299D01*
X0031689Y0022299D01*
X0031782Y0022392D01*
X0031843Y0022398D01*
X0031922Y0022375D01*
X0031994Y0022414D01*
X0032073Y0022422D01*
X0032123Y0022484D01*
X0032163Y0022506D01*
X0032283Y0022483D01*
X0032417Y0022574D01*
X0032582Y0022607D01*
X0032653Y0022715D01*
X0032665Y0022719D01*
X0032758Y0022710D01*
X0032832Y0022771D01*
X0032925Y0022800D01*
X0032969Y0022884D01*
X0033090Y0022884D01*
X0033197Y0022991D01*
X0033213Y0023007D01*
X0033237Y0023017D01*
X0033237Y0023018D01*
X0033379Y0023077D01*
X0033423Y0023186D01*
X0033510Y0023195D01*
X0033577Y0023276D01*
X0033670Y0023327D01*
X0033694Y0023408D01*
X0033805Y0023430D01*
X0033907Y0023580D01*
X0034057Y0023682D01*
X0034079Y0023792D01*
X0034160Y0023816D01*
X0034211Y0023910D01*
X0034292Y0023977D01*
X0034300Y0024064D01*
X0034409Y0024108D01*
X0034469Y0024249D01*
X0034469Y0024249D01*
X0034479Y0024273D01*
X0034496Y0024290D01*
X0034603Y0024397D01*
X0034603Y0024518D01*
X0034687Y0024562D01*
X0034716Y0024655D01*
X0034777Y0024729D01*
X0034768Y0024822D01*
X0034772Y0024833D01*
X0034879Y0024904D01*
X0034913Y0025070D01*
X0035004Y0025204D01*
X0034981Y0025323D01*
X0035002Y0025363D01*
X0035065Y0025414D01*
X0035073Y0025493D01*
X0035112Y0025565D01*
X0035089Y0025644D01*
X0035095Y0025704D01*
X0035188Y0025797D01*
X0035188Y0025949D01*
X0035245Y0026084D01*
X0035199Y0026198D01*
X0035234Y0026312D01*
X0035271Y0026357D01*
X0035265Y0026412D01*
X0035282Y0026464D01*
X0035255Y0026516D01*
X0035242Y0026641D01*
X0035311Y0026746D01*
X0035284Y0026879D01*
X0035311Y0027013D01*
X0035242Y0027117D01*
X0035255Y0027243D01*
X0035282Y0027295D01*
X0035265Y0027347D01*
X0035271Y0027401D01*
X0035234Y0027447D01*
X0035199Y0027561D01*
X0035245Y0027675D01*
X0035188Y0027810D01*
X0035188Y0027961D01*
X0035095Y0028055D01*
X0035089Y0028115D01*
X0035112Y0028194D01*
X0035073Y0028266D01*
X0035065Y0028345D01*
X0035002Y0028395D01*
X0034981Y0028435D01*
X0035004Y0028555D01*
X0034913Y0028689D01*
X0034879Y0028854D01*
X0034772Y0028925D01*
X0034768Y0028937D01*
X0034777Y0029030D01*
X0034716Y0029104D01*
X0034687Y0029197D01*
X0034603Y0029241D01*
X0034603Y0029362D01*
X0034479Y0029485D01*
X0034469Y0029509D01*
X0034409Y0029651D01*
X0034300Y0029695D01*
X0034292Y0029782D01*
X0034211Y0029849D01*
X0034160Y0029943D01*
X0034079Y0029967D01*
X0034057Y0030077D01*
X0033907Y0030179D01*
X0033805Y0030329D01*
X0033694Y0030351D01*
X0033670Y0030432D01*
X0033577Y0030483D01*
X0033510Y0030564D01*
X0033423Y0030572D01*
X0033379Y0030681D01*
X0033237Y0030741D01*
X0033237Y0030741D01*
X0033214Y0030751D01*
X0033090Y0030875D01*
X0032969Y0030875D01*
X0032925Y0030959D01*
X0032832Y0030988D01*
X0032758Y0031049D01*
X0032665Y0031040D01*
X0032653Y0031044D01*
X0032582Y0031151D01*
X0032417Y0031185D01*
X0032283Y0031276D01*
X0032163Y0031253D01*
X0032123Y0031274D01*
X0032073Y0031337D01*
X0031994Y0031345D01*
X0031922Y0031384D01*
X0031843Y0031361D01*
X0031782Y0031367D01*
X0031689Y0031460D01*
X0031538Y0031460D01*
X0031403Y0031517D01*
X0031289Y0031471D01*
X0031023Y0031554D01*
X0030908Y0031494D01*
X0030474Y0031583D01*
X0030369Y0031514D01*
X0030085Y0031543D01*
X0029983Y0031460D01*
X0024145Y0031460D01*
X0024043Y0031543D01*
X0023759Y0031514D01*
X0023654Y0031583D01*
X0023220Y0031494D01*
X0023105Y0031554D01*
X0022839Y0031471D01*
X0022725Y0031517D01*
X0022590Y0031460D01*
X0022439Y0031460D01*
X0022346Y0031367D01*
X0022285Y0031361D01*
X0022206Y0031384D01*
X0022134Y0031345D01*
X0022055Y0031337D01*
X0022005Y0031274D01*
X0021965Y0031253D01*
X0021845Y0031276D01*
X0021719Y0031191D01*
X0021711Y0031185D01*
X0021546Y0031151D01*
X0021475Y0031044D01*
X0021464Y0031040D01*
X0021370Y0031049D01*
X0021296Y0030988D01*
X0021203Y0030959D01*
X0021159Y0030875D01*
X0021038Y0030875D01*
X0020914Y0030751D01*
X0020749Y0030682D01*
X0020705Y0030572D01*
X0020618Y0030564D01*
X0020551Y0030483D01*
X0020458Y0030432D01*
X0020434Y0030351D01*
X0020323Y0030329D01*
X0020238Y0030203D01*
X0020221Y0030179D01*
X0020197Y0030162D01*
X0020071Y0030077D01*
X0020050Y0029967D01*
X0019968Y0029943D01*
X0019918Y0029849D01*
X0019836Y0029782D01*
X0019828Y0029695D01*
X0019719Y0029651D01*
X0019649Y0029486D01*
X0019525Y0029362D01*
X0019525Y0029241D01*
X0019441Y0029197D01*
X0019412Y0029104D01*
X0019351Y0029030D01*
X0019360Y0028937D01*
X0019357Y0028925D01*
X0019249Y0028854D01*
X0019217Y0028700D01*
X0019215Y0028689D01*
X0019209Y0028681D01*
X0019209Y0028681D01*
X0019124Y0028555D01*
X0019147Y0028435D01*
X0019126Y0028396D01*
X0019063Y0028345D01*
X0019055Y0028266D01*
X0019016Y0028194D01*
X0019039Y0028115D01*
X0019033Y0028055D01*
X0018940Y0027961D01*
X0018940Y0027810D01*
X0018883Y0027676D01*
X0018930Y0027561D01*
X0018894Y0027447D01*
X0018857Y0027401D01*
X0018863Y0027347D01*
X0018846Y0027295D01*
X0018873Y0027243D01*
X0018886Y0027117D01*
X0018817Y0027013D01*
X0018845Y0026879D01*
X0018817Y0026746D01*
X0018886Y0026641D01*
X0018873Y0026516D01*
X0018846Y0026464D01*
X0018863Y0026412D01*
X0018857Y0026358D01*
X0018894Y0026312D01*
X0018930Y0026198D01*
X0018883Y0026083D01*
X0018940Y0025949D01*
X0018940Y0025797D01*
X0019033Y0025704D01*
X0019039Y0025644D01*
X0019016Y0025565D01*
X0019055Y0025493D01*
X0019063Y0025414D01*
X0019126Y0025363D01*
X0019147Y0025323D01*
X0019124Y0025204D01*
X0019209Y0025078D01*
X0019215Y0025070D01*
X0019217Y0025058D01*
X0019249Y0024904D01*
X0019357Y0024833D01*
X0019360Y0024822D01*
X0019351Y0024729D01*
X0019412Y0024655D01*
X0019441Y0024562D01*
X0019525Y0024518D01*
X0019525Y0024397D01*
X0019649Y0024273D01*
X0019659Y0024249D01*
X0019719Y0024108D01*
X0019828Y0024064D01*
X0019836Y0023977D01*
X0019917Y0023910D01*
X0019968Y0023816D01*
X0020050Y0023792D01*
X0020071Y0023682D01*
X0020238Y0023555D02*
X0020238Y0023555D01*
X0020450Y0023353D02*
X0020450Y0004098D01*
X0022050Y0004098D02*
X0022050Y0022429D01*
X0020891Y0023017D02*
X0020891Y0023017D01*
X0023650Y0022177D02*
X0023650Y0004098D01*
X0025250Y0004098D02*
X0025250Y0022299D01*
X0026850Y0022299D02*
X0026850Y0004098D01*
X0028450Y0004098D02*
X0028450Y0022299D01*
X0030050Y0022244D02*
X0030050Y0004098D01*
X0031650Y0004098D02*
X0031650Y0022299D01*
X0033197Y0022991D02*
X0033197Y0022991D01*
X0033250Y0023023D02*
X0033250Y0004098D01*
X0034850Y0004098D02*
X0034850Y0024885D01*
X0034995Y0025250D02*
X0047330Y0025250D01*
X0051863Y0025250D02*
X0065038Y0025250D01*
X0065250Y0025446D02*
X0065250Y0049727D01*
X0065780Y0049250D02*
X0034603Y0049250D01*
X0034603Y0049241D02*
X0034603Y0049362D01*
X0034479Y0049485D01*
X0034469Y0049509D01*
X0034409Y0049651D01*
X0034300Y0049695D01*
X0034292Y0049782D01*
X0034211Y0049849D01*
X0034160Y0049943D01*
X0034079Y0049967D01*
X0034057Y0050077D01*
X0033907Y0050179D01*
X0033805Y0050329D01*
X0033694Y0050351D01*
X0033670Y0050432D01*
X0033577Y0050483D01*
X0033510Y0050564D01*
X0033423Y0050572D01*
X0033379Y0050681D01*
X0033237Y0050741D01*
X0033237Y0050741D01*
X0033214Y0050751D01*
X0033090Y0050875D01*
X0032969Y0050875D01*
X0032925Y0050959D01*
X0032832Y0050988D01*
X0032758Y0051049D01*
X0032665Y0051040D01*
X0032653Y0051044D01*
X0032582Y0051151D01*
X0032417Y0051185D01*
X0032283Y0051276D01*
X0032163Y0051253D01*
X0032123Y0051274D01*
X0032073Y0051337D01*
X0031994Y0051345D01*
X0031922Y0051384D01*
X0031843Y0051361D01*
X0031782Y0051367D01*
X0031689Y0051460D01*
X0031538Y0051460D01*
X0031403Y0051517D01*
X0031289Y0051471D01*
X0031023Y0051554D01*
X0030908Y0051494D01*
X0030474Y0051583D01*
X0030369Y0051514D01*
X0030085Y0051543D01*
X0029983Y0051460D01*
X0024145Y0051460D01*
X0024043Y0051543D01*
X0023759Y0051514D01*
X0023654Y0051583D01*
X0023220Y0051494D01*
X0023105Y0051554D01*
X0022839Y0051471D01*
X0022725Y0051517D01*
X0022590Y0051460D01*
X0022439Y0051460D01*
X0022346Y0051367D01*
X0022285Y0051361D01*
X0022206Y0051384D01*
X0022134Y0051345D01*
X0022055Y0051337D01*
X0022005Y0051274D01*
X0021965Y0051253D01*
X0021845Y0051276D01*
X0021719Y0051191D01*
X0021711Y0051185D01*
X0021546Y0051151D01*
X0021475Y0051044D01*
X0021464Y0051040D01*
X0021370Y0051049D01*
X0021296Y0050988D01*
X0021203Y0050959D01*
X0021159Y0050875D01*
X0021038Y0050875D01*
X0020914Y0050751D01*
X0020749Y0050682D01*
X0020705Y0050572D01*
X0020618Y0050564D01*
X0020551Y0050483D01*
X0020458Y0050432D01*
X0020434Y0050351D01*
X0020323Y0050329D01*
X0020238Y0050203D01*
X0020221Y0050179D01*
X0020197Y0050162D01*
X0020071Y0050077D01*
X0020050Y0049967D01*
X0019968Y0049943D01*
X0019918Y0049849D01*
X0019836Y0049782D01*
X0019828Y0049695D01*
X0019719Y0049651D01*
X0019649Y0049486D01*
X0019525Y0049362D01*
X0019525Y0049241D01*
X0019441Y0049197D01*
X0019412Y0049104D01*
X0019351Y0049030D01*
X0019360Y0048937D01*
X0019357Y0048925D01*
X0019249Y0048854D01*
X0019217Y0048700D01*
X0019215Y0048689D01*
X0019209Y0048681D01*
X0019209Y0048681D01*
X0019124Y0048555D01*
X0019147Y0048435D01*
X0019126Y0048396D01*
X0019063Y0048345D01*
X0019055Y0048266D01*
X0019016Y0048194D01*
X0019039Y0048115D01*
X0019033Y0048055D01*
X0018940Y0047961D01*
X0018940Y0047810D01*
X0018883Y0047676D01*
X0018930Y0047561D01*
X0018894Y0047447D01*
X0018857Y0047401D01*
X0018863Y0047347D01*
X0018846Y0047295D01*
X0018873Y0047243D01*
X0018886Y0047117D01*
X0018817Y0047013D01*
X0018845Y0046879D01*
X0018817Y0046746D01*
X0018886Y0046641D01*
X0018873Y0046516D01*
X0018846Y0046464D01*
X0018863Y0046412D01*
X0018857Y0046358D01*
X0018894Y0046312D01*
X0018930Y0046198D01*
X0018883Y0046083D01*
X0018940Y0045949D01*
X0018940Y0045797D01*
X0019033Y0045704D01*
X0019039Y0045644D01*
X0019016Y0045565D01*
X0019055Y0045493D01*
X0019063Y0045414D01*
X0019126Y0045363D01*
X0019147Y0045323D01*
X0019124Y0045204D01*
X0019209Y0045078D01*
X0019215Y0045070D01*
X0019217Y0045058D01*
X0019249Y0044904D01*
X0019357Y0044833D01*
X0019360Y0044822D01*
X0019351Y0044729D01*
X0019412Y0044655D01*
X0019441Y0044562D01*
X0019525Y0044518D01*
X0019525Y0044397D01*
X0019649Y0044273D01*
X0019659Y0044249D01*
X0019719Y0044108D01*
X0019828Y0044064D01*
X0019836Y0043977D01*
X0019917Y0043910D01*
X0019968Y0043816D01*
X0020050Y0043792D01*
X0020071Y0043682D01*
X0020197Y0043597D01*
X0020197Y0043597D01*
X0020221Y0043580D01*
X0020238Y0043555D01*
X0020323Y0043430D01*
X0020434Y0043408D01*
X0020458Y0043327D01*
X0020551Y0043276D01*
X0020618Y0043195D01*
X0020705Y0043186D01*
X0020749Y0043077D01*
X0020891Y0043017D01*
X0020915Y0043007D01*
X0021038Y0042884D01*
X0021159Y0042884D01*
X0021203Y0042800D01*
X0021296Y0042771D01*
X0021370Y0042710D01*
X0021464Y0042719D01*
X0021475Y0042715D01*
X0021546Y0042607D01*
X0021711Y0042574D01*
X0021719Y0042568D01*
X0021719Y0042568D01*
X0021845Y0042483D01*
X0021965Y0042506D01*
X0022005Y0042484D01*
X0022055Y0042422D01*
X0022134Y0042414D01*
X0022206Y0042375D01*
X0022285Y0042398D01*
X0022346Y0042392D01*
X0022439Y0042299D01*
X0022590Y0042299D01*
X0022725Y0042242D01*
X0022839Y0042288D01*
X0023105Y0042205D01*
X0023220Y0042265D01*
X0023654Y0042176D01*
X0023759Y0042245D01*
X0024043Y0042216D01*
X0024145Y0042299D01*
X0029983Y0042299D01*
X0030085Y0042216D01*
X0030369Y0042245D01*
X0030474Y0042176D01*
X0030908Y0042265D01*
X0031023Y0042205D01*
X0031289Y0042288D01*
X0031403Y0042242D01*
X0031538Y0042299D01*
X0031689Y0042299D01*
X0031782Y0042392D01*
X0031843Y0042398D01*
X0031922Y0042375D01*
X0031994Y0042414D01*
X0032073Y0042422D01*
X0032123Y0042484D01*
X0032163Y0042506D01*
X0032283Y0042483D01*
X0032417Y0042574D01*
X0032582Y0042607D01*
X0032653Y0042715D01*
X0032665Y0042719D01*
X0032758Y0042710D01*
X0032832Y0042771D01*
X0032925Y0042800D01*
X0032969Y0042884D01*
X0033090Y0042884D01*
X0033197Y0042991D01*
X0033213Y0043007D01*
X0033237Y0043017D01*
X0033237Y0043018D01*
X0033379Y0043077D01*
X0033423Y0043186D01*
X0033510Y0043195D01*
X0033577Y0043276D01*
X0033670Y0043327D01*
X0033694Y0043408D01*
X0033805Y0043430D01*
X0033907Y0043580D01*
X0034057Y0043682D01*
X0034079Y0043792D01*
X0034160Y0043816D01*
X0034211Y0043910D01*
X0034292Y0043977D01*
X0034300Y0044064D01*
X0034409Y0044108D01*
X0034469Y0044249D01*
X0034469Y0044249D01*
X0034479Y0044273D01*
X0034496Y0044290D01*
X0034603Y0044397D01*
X0034603Y0044518D01*
X0034687Y0044562D01*
X0034716Y0044655D01*
X0034777Y0044729D01*
X0034768Y0044822D01*
X0034772Y0044833D01*
X0034879Y0044904D01*
X0034913Y0045070D01*
X0035004Y0045204D01*
X0034981Y0045323D01*
X0035002Y0045363D01*
X0035065Y0045414D01*
X0035073Y0045493D01*
X0035112Y0045565D01*
X0035089Y0045644D01*
X0035095Y0045704D01*
X0035188Y0045797D01*
X0035188Y0045949D01*
X0035245Y0046084D01*
X0035199Y0046198D01*
X0035234Y0046312D01*
X0035271Y0046357D01*
X0035265Y0046412D01*
X0035282Y0046464D01*
X0035255Y0046516D01*
X0035242Y0046641D01*
X0035311Y0046746D01*
X0035284Y0046879D01*
X0035311Y0047013D01*
X0035242Y0047117D01*
X0035255Y0047243D01*
X0035282Y0047295D01*
X0035265Y0047347D01*
X0035271Y0047401D01*
X0035234Y0047447D01*
X0035199Y0047561D01*
X0035245Y0047675D01*
X0035188Y0047810D01*
X0035188Y0047961D01*
X0035095Y0048055D01*
X0035089Y0048115D01*
X0035112Y0048194D01*
X0035073Y0048266D01*
X0035065Y0048345D01*
X0035002Y0048395D01*
X0034981Y0048435D01*
X0035004Y0048555D01*
X0034913Y0048689D01*
X0034879Y0048854D01*
X0034772Y0048925D01*
X0034768Y0048937D01*
X0034777Y0049030D01*
X0034716Y0049104D01*
X0034687Y0049197D01*
X0034603Y0049241D01*
X0034469Y0049509D02*
X0034469Y0049509D01*
X0034850Y0048874D02*
X0034850Y0069661D01*
X0036450Y0069661D02*
X0036450Y0004098D01*
X0046050Y0004759D02*
X0046050Y0069294D01*
X0047650Y0068843D02*
X0047650Y0047937D01*
X0047363Y0047650D02*
X0035235Y0047650D01*
X0047236Y0047523D02*
X0048603Y0048890D01*
X0050535Y0048890D01*
X0051902Y0047523D01*
X0051902Y0045591D01*
X0050535Y0044224D01*
X0048603Y0044224D01*
X0047236Y0045591D01*
X0047236Y0047523D01*
X0049250Y0048890D02*
X0049250Y0068245D01*
X0048916Y0068450D02*
X0003692Y0068450D01*
X0003692Y0066850D02*
X0051528Y0066850D01*
X0050850Y0067265D02*
X0050850Y0048575D01*
X0051775Y0047650D02*
X0067558Y0047650D01*
X0066850Y0048287D02*
X0066850Y0026920D01*
X0066774Y0026850D02*
X0051930Y0026850D01*
X0047650Y0027624D02*
X0047650Y0034530D01*
X0047948Y0034232D02*
X0048841Y0033862D01*
X0049808Y0033862D01*
X0050702Y0034232D01*
X0051386Y0034916D01*
X0051756Y0035810D01*
X0051756Y0036777D01*
X0051386Y0037670D01*
X0050702Y0038354D01*
X0049808Y0038724D01*
X0048841Y0038724D01*
X0047948Y0038354D01*
X0047264Y0037670D01*
X0046894Y0036777D01*
X0046894Y0035810D01*
X0047264Y0034916D01*
X0047948Y0034232D01*
X0047330Y0034850D02*
X0003692Y0034850D01*
X0003692Y0033250D02*
X0077941Y0033250D01*
X0078050Y0033292D02*
X0078050Y0042129D01*
X0079650Y0041515D02*
X0079650Y0033917D01*
X0081250Y0034542D02*
X0081250Y0040909D01*
X0080342Y0041250D02*
X0051833Y0041250D01*
X0051833Y0040784D02*
X0050466Y0039417D01*
X0048534Y0039417D01*
X0047167Y0040784D01*
X0047167Y0042716D01*
X0048534Y0044083D01*
X0050466Y0044083D01*
X0051833Y0042716D01*
X0051833Y0040784D01*
X0047650Y0040301D02*
X0047650Y0038057D01*
X0047643Y0038050D02*
X0003692Y0038050D01*
X0003692Y0036450D02*
X0046894Y0036450D01*
X0051756Y0036450D02*
X0771041Y0036450D01*
X0769811Y0038034D02*
X0768445Y0036667D01*
X0766512Y0036667D01*
X0765146Y0038034D01*
X0765146Y0039966D01*
X0766512Y0041333D01*
X0768445Y0041333D01*
X0769811Y0039966D01*
X0769811Y0038034D01*
X0769811Y0038050D02*
X0771041Y0038050D01*
X0769250Y0037473D02*
X0769250Y0029558D01*
X0769671Y0030050D02*
X0748424Y0030050D01*
X0748450Y0030113D02*
X0748450Y0028275D01*
X0747945Y0028450D02*
X0767441Y0028450D01*
X0767650Y0028518D02*
X0767650Y0036667D01*
X0766050Y0037129D02*
X0766050Y0028052D01*
X0764450Y0028000D02*
X0764450Y0042122D01*
X0763819Y0042122D02*
X0765752Y0042122D01*
X0767118Y0043488D01*
X0767118Y0045421D01*
X0765752Y0046787D01*
X0763819Y0046787D01*
X0762453Y0045421D01*
X0762453Y0043488D01*
X0763819Y0042122D01*
X0763091Y0042850D02*
X0748547Y0042850D01*
X0748450Y0042615D02*
X0748450Y0041116D01*
X0748316Y0041250D02*
X0766429Y0041250D01*
X0766050Y0040871D02*
X0766050Y0042420D01*
X0766480Y0042850D02*
X0771002Y0042850D01*
X0770850Y0043608D02*
X0770850Y0032396D01*
X0770608Y0031650D02*
X0748720Y0031650D01*
X0748450Y0032387D02*
X0748450Y0038163D01*
X0748337Y0038050D02*
X0765146Y0038050D01*
X0765146Y0039650D02*
X0748919Y0039650D01*
X0744057Y0039650D02*
X0740295Y0039650D01*
X0740450Y0039719D02*
X0740450Y0036087D01*
X0738850Y0036087D02*
X0738850Y0039524D01*
X0737250Y0039524D02*
X0737250Y0036087D01*
X0735650Y0036087D02*
X0735650Y0039524D01*
X0734050Y0039524D02*
X0734050Y0036087D01*
X0732450Y0036087D02*
X0732450Y0039524D01*
X0730850Y0039524D02*
X0730850Y0036087D01*
X0729250Y0036087D02*
X0729250Y0039524D01*
X0727650Y0039524D02*
X0727650Y0036087D01*
X0726050Y0036087D02*
X0726050Y0039524D01*
X0724450Y0039524D02*
X0724450Y0036087D01*
X0722850Y0036087D02*
X0722850Y0039524D01*
X0721250Y0039524D02*
X0721250Y0036087D01*
X0719650Y0036087D02*
X0719650Y0039524D01*
X0718050Y0039524D02*
X0718050Y0036087D01*
X0716450Y0036087D02*
X0716450Y0039524D01*
X0714850Y0039524D02*
X0714850Y0036087D01*
X0713250Y0036087D02*
X0713250Y0039524D01*
X0711650Y0039524D02*
X0711650Y0036087D01*
X0710050Y0036087D02*
X0710050Y0039524D01*
X0708450Y0039524D02*
X0708450Y0036087D01*
X0706850Y0036087D02*
X0706850Y0039524D01*
X0705250Y0039524D02*
X0705250Y0036087D01*
X0703650Y0036087D02*
X0703650Y0039524D01*
X0702050Y0039524D02*
X0702050Y0036087D01*
X0700450Y0036087D02*
X0700450Y0039524D01*
X0698850Y0039524D02*
X0698850Y0036087D01*
X0697250Y0036087D02*
X0697250Y0039524D01*
X0695650Y0039524D02*
X0695650Y0036087D01*
X0694050Y0036087D02*
X0694050Y0039524D01*
X0692450Y0039524D02*
X0692450Y0036087D01*
X0690850Y0036087D02*
X0690850Y0039524D01*
X0689250Y0039524D02*
X0689250Y0036087D01*
X0687650Y0036087D02*
X0687650Y0039524D01*
X0686050Y0039524D02*
X0686050Y0036087D01*
X0684450Y0036087D02*
X0684450Y0039524D01*
X0682850Y0039524D02*
X0682850Y0036087D01*
X0681250Y0036087D02*
X0681250Y0039524D01*
X0679650Y0039524D02*
X0679650Y0036087D01*
X0678050Y0036087D02*
X0678050Y0039524D01*
X0676450Y0039524D02*
X0676450Y0036087D01*
X0674850Y0036087D02*
X0674850Y0039524D01*
X0673250Y0039524D02*
X0673250Y0036087D01*
X0671650Y0036087D02*
X0671650Y0039524D01*
X0670050Y0039524D02*
X0670050Y0036087D01*
X0668450Y0036087D02*
X0668450Y0039524D01*
X0666850Y0039524D02*
X0666850Y0036087D01*
X0665250Y0036087D02*
X0665250Y0039524D01*
X0663650Y0039524D02*
X0663650Y0036087D01*
X0662050Y0036087D02*
X0662050Y0039524D01*
X0660450Y0039524D02*
X0660450Y0036087D01*
X0658850Y0036087D02*
X0658850Y0039524D01*
X0657250Y0039524D02*
X0657250Y0036087D01*
X0655650Y0036087D02*
X0655650Y0039524D01*
X0654050Y0039524D02*
X0654050Y0036087D01*
X0652450Y0036087D02*
X0652450Y0039524D01*
X0650850Y0039524D02*
X0650850Y0036087D01*
X0649250Y0036087D02*
X0649250Y0039524D01*
X0647650Y0039524D02*
X0647650Y0036087D01*
X0646050Y0036087D02*
X0646050Y0039524D01*
X0644450Y0039524D02*
X0644450Y0036087D01*
X0642850Y0036087D02*
X0642850Y0039524D01*
X0641250Y0039524D02*
X0641250Y0036087D01*
X0639650Y0036087D02*
X0639650Y0039524D01*
X0638050Y0039524D02*
X0638050Y0036087D01*
X0636450Y0036087D02*
X0636450Y0039524D01*
X0634850Y0039524D02*
X0634850Y0036087D01*
X0633250Y0036087D02*
X0633250Y0039524D01*
X0631650Y0039524D02*
X0631650Y0036087D01*
X0630050Y0036087D02*
X0630050Y0039524D01*
X0628450Y0039524D02*
X0628450Y0036087D01*
X0626850Y0036087D02*
X0626850Y0039524D01*
X0625250Y0039524D02*
X0625250Y0036087D01*
X0623650Y0036087D02*
X0623650Y0039524D01*
X0622050Y0039524D02*
X0622050Y0036087D01*
X0620450Y0036087D02*
X0620450Y0039524D01*
X0618850Y0039524D02*
X0618850Y0036087D01*
X0617250Y0036087D02*
X0617250Y0039524D01*
X0615650Y0039524D02*
X0615650Y0036087D01*
X0614050Y0036087D02*
X0614050Y0039524D01*
X0612450Y0039524D02*
X0612450Y0036087D01*
X0610850Y0036087D02*
X0610850Y0039524D01*
X0609250Y0039524D02*
X0609250Y0036087D01*
X0607650Y0036087D02*
X0607650Y0039524D01*
X0606050Y0039524D02*
X0606050Y0036087D01*
X0604450Y0036087D02*
X0604450Y0039524D01*
X0602850Y0039524D02*
X0602850Y0036087D01*
X0601250Y0036087D02*
X0601250Y0039524D01*
X0599650Y0039524D02*
X0599650Y0036087D01*
X0598050Y0036087D02*
X0598050Y0039524D01*
X0596450Y0039524D02*
X0596450Y0036087D01*
X0594850Y0036087D02*
X0594850Y0039524D01*
X0593250Y0039524D02*
X0593250Y0036087D01*
X0591650Y0036087D02*
X0591650Y0039524D01*
X0590050Y0039524D02*
X0590050Y0036087D01*
X0588450Y0036087D02*
X0588450Y0039524D01*
X0586850Y0039524D02*
X0586850Y0036087D01*
X0585250Y0036087D02*
X0585250Y0039524D01*
X0583650Y0039524D02*
X0583650Y0036087D01*
X0582050Y0036087D02*
X0582050Y0039524D01*
X0580450Y0039524D02*
X0580450Y0036087D01*
X0578850Y0036087D02*
X0578850Y0039524D01*
X0577250Y0039524D02*
X0577250Y0036087D01*
X0575650Y0036087D02*
X0575650Y0039524D01*
X0574050Y0039524D02*
X0574050Y0036087D01*
X0572450Y0036087D02*
X0572450Y0039524D01*
X0570850Y0039524D02*
X0570850Y0036087D01*
X0569250Y0036087D02*
X0569250Y0039524D01*
X0567650Y0039524D02*
X0567650Y0036087D01*
X0566050Y0036087D02*
X0566050Y0039524D01*
X0564450Y0039524D02*
X0564450Y0036087D01*
X0562850Y0036087D02*
X0562850Y0039524D01*
X0561250Y0039524D02*
X0561250Y0036087D01*
X0559650Y0036087D02*
X0559650Y0039524D01*
X0558050Y0039524D02*
X0558050Y0036087D01*
X0556450Y0036087D02*
X0556450Y0039524D01*
X0554850Y0039524D02*
X0554850Y0036087D01*
X0553250Y0036087D02*
X0553250Y0039524D01*
X0551650Y0039524D02*
X0551650Y0036087D01*
X0550050Y0036087D02*
X0550050Y0039524D01*
X0548450Y0039524D02*
X0548450Y0036087D01*
X0546850Y0036087D02*
X0546850Y0039524D01*
X0545250Y0039524D02*
X0545250Y0036087D01*
X0543650Y0036087D02*
X0543650Y0039524D01*
X0542050Y0039524D02*
X0542050Y0036087D01*
X0540450Y0036087D02*
X0540450Y0039524D01*
X0538850Y0039524D02*
X0538850Y0036087D01*
X0537250Y0036087D02*
X0537250Y0039524D01*
X0535650Y0039524D02*
X0535650Y0036087D01*
X0534050Y0036087D02*
X0534050Y0039524D01*
X0532450Y0039524D02*
X0532450Y0036087D01*
X0530850Y0036087D02*
X0530850Y0039524D01*
X0529250Y0039524D02*
X0529250Y0036087D01*
X0527650Y0036087D02*
X0527650Y0039524D01*
X0526050Y0039524D02*
X0526050Y0036087D01*
X0524450Y0036087D02*
X0524450Y0039524D01*
X0522850Y0039524D02*
X0522850Y0036087D01*
X0521250Y0036087D02*
X0521250Y0039524D01*
X0519650Y0039524D02*
X0519650Y0036087D01*
X0518050Y0036087D02*
X0518050Y0039524D01*
X0516450Y0039524D02*
X0516450Y0036087D01*
X0514850Y0036087D02*
X0514850Y0039524D01*
X0513250Y0039524D02*
X0513250Y0036087D01*
X0511650Y0036087D02*
X0511650Y0039524D01*
X0510050Y0039524D02*
X0510050Y0036087D01*
X0508450Y0036087D02*
X0508450Y0039524D01*
X0506850Y0039524D02*
X0506850Y0036087D01*
X0505250Y0036087D02*
X0505250Y0039524D01*
X0503650Y0039524D02*
X0503650Y0036087D01*
X0502050Y0036087D02*
X0502050Y0039524D01*
X0500450Y0039524D02*
X0500450Y0036087D01*
X0498850Y0036087D02*
X0498850Y0039524D01*
X0497250Y0039524D02*
X0497250Y0036087D01*
X0495650Y0036087D02*
X0495650Y0039524D01*
X0494050Y0039524D02*
X0494050Y0036087D01*
X0492450Y0036087D02*
X0492450Y0039524D01*
X0490850Y0039524D02*
X0490850Y0036087D01*
X0489250Y0036087D02*
X0489250Y0039524D01*
X0487650Y0039524D02*
X0487650Y0036087D01*
X0486050Y0036087D02*
X0486050Y0039524D01*
X0484450Y0039524D02*
X0484450Y0036087D01*
X0482850Y0036087D02*
X0482850Y0039524D01*
X0481250Y0039524D02*
X0481250Y0036087D01*
X0479650Y0036087D02*
X0479650Y0039524D01*
X0478050Y0039524D02*
X0478050Y0036087D01*
X0476450Y0036087D02*
X0476450Y0039524D01*
X0474850Y0039524D02*
X0474850Y0036087D01*
X0473250Y0036087D02*
X0473250Y0039524D01*
X0471650Y0039524D02*
X0471650Y0036087D01*
X0470050Y0036087D02*
X0470050Y0039524D01*
X0468450Y0039524D02*
X0468450Y0036087D01*
X0466850Y0036087D02*
X0466850Y0039524D01*
X0465250Y0039524D02*
X0465250Y0036087D01*
X0463650Y0036087D02*
X0463650Y0039524D01*
X0462050Y0039524D02*
X0462050Y0036087D01*
X0460450Y0036087D02*
X0460450Y0039524D01*
X0458850Y0039524D02*
X0458850Y0036087D01*
X0457250Y0036087D02*
X0457250Y0039524D01*
X0455650Y0039524D02*
X0455650Y0036087D01*
X0454050Y0036087D02*
X0454050Y0039524D01*
X0452450Y0039524D02*
X0452450Y0036087D01*
X0450850Y0036087D02*
X0450850Y0039524D01*
X0449250Y0039524D02*
X0449250Y0036087D01*
X0447650Y0036087D02*
X0447650Y0039524D01*
X0446050Y0039524D02*
X0446050Y0036087D01*
X0444450Y0036087D02*
X0444450Y0039524D01*
X0442850Y0039524D02*
X0442850Y0036087D01*
X0441250Y0036087D02*
X0441250Y0039524D01*
X0439650Y0039524D02*
X0439650Y0036087D01*
X0438050Y0036087D02*
X0438050Y0039524D01*
X0436450Y0039524D02*
X0436450Y0036087D01*
X0434850Y0036087D02*
X0434850Y0039524D01*
X0433250Y0039524D02*
X0433250Y0036087D01*
X0431650Y0036087D02*
X0431650Y0039524D01*
X0430050Y0039524D02*
X0430050Y0036087D01*
X0428450Y0036087D02*
X0428450Y0039524D01*
X0426850Y0039524D02*
X0426850Y0036087D01*
X0425250Y0036087D02*
X0425250Y0039524D01*
X0423650Y0039524D02*
X0423650Y0036087D01*
X0422050Y0036087D02*
X0422050Y0039524D01*
X0420450Y0039524D02*
X0420450Y0036087D01*
X0418850Y0036087D02*
X0418850Y0039524D01*
X0417250Y0039524D02*
X0417250Y0036087D01*
X0415650Y0036087D02*
X0415650Y0039524D01*
X0414050Y0039524D02*
X0414050Y0036087D01*
X0412450Y0036087D02*
X0412450Y0039524D01*
X0410850Y0039524D02*
X0410850Y0036087D01*
X0409250Y0036087D02*
X0409250Y0039524D01*
X0407650Y0039524D02*
X0407650Y0036087D01*
X0406050Y0036087D02*
X0406050Y0039524D01*
X0404450Y0039524D02*
X0404450Y0036087D01*
X0402850Y0036087D02*
X0402850Y0039524D01*
X0401250Y0039524D02*
X0401250Y0036087D01*
X0399650Y0036087D02*
X0399650Y0039524D01*
X0398050Y0039524D02*
X0398050Y0036087D01*
X0396450Y0036087D02*
X0396450Y0039524D01*
X0394850Y0039524D02*
X0394850Y0036087D01*
X0393250Y0036087D02*
X0393250Y0039524D01*
X0391650Y0039524D02*
X0391650Y0036087D01*
X0390050Y0036087D02*
X0390050Y0039524D01*
X0388450Y0039524D02*
X0388450Y0036087D01*
X0386850Y0036087D02*
X0386850Y0039524D01*
X0385250Y0039524D02*
X0385250Y0036087D01*
X0383650Y0036087D02*
X0383650Y0039524D01*
X0382050Y0039524D02*
X0382050Y0036087D01*
X0380450Y0036087D02*
X0380450Y0039524D01*
X0378850Y0039524D02*
X0378850Y0036087D01*
X0377250Y0036087D02*
X0377250Y0039524D01*
X0375650Y0039524D02*
X0375650Y0036087D01*
X0374050Y0036087D02*
X0374050Y0039524D01*
X0372450Y0039524D02*
X0372450Y0036087D01*
X0370850Y0036087D02*
X0370850Y0039524D01*
X0369250Y0039524D02*
X0369250Y0036087D01*
X0367650Y0036087D02*
X0367650Y0039524D01*
X0366050Y0039524D02*
X0366050Y0036087D01*
X0364450Y0036087D02*
X0364450Y0039524D01*
X0362850Y0039524D02*
X0362850Y0036087D01*
X0361250Y0036087D02*
X0361250Y0039524D01*
X0359650Y0039524D02*
X0359650Y0036087D01*
X0358050Y0036087D02*
X0358050Y0039524D01*
X0356450Y0039524D02*
X0356450Y0036087D01*
X0354850Y0036087D02*
X0354850Y0039524D01*
X0353250Y0039524D02*
X0353250Y0036087D01*
X0351650Y0036087D02*
X0351650Y0039524D01*
X0350050Y0039524D02*
X0350050Y0036087D01*
X0348450Y0036087D02*
X0348450Y0039524D01*
X0346850Y0039524D02*
X0346850Y0036087D01*
X0345250Y0036087D02*
X0345250Y0039524D01*
X0343650Y0039524D02*
X0343650Y0036087D01*
X0342050Y0036087D02*
X0342050Y0039524D01*
X0340450Y0039524D02*
X0340450Y0036087D01*
X0338850Y0036087D02*
X0338850Y0039524D01*
X0337250Y0039524D02*
X0337250Y0036087D01*
X0335650Y0036087D02*
X0335650Y0039524D01*
X0334050Y0039524D02*
X0334050Y0036087D01*
X0332450Y0036087D02*
X0332450Y0039524D01*
X0330850Y0039524D02*
X0330850Y0036087D01*
X0329250Y0036087D02*
X0329250Y0039524D01*
X0327650Y0039524D02*
X0327650Y0036087D01*
X0326050Y0036087D02*
X0326050Y0039524D01*
X0324450Y0039524D02*
X0324450Y0036087D01*
X0322850Y0036087D02*
X0322850Y0039524D01*
X0321250Y0039524D02*
X0321250Y0036087D01*
X0319650Y0036087D02*
X0319650Y0039524D01*
X0318050Y0039524D02*
X0318050Y0036087D01*
X0316450Y0036087D02*
X0316450Y0039524D01*
X0314850Y0039524D02*
X0314850Y0036087D01*
X0313250Y0036087D02*
X0313250Y0039524D01*
X0311650Y0039524D02*
X0311650Y0036087D01*
X0310050Y0036087D02*
X0310050Y0039524D01*
X0308450Y0039524D02*
X0308450Y0036087D01*
X0306850Y0036087D02*
X0306850Y0039524D01*
X0305250Y0039524D02*
X0305250Y0036087D01*
X0303650Y0036087D02*
X0303650Y0039524D01*
X0302050Y0039524D02*
X0302050Y0036087D01*
X0300450Y0036087D02*
X0300450Y0039524D01*
X0298850Y0039524D02*
X0298850Y0036087D01*
X0297250Y0036087D02*
X0297250Y0039524D01*
X0295650Y0039524D02*
X0295650Y0036087D01*
X0294050Y0036087D02*
X0294050Y0039524D01*
X0292450Y0039524D02*
X0292450Y0036087D01*
X0290850Y0036087D02*
X0290850Y0039524D01*
X0289250Y0039524D02*
X0289250Y0036087D01*
X0287650Y0036087D02*
X0287650Y0039524D01*
X0286050Y0039524D02*
X0286050Y0036087D01*
X0284450Y0036087D02*
X0284450Y0039524D01*
X0282850Y0039524D02*
X0282850Y0036087D01*
X0281250Y0036087D02*
X0281250Y0039524D01*
X0279650Y0039524D02*
X0279650Y0036087D01*
X0278050Y0036087D02*
X0278050Y0039524D01*
X0276450Y0039524D02*
X0276450Y0036087D01*
X0274850Y0036087D02*
X0274850Y0039524D01*
X0273250Y0039524D02*
X0273250Y0036087D01*
X0271650Y0036087D02*
X0271650Y0039524D01*
X0270050Y0039524D02*
X0270050Y0036087D01*
X0268450Y0036087D02*
X0268450Y0039524D01*
X0266850Y0039524D02*
X0266850Y0036087D01*
X0265250Y0036087D02*
X0265250Y0039524D01*
X0263650Y0039524D02*
X0263650Y0036087D01*
X0262050Y0036087D02*
X0262050Y0039524D01*
X0260450Y0039524D02*
X0260450Y0036087D01*
X0258850Y0036087D02*
X0258850Y0039524D01*
X0257250Y0039524D02*
X0257250Y0036087D01*
X0255650Y0036087D02*
X0255650Y0039524D01*
X0254050Y0039524D02*
X0254050Y0036087D01*
X0252450Y0036087D02*
X0252450Y0039524D01*
X0250850Y0039524D02*
X0250850Y0036087D01*
X0249250Y0036087D02*
X0249250Y0039524D01*
X0247650Y0039524D02*
X0247650Y0036087D01*
X0246050Y0036087D02*
X0246050Y0039524D01*
X0244450Y0039524D02*
X0244450Y0036087D01*
X0242850Y0036087D02*
X0242850Y0039524D01*
X0241250Y0039524D02*
X0241250Y0036087D01*
X0239650Y0036087D02*
X0239650Y0039524D01*
X0238050Y0039524D02*
X0238050Y0036087D01*
X0236450Y0036087D02*
X0236450Y0039524D01*
X0234850Y0039524D02*
X0234850Y0036087D01*
X0233250Y0036087D02*
X0233250Y0039524D01*
X0231650Y0039524D02*
X0231650Y0036087D01*
X0230050Y0036087D02*
X0230050Y0039524D01*
X0228450Y0039524D02*
X0228450Y0036087D01*
X0226850Y0036087D02*
X0226850Y0039524D01*
X0225250Y0039524D02*
X0225250Y0036087D01*
X0223650Y0036087D02*
X0223650Y0039524D01*
X0222050Y0039524D02*
X0222050Y0036087D01*
X0220450Y0036087D02*
X0220450Y0039524D01*
X0218850Y0039524D02*
X0218850Y0036087D01*
X0217250Y0036087D02*
X0217250Y0039524D01*
X0215650Y0039524D02*
X0215650Y0036087D01*
X0214050Y0036087D02*
X0214050Y0039524D01*
X0212450Y0039524D02*
X0212450Y0036087D01*
X0210850Y0036087D02*
X0210850Y0039524D01*
X0209250Y0039524D02*
X0209250Y0036087D01*
X0207650Y0036087D02*
X0207650Y0039524D01*
X0206050Y0039524D02*
X0206050Y0036087D01*
X0204450Y0036087D02*
X0204450Y0039524D01*
X0202850Y0039524D02*
X0202850Y0036087D01*
X0201250Y0036087D02*
X0201250Y0039524D01*
X0199650Y0039524D02*
X0199650Y0036087D01*
X0198050Y0036087D02*
X0198050Y0039524D01*
X0196450Y0039524D02*
X0196450Y0036087D01*
X0194850Y0036087D02*
X0194850Y0039524D01*
X0193250Y0039524D02*
X0193250Y0036087D01*
X0191650Y0036087D02*
X0191650Y0039524D01*
X0190050Y0039524D02*
X0190050Y0036087D01*
X0188450Y0036087D02*
X0188450Y0039524D01*
X0186850Y0039524D02*
X0186850Y0036087D01*
X0185250Y0036087D02*
X0185250Y0039524D01*
X0183650Y0039524D02*
X0183650Y0036087D01*
X0182050Y0036087D02*
X0182050Y0039524D01*
X0180450Y0039524D02*
X0180450Y0036087D01*
X0178850Y0036087D02*
X0178850Y0039524D01*
X0177250Y0039524D02*
X0177250Y0036087D01*
X0175650Y0036087D02*
X0175650Y0039524D01*
X0174050Y0039524D02*
X0174050Y0036087D01*
X0172450Y0036087D02*
X0172450Y0039524D01*
X0170850Y0039524D02*
X0170850Y0036087D01*
X0169250Y0036087D02*
X0169250Y0039524D01*
X0167650Y0039524D02*
X0167650Y0036087D01*
X0166050Y0036087D02*
X0166050Y0039524D01*
X0164450Y0039524D02*
X0164450Y0036087D01*
X0162850Y0036087D02*
X0162850Y0039524D01*
X0161250Y0039524D02*
X0161250Y0036087D01*
X0159650Y0036087D02*
X0159650Y0039524D01*
X0158050Y0039524D02*
X0158050Y0036087D01*
X0156450Y0036087D02*
X0156450Y0039524D01*
X0154850Y0039524D02*
X0154850Y0036087D01*
X0153250Y0036087D02*
X0153250Y0039524D01*
X0151650Y0039524D02*
X0151650Y0036087D01*
X0150050Y0036087D02*
X0150050Y0039524D01*
X0148450Y0039524D02*
X0148450Y0036087D01*
X0146850Y0036087D02*
X0146850Y0039524D01*
X0145250Y0039524D02*
X0145250Y0036087D01*
X0143650Y0036087D02*
X0143650Y0039524D01*
X0142050Y0039524D02*
X0142050Y0036087D01*
X0140450Y0036087D02*
X0140450Y0039524D01*
X0138850Y0039524D02*
X0138850Y0036087D01*
X0137250Y0036087D02*
X0137250Y0039524D01*
X0135650Y0039524D02*
X0135650Y0036087D01*
X0134050Y0036087D02*
X0134050Y0039524D01*
X0132450Y0039524D02*
X0132450Y0036087D01*
X0130850Y0036087D02*
X0130850Y0039524D01*
X0129250Y0039524D02*
X0129250Y0036087D01*
X0127650Y0036087D02*
X0127650Y0039524D01*
X0126050Y0039524D02*
X0126050Y0036087D01*
X0124450Y0036087D02*
X0124450Y0039524D01*
X0122850Y0039524D02*
X0122850Y0036087D01*
X0121250Y0036087D02*
X0121250Y0039524D01*
X0119650Y0039524D02*
X0119650Y0036087D01*
X0118050Y0036087D02*
X0118050Y0039524D01*
X0116450Y0039524D02*
X0116450Y0036087D01*
X0114850Y0036087D02*
X0114850Y0039524D01*
X0113250Y0039524D02*
X0113250Y0036087D01*
X0111650Y0036087D02*
X0111650Y0039524D01*
X0110050Y0039524D02*
X0110050Y0036087D01*
X0108450Y0036087D02*
X0108450Y0039524D01*
X0106850Y0039524D02*
X0106850Y0036087D01*
X0105250Y0036087D02*
X0105250Y0039524D01*
X0103650Y0039524D02*
X0103650Y0036087D01*
X0102050Y0036087D02*
X0102050Y0039524D01*
X0100450Y0039524D02*
X0100450Y0036087D01*
X0098850Y0036087D02*
X0098850Y0039524D01*
X0097250Y0039524D02*
X0097250Y0036087D01*
X0095650Y0036087D02*
X0095650Y0039524D01*
X0094050Y0039524D02*
X0094050Y0036087D01*
X0092450Y0036087D02*
X0092450Y0039524D01*
X0090850Y0039524D02*
X0090850Y0036087D01*
X0089250Y0036087D02*
X0089250Y0039524D01*
X0088044Y0039650D02*
X0050699Y0039650D01*
X0050850Y0039801D02*
X0050850Y0038206D01*
X0051006Y0038050D02*
X0744640Y0038050D01*
X0745250Y0037521D02*
X0745250Y0033451D01*
X0744851Y0033250D02*
X0744235Y0033250D01*
X0743650Y0034075D02*
X0743650Y0041854D01*
X0743106Y0041250D02*
X0744660Y0041250D01*
X0742050Y0040431D02*
X0742050Y0035482D01*
X0743019Y0034850D02*
X0771041Y0034850D01*
X0771009Y0033250D02*
X0747727Y0033250D01*
X0746850Y0033649D02*
X0746850Y0037209D01*
X0769811Y0039650D02*
X0771041Y0039650D01*
X0769250Y0040527D02*
X0769250Y0046445D01*
X0769601Y0046050D02*
X0766489Y0046050D01*
X0766050Y0046489D02*
X0766050Y0047952D01*
X0767146Y0047650D02*
X0748518Y0047650D01*
X0748450Y0047628D02*
X0748450Y0045097D01*
X0748718Y0044450D02*
X0762453Y0044450D01*
X0762850Y0045818D02*
X0762850Y0048004D01*
X0761250Y0048004D02*
X0761250Y0028000D01*
X0762850Y0028000D02*
X0762850Y0043091D01*
X0767118Y0044450D02*
X0770576Y0044450D01*
X0763082Y0046050D02*
X0747389Y0046050D01*
X0746850Y0046273D02*
X0746850Y0046763D01*
X0750050Y0047986D02*
X0750050Y0028000D01*
X0751650Y0028000D02*
X0751650Y0048004D01*
X0753250Y0048004D02*
X0753250Y0028000D01*
X0754850Y0028000D02*
X0754850Y0048004D01*
X0756450Y0048004D02*
X0756450Y0028000D01*
X0758050Y0028000D02*
X0758050Y0048004D01*
X0759650Y0048004D02*
X0759650Y0028000D01*
X0767650Y0041333D02*
X0767650Y0047486D01*
X0764450Y0048004D02*
X0764450Y0046787D01*
X0768527Y0041250D02*
X0771041Y0041250D01*
X0087650Y0039723D02*
X0087650Y0035803D01*
X0086050Y0035502D02*
X0086050Y0040019D01*
X0084450Y0040316D02*
X0084450Y0035200D01*
X0082850Y0034899D02*
X0082850Y0040612D01*
X0076450Y0042743D02*
X0076450Y0032668D01*
X0074850Y0032043D02*
X0074850Y0043357D01*
X0076171Y0042850D02*
X0051699Y0042850D01*
X0047650Y0043199D02*
X0047650Y0045177D01*
X0048377Y0044450D02*
X0034603Y0044450D01*
X0034496Y0044290D02*
X0034496Y0044290D01*
X0034850Y0044885D02*
X0034850Y0028874D01*
X0034983Y0028450D02*
X0048840Y0028450D01*
X0049250Y0028563D02*
X0049250Y0033862D01*
X0050850Y0034380D02*
X0050850Y0028244D01*
X0050353Y0028450D02*
X0068891Y0028450D01*
X0068450Y0028174D02*
X0068450Y0047101D01*
X0070050Y0046121D02*
X0070050Y0029174D01*
X0071452Y0030050D02*
X0034062Y0030050D01*
X0034469Y0029509D02*
X0034469Y0029509D01*
X0033250Y0030736D02*
X0033250Y0043023D01*
X0033197Y0042991D02*
X0033197Y0042991D01*
X0032951Y0042850D02*
X0047301Y0042850D01*
X0047167Y0041250D02*
X0003692Y0041250D01*
X0003692Y0039650D02*
X0048301Y0039650D01*
X0049250Y0039417D02*
X0049250Y0038724D01*
X0023650Y0042177D02*
X0023650Y0031582D01*
X0025250Y0031460D02*
X0025250Y0042299D01*
X0026850Y0042299D02*
X0026850Y0031460D01*
X0028450Y0031460D02*
X0028450Y0042299D01*
X0030050Y0042244D02*
X0030050Y0031514D01*
X0031650Y0031460D02*
X0031650Y0042299D01*
X0022050Y0042429D02*
X0022050Y0031330D01*
X0021719Y0031191D02*
X0021719Y0031191D01*
X0020450Y0030406D02*
X0020450Y0043353D01*
X0020238Y0043555D02*
X0020238Y0043555D01*
X0020891Y0043017D02*
X0020891Y0043017D01*
X0021177Y0042850D02*
X0003692Y0042850D01*
X0019659Y0044249D02*
X0019659Y0044249D01*
X0019525Y0044450D02*
X0003692Y0044450D01*
X0003692Y0046050D02*
X0018897Y0046050D01*
X0018850Y0046452D02*
X0018850Y0027306D01*
X0018850Y0027288D02*
X0018850Y0027062D01*
X0018839Y0026850D02*
X0003692Y0026850D01*
X0003692Y0025250D02*
X0019133Y0025250D01*
X0019209Y0025078D02*
X0019209Y0025078D01*
X0019217Y0025058D02*
X0019217Y0025058D01*
X0019659Y0024249D02*
X0019659Y0024249D01*
X0034010Y0023650D02*
X0063302Y0023650D01*
X0063650Y0023971D02*
X0063650Y0051166D01*
X0064002Y0050850D02*
X0033115Y0050850D01*
X0033250Y0050736D02*
X0033250Y0069661D01*
X0031650Y0069661D02*
X0031650Y0051460D01*
X0030050Y0051514D02*
X0030050Y0069661D01*
X0028450Y0069661D02*
X0028450Y0051460D01*
X0026850Y0051460D02*
X0026850Y0069661D01*
X0025250Y0069661D02*
X0025250Y0051460D01*
X0023650Y0051582D02*
X0023650Y0069661D01*
X0022050Y0069661D02*
X0022050Y0051330D01*
X0021719Y0051191D02*
X0021719Y0051191D01*
X0021013Y0050850D02*
X0003692Y0050850D01*
X0003692Y0049250D02*
X0019525Y0049250D01*
X0019217Y0048700D02*
X0019217Y0048700D01*
X0018894Y0047650D02*
X0003692Y0047650D01*
X0018850Y0047306D02*
X0018850Y0069661D01*
X0020450Y0069661D02*
X0020450Y0050406D01*
X0020238Y0050203D02*
X0020238Y0050203D01*
X0020197Y0050162D02*
X0020197Y0050162D01*
X0018850Y0047288D02*
X0018850Y0047062D01*
X0018850Y0046697D02*
X0018850Y0046471D01*
X0019209Y0045078D02*
X0019209Y0045078D01*
X0019217Y0045058D02*
X0019217Y0045058D01*
X0035231Y0046050D02*
X0047236Y0046050D01*
X0051902Y0046050D02*
X0070166Y0046050D01*
X0071650Y0045141D02*
X0071650Y0030174D01*
X0073250Y0031174D02*
X0073250Y0044161D01*
X0072779Y0044450D02*
X0050761Y0044450D01*
X0050850Y0044539D02*
X0050850Y0043699D01*
X0049250Y0044083D02*
X0049250Y0044224D01*
X0051320Y0034850D02*
X0082590Y0034850D01*
X0074012Y0031650D02*
X0003692Y0031650D01*
X0020197Y0030162D02*
X0020197Y0030162D01*
X0020238Y0030203D02*
X0020238Y0030203D01*
X0020066Y0030050D02*
X0003692Y0030050D01*
X0003692Y0028450D02*
X0019145Y0028450D01*
X0019217Y0028700D02*
X0019217Y0028700D01*
X0018850Y0026697D02*
X0018850Y0026471D01*
X0018850Y0026452D02*
X0018850Y0004098D01*
X0017250Y0004098D02*
X0017250Y0069661D01*
X0015650Y0069661D02*
X0015650Y0004098D01*
X0014050Y0004098D02*
X0014050Y0069661D01*
X0012450Y0069661D02*
X0012450Y0004098D01*
X0010850Y0004098D02*
X0010850Y0069661D01*
X0009250Y0069661D02*
X0009250Y0004098D01*
X0007650Y0004098D02*
X0007650Y0069661D01*
X0006050Y0069661D02*
X0006050Y0004098D01*
X0003692Y0006050D02*
X0049191Y0006050D01*
X0049250Y0006078D02*
X0049250Y0014263D01*
X0049467Y0014173D02*
X0048574Y0014543D01*
X0047890Y0015227D01*
X0047520Y0016121D01*
X0047520Y0017088D01*
X0047890Y0017981D01*
X0048574Y0018665D01*
X0049467Y0019035D01*
X0050434Y0019035D01*
X0051328Y0018665D01*
X0052012Y0017981D01*
X0052382Y0017088D01*
X0052382Y0016121D01*
X0052012Y0015227D01*
X0051328Y0014543D01*
X0050434Y0014173D01*
X0049467Y0014173D01*
X0050850Y0014345D02*
X0050850Y0007115D01*
X0051526Y0007650D02*
X0003692Y0007650D01*
X0003692Y0009250D02*
X0053229Y0009250D01*
X0052450Y0008383D02*
X0052450Y0066073D01*
X0053211Y0065250D02*
X0003692Y0065250D01*
X0003692Y0063650D02*
X0054637Y0063650D01*
X0054050Y0064343D02*
X0054050Y0010272D01*
X0054515Y0010850D02*
X0003692Y0010850D01*
X0003692Y0012450D02*
X0055502Y0012450D01*
X0055650Y0012715D02*
X0055650Y0061918D01*
X0055583Y0062050D02*
X0003692Y0062050D01*
X0003692Y0060450D02*
X0056399Y0060450D01*
X0057215Y0058850D02*
X0003692Y0058850D01*
X0003692Y0057250D02*
X0058433Y0057250D01*
X0058850Y0056708D02*
X0058850Y0018220D01*
X0059319Y0018850D02*
X0050882Y0018850D01*
X0050850Y0018863D02*
X0050850Y0024020D01*
X0034496Y0024290D02*
X0034496Y0024290D01*
X0035290Y0026850D02*
X0047263Y0026850D01*
X0041250Y0019368D02*
X0041250Y0069661D01*
X0057250Y0058791D02*
X0057250Y0015994D01*
X0057082Y0015650D02*
X0052187Y0015650D01*
X0047715Y0015650D02*
X0042693Y0015650D01*
X0038547Y0015650D02*
X0003692Y0015650D01*
X0003692Y0014050D02*
X0056302Y0014050D01*
X0047650Y0015806D02*
X0047650Y0005312D01*
X0052315Y0017250D02*
X0058128Y0017250D01*
X0038189Y0017250D02*
X0003692Y0017250D01*
X0003692Y0055650D02*
X0059662Y0055650D01*
D12*
X0010699Y0046919D03*
X0049325Y0036293D03*
X0062274Y0030778D03*
X0040620Y0026841D03*
X0049596Y0026132D03*
X0010699Y0026841D03*
X0010699Y0016998D03*
X0040620Y0016998D03*
X0049951Y0016604D03*
X0746289Y0031250D03*
X0746488Y0039640D03*
X0746333Y0043856D03*
M02*
