G75*
%MOIN*%
%OFA0B0*%
%FSLAX25Y25*%
%IPPOS*%
%LPD*%
%AMOC8*
5,1,8,0,0,1.08239X$1,22.5*
%
%ADD10C,0.02756*%
%ADD11C,0.02953*%
%ADD12C,0.00500*%
%ADD13C,0.00787*%
D10*
X0049500Y0041750D03*
X0049569Y0046557D03*
X0050169Y0052407D03*
X0764785Y0044455D03*
X0768951Y0044238D03*
X0767478Y0039000D03*
D11*
X0746488Y0039640D03*
X0746333Y0043856D03*
X0746289Y0031250D03*
X0062274Y0030778D03*
X0040620Y0026841D03*
X0049596Y0026132D03*
X0010699Y0026841D03*
X0010699Y0016998D03*
X0040620Y0016998D03*
X0049951Y0016604D03*
X0049325Y0036293D03*
X0010699Y0046919D03*
D12*
X0003692Y0069347D02*
X0003692Y0004098D01*
X0041848Y0004098D01*
X0043561Y0004194D01*
X0046901Y0004953D01*
X0049990Y0006433D01*
X0052674Y0008560D01*
X0054820Y0011230D01*
X0055657Y0012727D01*
X0055657Y0012727D01*
X0057359Y0016217D01*
X0057359Y0016217D01*
X0061996Y0022446D01*
X0061996Y0022446D01*
X0067705Y0027709D01*
X0067705Y0027709D01*
X0074291Y0031824D01*
X0074291Y0031824D01*
X0081524Y0034649D01*
X0081524Y0034649D01*
X0082066Y0034751D01*
X0058871Y0034750D01*
X0058871Y0034750D01*
X0058236Y0034750D01*
X0057629Y0034750D01*
X0057629Y0034750D01*
X0055267Y0034750D01*
X0054662Y0034737D01*
X0054648Y0034750D01*
X0054629Y0034750D01*
X0054201Y0035178D01*
X0051778Y0037495D01*
X0052051Y0036836D01*
X0052051Y0035751D01*
X0051636Y0034749D01*
X0050869Y0033982D01*
X0049867Y0033567D01*
X0048782Y0033567D01*
X0047780Y0033982D01*
X0047013Y0034749D01*
X0046598Y0035751D01*
X0046598Y0036836D01*
X0047013Y0037838D01*
X0047780Y0038605D01*
X0048782Y0039020D01*
X0049867Y0039020D01*
X0050427Y0038788D01*
X0050061Y0039138D01*
X0050023Y0039122D01*
X0048977Y0039122D01*
X0048011Y0039522D01*
X0047272Y0040261D01*
X0046872Y0041227D01*
X0046872Y0042273D01*
X0047272Y0043239D01*
X0048011Y0043978D01*
X0048470Y0044168D01*
X0048080Y0044329D01*
X0047341Y0045068D01*
X0046941Y0046034D01*
X0046941Y0047080D01*
X0047341Y0048046D01*
X0048080Y0048785D01*
X0049046Y0049185D01*
X0050092Y0049185D01*
X0051058Y0048785D01*
X0051797Y0048046D01*
X0052197Y0047080D01*
X0052197Y0046034D01*
X0052030Y0045631D01*
X0057214Y0039250D01*
X0058204Y0039250D01*
X0743148Y0039364D01*
X0743148Y0039364D01*
X0743762Y0039364D01*
X0743762Y0040182D01*
X0744177Y0041184D01*
X0744663Y0041670D01*
X0744043Y0042291D01*
X0742582Y0040668D01*
X0742582Y0040668D01*
X0740011Y0039524D01*
X0088726Y0039524D01*
X0081215Y0040915D01*
X0081215Y0040915D01*
X0074083Y0043651D01*
X0074083Y0043651D01*
X0067569Y0047641D01*
X0067569Y0047641D01*
X0061890Y0052750D01*
X0061890Y0052750D01*
X0057237Y0058808D01*
X0057237Y0058808D01*
X0055918Y0061392D01*
X0055918Y0061392D01*
X0055501Y0062210D01*
X0054536Y0063818D01*
X0051996Y0066564D01*
X0048806Y0068517D01*
X0045205Y0069532D01*
X0043335Y0069661D01*
X0003692Y0069661D01*
X0003692Y0069347D01*
X0003692Y0069347D01*
X0005187Y0069661D02*
X0005187Y0004098D01*
X0003692Y0005187D02*
X0047390Y0005187D01*
X0046526Y0004867D02*
X0046526Y0069160D01*
X0044557Y0069577D02*
X0044557Y0004420D01*
X0042589Y0004139D02*
X0042589Y0015111D01*
X0042507Y0015030D02*
X0047670Y0015030D01*
X0047639Y0015060D02*
X0048406Y0014293D01*
X0049408Y0013878D01*
X0050493Y0013878D01*
X0051495Y0014293D01*
X0052262Y0015060D01*
X0052677Y0016062D01*
X0052677Y0017147D01*
X0052262Y0018149D01*
X0051495Y0018916D01*
X0050493Y0019331D01*
X0049408Y0019331D01*
X0048406Y0018916D01*
X0047639Y0018149D01*
X0047224Y0017147D01*
X0047224Y0016062D01*
X0047639Y0015060D01*
X0048494Y0014257D02*
X0048494Y0005716D01*
X0050463Y0006807D02*
X0050463Y0013878D01*
X0052232Y0015030D02*
X0056780Y0015030D01*
X0056368Y0014185D02*
X0056368Y0034750D01*
X0058337Y0034750D02*
X0058337Y0017530D01*
X0057940Y0016998D02*
X0052677Y0016998D01*
X0052431Y0017741D02*
X0052431Y0036871D01*
X0052627Y0036683D02*
X0052051Y0036683D01*
X0055250Y0036250D02*
X0058250Y0036250D01*
X0743376Y0036289D01*
X0743404Y0036261D01*
X0746621Y0036683D02*
X0747544Y0036683D01*
X0751250Y0036250D02*
X0758978Y0036250D01*
X0767478Y0039000D01*
X0764948Y0039758D02*
X0758742Y0037750D01*
X0758045Y0037750D01*
X0763908Y0041974D01*
X0764263Y0041827D01*
X0765308Y0041827D01*
X0766274Y0042227D01*
X0767013Y0042966D01*
X0767413Y0043932D01*
X0767413Y0044977D01*
X0767013Y0045943D01*
X0766274Y0046683D01*
X0765308Y0047083D01*
X0764263Y0047083D01*
X0763297Y0046683D01*
X0762558Y0045943D01*
X0762157Y0044977D01*
X0762157Y0044410D01*
X0754994Y0039250D01*
X0749215Y0039250D01*
X0749215Y0040182D01*
X0748799Y0041184D01*
X0748158Y0041826D01*
X0748644Y0042312D01*
X0749059Y0043314D01*
X0749059Y0044399D01*
X0748644Y0045401D01*
X0747877Y0046168D01*
X0746875Y0046583D01*
X0746602Y0046583D01*
X0747710Y0047388D01*
X0749393Y0047934D01*
X0750278Y0048004D01*
X0765386Y0048004D01*
X0766271Y0047934D01*
X0767953Y0047388D01*
X0769385Y0046347D01*
X0770425Y0044916D01*
X0770972Y0043233D01*
X0771041Y0042348D01*
X0771041Y0033655D01*
X0770972Y0032771D01*
X0770425Y0031088D01*
X0769385Y0029656D01*
X0767953Y0028616D01*
X0766271Y0028070D01*
X0765386Y0028000D01*
X0749957Y0028000D01*
X0749020Y0028078D01*
X0747248Y0028691D01*
X0747244Y0028694D01*
X0747834Y0028939D01*
X0748601Y0029706D01*
X0749016Y0030708D01*
X0749016Y0031792D01*
X0748601Y0032794D01*
X0747834Y0033561D01*
X0747720Y0033608D01*
X0749115Y0033608D01*
X0749555Y0034048D01*
X0749918Y0034346D01*
X0750783Y0034704D01*
X0751250Y0034750D01*
X0751250Y0028000D01*
X0753219Y0028000D02*
X0753219Y0034750D01*
X0755187Y0034750D02*
X0755187Y0028000D01*
X0757156Y0028000D02*
X0757156Y0034750D01*
X0758617Y0034750D02*
X0758849Y0034632D01*
X0759215Y0034750D01*
X0759600Y0034750D01*
X0759784Y0034934D01*
X0765862Y0036900D01*
X0765990Y0036772D01*
X0766956Y0036372D01*
X0768001Y0036372D01*
X0768967Y0036772D01*
X0769706Y0037511D01*
X0770106Y0038477D01*
X0770106Y0039523D01*
X0769706Y0040489D01*
X0768967Y0041228D01*
X0768001Y0041628D01*
X0766956Y0041628D01*
X0765990Y0041228D01*
X0765250Y0040489D01*
X0764948Y0039758D01*
X0765030Y0039955D02*
X0765030Y0041827D01*
X0766636Y0042589D02*
X0771022Y0042589D01*
X0770935Y0043346D02*
X0770935Y0032658D01*
X0770964Y0032746D02*
X0748621Y0032746D01*
X0749281Y0033774D02*
X0749281Y0028056D01*
X0747521Y0028809D02*
X0768219Y0028809D01*
X0768967Y0029353D02*
X0768967Y0036772D01*
X0768752Y0036683D02*
X0771041Y0036683D01*
X0766998Y0036372D02*
X0766998Y0028306D01*
X0765030Y0028000D02*
X0765030Y0036631D01*
X0765190Y0036683D02*
X0766205Y0036683D01*
X0763061Y0035994D02*
X0763061Y0028000D01*
X0761093Y0028000D02*
X0761093Y0035357D01*
X0759124Y0034721D02*
X0759124Y0028000D01*
X0747313Y0028668D02*
X0747313Y0028723D01*
X0749016Y0030778D02*
X0770199Y0030778D01*
X0751250Y0036250D02*
X0751128Y0036248D01*
X0751005Y0036242D01*
X0750883Y0036233D01*
X0750761Y0036219D01*
X0750640Y0036202D01*
X0750520Y0036181D01*
X0750400Y0036156D01*
X0750281Y0036128D01*
X0750162Y0036095D01*
X0750045Y0036059D01*
X0749930Y0036020D01*
X0749815Y0035976D01*
X0749702Y0035929D01*
X0749590Y0035879D01*
X0749480Y0035825D01*
X0749372Y0035768D01*
X0749266Y0035707D01*
X0749161Y0035643D01*
X0749059Y0035576D01*
X0748959Y0035506D01*
X0748861Y0035432D01*
X0748765Y0035355D01*
X0748672Y0035276D01*
X0748582Y0035194D01*
X0748494Y0035108D01*
X0746188Y0035108D01*
X0747543Y0036683D02*
X0747629Y0036766D01*
X0747717Y0036846D01*
X0747808Y0036923D01*
X0747901Y0036997D01*
X0747997Y0037068D01*
X0748095Y0037136D01*
X0748195Y0037201D01*
X0748298Y0037262D01*
X0748402Y0037320D01*
X0748508Y0037374D01*
X0748616Y0037425D01*
X0748725Y0037473D01*
X0748836Y0037517D01*
X0748948Y0037557D01*
X0749061Y0037593D01*
X0749176Y0037626D01*
X0749292Y0037655D01*
X0749408Y0037680D01*
X0749526Y0037701D01*
X0749643Y0037719D01*
X0749762Y0037732D01*
X0749881Y0037742D01*
X0750000Y0037748D01*
X0750119Y0037750D01*
X0755478Y0037750D01*
X0764785Y0044455D01*
X0762157Y0044557D02*
X0748993Y0044557D01*
X0747313Y0046401D02*
X0747313Y0047099D01*
X0747013Y0046526D02*
X0763140Y0046526D01*
X0763061Y0046447D02*
X0763061Y0048004D01*
X0761093Y0048004D02*
X0761093Y0043643D01*
X0759629Y0042589D02*
X0748759Y0042589D01*
X0743376Y0041550D02*
X0743376Y0039364D01*
X0743943Y0040620D02*
X0742474Y0040620D01*
X0741407Y0040145D02*
X0741407Y0039364D01*
X0739439Y0039363D02*
X0739439Y0039524D01*
X0737470Y0039524D02*
X0737470Y0039363D01*
X0735502Y0039363D02*
X0735502Y0039524D01*
X0733533Y0039524D02*
X0733533Y0039362D01*
X0731565Y0039362D02*
X0731565Y0039524D01*
X0729596Y0039524D02*
X0729596Y0039362D01*
X0727628Y0039361D02*
X0727628Y0039524D01*
X0725659Y0039524D02*
X0725659Y0039361D01*
X0723691Y0039361D02*
X0723691Y0039524D01*
X0721722Y0039524D02*
X0721722Y0039360D01*
X0719754Y0039360D02*
X0719754Y0039524D01*
X0717785Y0039524D02*
X0717785Y0039360D01*
X0715817Y0039360D02*
X0715817Y0039524D01*
X0713848Y0039524D02*
X0713848Y0039359D01*
X0711880Y0039359D02*
X0711880Y0039524D01*
X0709911Y0039524D02*
X0709911Y0039359D01*
X0707943Y0039358D02*
X0707943Y0039524D01*
X0705974Y0039524D02*
X0705974Y0039358D01*
X0704006Y0039358D02*
X0704006Y0039524D01*
X0702037Y0039524D02*
X0702037Y0039357D01*
X0700069Y0039357D02*
X0700069Y0039524D01*
X0698100Y0039524D02*
X0698100Y0039357D01*
X0696132Y0039356D02*
X0696132Y0039524D01*
X0694163Y0039524D02*
X0694163Y0039356D01*
X0692195Y0039356D02*
X0692195Y0039524D01*
X0690226Y0039524D02*
X0690226Y0039355D01*
X0688258Y0039355D02*
X0688258Y0039524D01*
X0686289Y0039524D02*
X0686289Y0039355D01*
X0684321Y0039354D02*
X0684321Y0039524D01*
X0682352Y0039524D02*
X0682352Y0039354D01*
X0680384Y0039354D02*
X0680384Y0039524D01*
X0678415Y0039524D02*
X0678415Y0039353D01*
X0676447Y0039353D02*
X0676447Y0039524D01*
X0674478Y0039524D02*
X0674478Y0039353D01*
X0672510Y0039352D02*
X0672510Y0039524D01*
X0670541Y0039524D02*
X0670541Y0039352D01*
X0668573Y0039352D02*
X0668573Y0039524D01*
X0666604Y0039524D02*
X0666604Y0039351D01*
X0664636Y0039351D02*
X0664636Y0039524D01*
X0662667Y0039524D02*
X0662667Y0039351D01*
X0660699Y0039350D02*
X0660699Y0039524D01*
X0658730Y0039524D02*
X0658730Y0039350D01*
X0656762Y0039350D02*
X0656762Y0039524D01*
X0654793Y0039524D02*
X0654793Y0039349D01*
X0652825Y0039349D02*
X0652825Y0039524D01*
X0650856Y0039524D02*
X0650856Y0039349D01*
X0648888Y0039348D02*
X0648888Y0039524D01*
X0646919Y0039524D02*
X0646919Y0039348D01*
X0644951Y0039348D02*
X0644951Y0039524D01*
X0642982Y0039524D02*
X0642982Y0039347D01*
X0641014Y0039347D02*
X0641014Y0039524D01*
X0639045Y0039524D02*
X0639045Y0039347D01*
X0637077Y0039346D02*
X0637077Y0039524D01*
X0635108Y0039524D02*
X0635108Y0039346D01*
X0633140Y0039346D02*
X0633140Y0039524D01*
X0631171Y0039524D02*
X0631171Y0039345D01*
X0629203Y0039345D02*
X0629203Y0039524D01*
X0627234Y0039524D02*
X0627234Y0039345D01*
X0625266Y0039344D02*
X0625266Y0039524D01*
X0623297Y0039524D02*
X0623297Y0039344D01*
X0621329Y0039344D02*
X0621329Y0039524D01*
X0619360Y0039524D02*
X0619360Y0039343D01*
X0617392Y0039343D02*
X0617392Y0039524D01*
X0615423Y0039524D02*
X0615423Y0039343D01*
X0613455Y0039342D02*
X0613455Y0039524D01*
X0611486Y0039524D02*
X0611486Y0039342D01*
X0609518Y0039342D02*
X0609518Y0039524D01*
X0607549Y0039524D02*
X0607549Y0039341D01*
X0605581Y0039341D02*
X0605581Y0039524D01*
X0603612Y0039524D02*
X0603612Y0039341D01*
X0601644Y0039340D02*
X0601644Y0039524D01*
X0599675Y0039524D02*
X0599675Y0039340D01*
X0597707Y0039340D02*
X0597707Y0039524D01*
X0595738Y0039524D02*
X0595738Y0039340D01*
X0593770Y0039339D02*
X0593770Y0039524D01*
X0591801Y0039524D02*
X0591801Y0039339D01*
X0589833Y0039339D02*
X0589833Y0039524D01*
X0587864Y0039524D02*
X0587864Y0039338D01*
X0585896Y0039338D02*
X0585896Y0039524D01*
X0583927Y0039524D02*
X0583927Y0039338D01*
X0581959Y0039337D02*
X0581959Y0039524D01*
X0579990Y0039524D02*
X0579990Y0039337D01*
X0578022Y0039337D02*
X0578022Y0039524D01*
X0576053Y0039524D02*
X0576053Y0039336D01*
X0574085Y0039336D02*
X0574085Y0039524D01*
X0572116Y0039524D02*
X0572116Y0039336D01*
X0570148Y0039335D02*
X0570148Y0039524D01*
X0568179Y0039524D02*
X0568179Y0039335D01*
X0566211Y0039335D02*
X0566211Y0039524D01*
X0564242Y0039524D02*
X0564242Y0039334D01*
X0562274Y0039334D02*
X0562274Y0039524D01*
X0560305Y0039524D02*
X0560305Y0039334D01*
X0558337Y0039333D02*
X0558337Y0039524D01*
X0556368Y0039524D02*
X0556368Y0039333D01*
X0554400Y0039333D02*
X0554400Y0039524D01*
X0552431Y0039524D02*
X0552431Y0039332D01*
X0550463Y0039332D02*
X0550463Y0039524D01*
X0548494Y0039524D02*
X0548494Y0039332D01*
X0546526Y0039331D02*
X0546526Y0039524D01*
X0544557Y0039524D02*
X0544557Y0039331D01*
X0542589Y0039331D02*
X0542589Y0039524D01*
X0540620Y0039524D02*
X0540620Y0039330D01*
X0538652Y0039330D02*
X0538652Y0039524D01*
X0536683Y0039524D02*
X0536683Y0039330D01*
X0534715Y0039329D02*
X0534715Y0039524D01*
X0532746Y0039524D02*
X0532746Y0039329D01*
X0530778Y0039329D02*
X0530778Y0039524D01*
X0528809Y0039524D02*
X0528809Y0039328D01*
X0526841Y0039328D02*
X0526841Y0039524D01*
X0524872Y0039524D02*
X0524872Y0039328D01*
X0522904Y0039327D02*
X0522904Y0039524D01*
X0520935Y0039524D02*
X0520935Y0039327D01*
X0518967Y0039327D02*
X0518967Y0039524D01*
X0516998Y0039524D02*
X0516998Y0039326D01*
X0515030Y0039326D02*
X0515030Y0039524D01*
X0513061Y0039524D02*
X0513061Y0039326D01*
X0511093Y0039325D02*
X0511093Y0039524D01*
X0509124Y0039524D02*
X0509124Y0039325D01*
X0507156Y0039325D02*
X0507156Y0039524D01*
X0505187Y0039524D02*
X0505187Y0039324D01*
X0503219Y0039324D02*
X0503219Y0039524D01*
X0501250Y0039524D02*
X0501250Y0039324D01*
X0499281Y0039323D02*
X0499281Y0039524D01*
X0497313Y0039524D02*
X0497313Y0039323D01*
X0495344Y0039323D02*
X0495344Y0039524D01*
X0493376Y0039524D02*
X0493376Y0039322D01*
X0491407Y0039322D02*
X0491407Y0039524D01*
X0489439Y0039524D02*
X0489439Y0039322D01*
X0487470Y0039321D02*
X0487470Y0039524D01*
X0485502Y0039524D02*
X0485502Y0039321D01*
X0483533Y0039321D02*
X0483533Y0039524D01*
X0481565Y0039524D02*
X0481565Y0039320D01*
X0479596Y0039320D02*
X0479596Y0039524D01*
X0477628Y0039524D02*
X0477628Y0039320D01*
X0475659Y0039320D02*
X0475659Y0039524D01*
X0473691Y0039524D02*
X0473691Y0039319D01*
X0471722Y0039319D02*
X0471722Y0039524D01*
X0469754Y0039524D02*
X0469754Y0039319D01*
X0467785Y0039318D02*
X0467785Y0039524D01*
X0465817Y0039524D02*
X0465817Y0039318D01*
X0463848Y0039318D02*
X0463848Y0039524D01*
X0461880Y0039524D02*
X0461880Y0039317D01*
X0459911Y0039317D02*
X0459911Y0039524D01*
X0457943Y0039524D02*
X0457943Y0039317D01*
X0455974Y0039316D02*
X0455974Y0039524D01*
X0454006Y0039524D02*
X0454006Y0039316D01*
X0452037Y0039316D02*
X0452037Y0039524D01*
X0450069Y0039524D02*
X0450069Y0039315D01*
X0448100Y0039315D02*
X0448100Y0039524D01*
X0446132Y0039524D02*
X0446132Y0039315D01*
X0444163Y0039314D02*
X0444163Y0039524D01*
X0442195Y0039524D02*
X0442195Y0039314D01*
X0440226Y0039314D02*
X0440226Y0039524D01*
X0438258Y0039524D02*
X0438258Y0039313D01*
X0436289Y0039313D02*
X0436289Y0039524D01*
X0434321Y0039524D02*
X0434321Y0039313D01*
X0432352Y0039312D02*
X0432352Y0039524D01*
X0430384Y0039524D02*
X0430384Y0039312D01*
X0428415Y0039312D02*
X0428415Y0039524D01*
X0426447Y0039524D02*
X0426447Y0039311D01*
X0424478Y0039311D02*
X0424478Y0039524D01*
X0422510Y0039524D02*
X0422510Y0039311D01*
X0420541Y0039310D02*
X0420541Y0039524D01*
X0418573Y0039524D02*
X0418573Y0039310D01*
X0416604Y0039310D02*
X0416604Y0039524D01*
X0414636Y0039524D02*
X0414636Y0039309D01*
X0412667Y0039309D02*
X0412667Y0039524D01*
X0410699Y0039524D02*
X0410699Y0039309D01*
X0408730Y0039308D02*
X0408730Y0039524D01*
X0406762Y0039524D02*
X0406762Y0039308D01*
X0404793Y0039308D02*
X0404793Y0039524D01*
X0402825Y0039524D02*
X0402825Y0039307D01*
X0400856Y0039307D02*
X0400856Y0039524D01*
X0398888Y0039524D02*
X0398888Y0039307D01*
X0396919Y0039306D02*
X0396919Y0039524D01*
X0394951Y0039524D02*
X0394951Y0039306D01*
X0392982Y0039306D02*
X0392982Y0039524D01*
X0391014Y0039524D02*
X0391014Y0039305D01*
X0389045Y0039305D02*
X0389045Y0039524D01*
X0387077Y0039524D02*
X0387077Y0039305D01*
X0385108Y0039304D02*
X0385108Y0039524D01*
X0383140Y0039524D02*
X0383140Y0039304D01*
X0381171Y0039304D02*
X0381171Y0039524D01*
X0379203Y0039524D02*
X0379203Y0039303D01*
X0377234Y0039303D02*
X0377234Y0039524D01*
X0375266Y0039524D02*
X0375266Y0039303D01*
X0373297Y0039302D02*
X0373297Y0039524D01*
X0371329Y0039524D02*
X0371329Y0039302D01*
X0369360Y0039302D02*
X0369360Y0039524D01*
X0367392Y0039524D02*
X0367392Y0039301D01*
X0365423Y0039301D02*
X0365423Y0039524D01*
X0363455Y0039524D02*
X0363455Y0039301D01*
X0361486Y0039301D02*
X0361486Y0039524D01*
X0359518Y0039524D02*
X0359518Y0039300D01*
X0357549Y0039300D02*
X0357549Y0039524D01*
X0355581Y0039524D02*
X0355581Y0039300D01*
X0353612Y0039299D02*
X0353612Y0039524D01*
X0351644Y0039524D02*
X0351644Y0039299D01*
X0349675Y0039299D02*
X0349675Y0039524D01*
X0347707Y0039524D02*
X0347707Y0039298D01*
X0345738Y0039298D02*
X0345738Y0039524D01*
X0343770Y0039524D02*
X0343770Y0039298D01*
X0341801Y0039297D02*
X0341801Y0039524D01*
X0339833Y0039524D02*
X0339833Y0039297D01*
X0337864Y0039297D02*
X0337864Y0039524D01*
X0335896Y0039524D02*
X0335896Y0039296D01*
X0333927Y0039296D02*
X0333927Y0039524D01*
X0331959Y0039524D02*
X0331959Y0039296D01*
X0329990Y0039295D02*
X0329990Y0039524D01*
X0328022Y0039524D02*
X0328022Y0039295D01*
X0326053Y0039295D02*
X0326053Y0039524D01*
X0324085Y0039524D02*
X0324085Y0039294D01*
X0322116Y0039294D02*
X0322116Y0039524D01*
X0320148Y0039524D02*
X0320148Y0039294D01*
X0318179Y0039293D02*
X0318179Y0039524D01*
X0316211Y0039524D02*
X0316211Y0039293D01*
X0314242Y0039293D02*
X0314242Y0039524D01*
X0312274Y0039524D02*
X0312274Y0039292D01*
X0310305Y0039292D02*
X0310305Y0039524D01*
X0308337Y0039524D02*
X0308337Y0039292D01*
X0306368Y0039291D02*
X0306368Y0039524D01*
X0304400Y0039524D02*
X0304400Y0039291D01*
X0302431Y0039291D02*
X0302431Y0039524D01*
X0300463Y0039524D02*
X0300463Y0039290D01*
X0298494Y0039290D02*
X0298494Y0039524D01*
X0296526Y0039524D02*
X0296526Y0039290D01*
X0294557Y0039289D02*
X0294557Y0039524D01*
X0292589Y0039524D02*
X0292589Y0039289D01*
X0290620Y0039289D02*
X0290620Y0039524D01*
X0288652Y0039524D02*
X0288652Y0039288D01*
X0286683Y0039288D02*
X0286683Y0039524D01*
X0284715Y0039524D02*
X0284715Y0039288D01*
X0282746Y0039287D02*
X0282746Y0039524D01*
X0280778Y0039524D02*
X0280778Y0039287D01*
X0278809Y0039287D02*
X0278809Y0039524D01*
X0276841Y0039524D02*
X0276841Y0039286D01*
X0274872Y0039286D02*
X0274872Y0039524D01*
X0272904Y0039524D02*
X0272904Y0039286D01*
X0270935Y0039285D02*
X0270935Y0039524D01*
X0268967Y0039524D02*
X0268967Y0039285D01*
X0266998Y0039285D02*
X0266998Y0039524D01*
X0265030Y0039524D02*
X0265030Y0039284D01*
X0263061Y0039284D02*
X0263061Y0039524D01*
X0261093Y0039524D02*
X0261093Y0039284D01*
X0259124Y0039283D02*
X0259124Y0039524D01*
X0257156Y0039524D02*
X0257156Y0039283D01*
X0255187Y0039283D02*
X0255187Y0039524D01*
X0253219Y0039524D02*
X0253219Y0039282D01*
X0251250Y0039282D02*
X0251250Y0039524D01*
X0249281Y0039524D02*
X0249281Y0039282D01*
X0247313Y0039281D02*
X0247313Y0039524D01*
X0245344Y0039524D02*
X0245344Y0039281D01*
X0243376Y0039281D02*
X0243376Y0039524D01*
X0241407Y0039524D02*
X0241407Y0039280D01*
X0239439Y0039280D02*
X0239439Y0039524D01*
X0237470Y0039524D02*
X0237470Y0039280D01*
X0235502Y0039280D02*
X0235502Y0039524D01*
X0233533Y0039524D02*
X0233533Y0039279D01*
X0231565Y0039279D02*
X0231565Y0039524D01*
X0229596Y0039524D02*
X0229596Y0039279D01*
X0227628Y0039278D02*
X0227628Y0039524D01*
X0225659Y0039524D02*
X0225659Y0039278D01*
X0223691Y0039278D02*
X0223691Y0039524D01*
X0221722Y0039524D02*
X0221722Y0039277D01*
X0219754Y0039277D02*
X0219754Y0039524D01*
X0217785Y0039524D02*
X0217785Y0039277D01*
X0215817Y0039276D02*
X0215817Y0039524D01*
X0213848Y0039524D02*
X0213848Y0039276D01*
X0211880Y0039276D02*
X0211880Y0039524D01*
X0209911Y0039524D02*
X0209911Y0039275D01*
X0207943Y0039275D02*
X0207943Y0039524D01*
X0205974Y0039524D02*
X0205974Y0039275D01*
X0204006Y0039274D02*
X0204006Y0039524D01*
X0202037Y0039524D02*
X0202037Y0039274D01*
X0200069Y0039274D02*
X0200069Y0039524D01*
X0198100Y0039524D02*
X0198100Y0039273D01*
X0196132Y0039273D02*
X0196132Y0039524D01*
X0194163Y0039524D02*
X0194163Y0039273D01*
X0192195Y0039272D02*
X0192195Y0039524D01*
X0190226Y0039524D02*
X0190226Y0039272D01*
X0188258Y0039272D02*
X0188258Y0039524D01*
X0186289Y0039524D02*
X0186289Y0039271D01*
X0184321Y0039271D02*
X0184321Y0039524D01*
X0182352Y0039524D02*
X0182352Y0039271D01*
X0180384Y0039270D02*
X0180384Y0039524D01*
X0178415Y0039524D02*
X0178415Y0039270D01*
X0176447Y0039270D02*
X0176447Y0039524D01*
X0174478Y0039524D02*
X0174478Y0039269D01*
X0172510Y0039269D02*
X0172510Y0039524D01*
X0170541Y0039524D02*
X0170541Y0039269D01*
X0168573Y0039268D02*
X0168573Y0039524D01*
X0166604Y0039524D02*
X0166604Y0039268D01*
X0164636Y0039268D02*
X0164636Y0039524D01*
X0162667Y0039524D02*
X0162667Y0039267D01*
X0160699Y0039267D02*
X0160699Y0039524D01*
X0158730Y0039524D02*
X0158730Y0039267D01*
X0156762Y0039266D02*
X0156762Y0039524D01*
X0154793Y0039524D02*
X0154793Y0039266D01*
X0152825Y0039266D02*
X0152825Y0039524D01*
X0150856Y0039524D02*
X0150856Y0039265D01*
X0148888Y0039265D02*
X0148888Y0039524D01*
X0146919Y0039524D02*
X0146919Y0039265D01*
X0144951Y0039264D02*
X0144951Y0039524D01*
X0142982Y0039524D02*
X0142982Y0039264D01*
X0141014Y0039264D02*
X0141014Y0039524D01*
X0139045Y0039524D02*
X0139045Y0039263D01*
X0137077Y0039263D02*
X0137077Y0039524D01*
X0135108Y0039524D02*
X0135108Y0039263D01*
X0133140Y0039262D02*
X0133140Y0039524D01*
X0131171Y0039524D02*
X0131171Y0039262D01*
X0129203Y0039262D02*
X0129203Y0039524D01*
X0127234Y0039524D02*
X0127234Y0039261D01*
X0125266Y0039261D02*
X0125266Y0039524D01*
X0123297Y0039524D02*
X0123297Y0039261D01*
X0121329Y0039261D02*
X0121329Y0039524D01*
X0119360Y0039524D02*
X0119360Y0039260D01*
X0117392Y0039260D02*
X0117392Y0039524D01*
X0115423Y0039524D02*
X0115423Y0039260D01*
X0113455Y0039259D02*
X0113455Y0039524D01*
X0111486Y0039524D02*
X0111486Y0039259D01*
X0109518Y0039259D02*
X0109518Y0039524D01*
X0107549Y0039524D02*
X0107549Y0039258D01*
X0105581Y0039258D02*
X0105581Y0039524D01*
X0103612Y0039524D02*
X0103612Y0039258D01*
X0101644Y0039257D02*
X0101644Y0039524D01*
X0099675Y0039524D02*
X0099675Y0039257D01*
X0097707Y0039257D02*
X0097707Y0039524D01*
X0095738Y0039524D02*
X0095738Y0039256D01*
X0093770Y0039256D02*
X0093770Y0039524D01*
X0091801Y0039524D02*
X0091801Y0039256D01*
X0089833Y0039255D02*
X0089833Y0039524D01*
X0087864Y0039683D02*
X0087864Y0039255D01*
X0085896Y0039255D02*
X0085896Y0040048D01*
X0083927Y0040413D02*
X0083927Y0039254D01*
X0082807Y0040620D02*
X0056101Y0040620D01*
X0056368Y0040291D02*
X0056368Y0060510D01*
X0056473Y0060305D02*
X0003692Y0060305D01*
X0003692Y0062274D02*
X0055463Y0062274D01*
X0054400Y0063965D02*
X0054400Y0042714D01*
X0054501Y0042589D02*
X0076853Y0042589D01*
X0076053Y0042895D02*
X0076053Y0039253D01*
X0074085Y0039253D02*
X0074085Y0043651D01*
X0072604Y0044557D02*
X0052902Y0044557D01*
X0052431Y0045137D02*
X0052431Y0066093D01*
X0052322Y0066211D02*
X0003692Y0066211D01*
X0003692Y0064242D02*
X0054144Y0064242D01*
X0050463Y0067503D02*
X0050463Y0049031D01*
X0051348Y0048494D02*
X0066620Y0048494D01*
X0066211Y0048862D02*
X0066211Y0039251D01*
X0068179Y0039252D02*
X0068179Y0047267D01*
X0069389Y0046526D02*
X0052197Y0046526D01*
X0049721Y0046093D02*
X0056500Y0037750D01*
X0058250Y0037750D01*
X0743770Y0037864D01*
X0743404Y0036261D02*
X0743493Y0036175D01*
X0743584Y0036092D01*
X0743678Y0036011D01*
X0743775Y0035934D01*
X0743874Y0035860D01*
X0743975Y0035789D01*
X0744078Y0035721D01*
X0744184Y0035656D01*
X0744291Y0035595D01*
X0744401Y0035537D01*
X0744512Y0035483D01*
X0744624Y0035432D01*
X0744739Y0035384D01*
X0744854Y0035341D01*
X0744971Y0035301D01*
X0745090Y0035264D01*
X0745209Y0035232D01*
X0745329Y0035203D01*
X0745450Y0035178D01*
X0745572Y0035156D01*
X0745695Y0035139D01*
X0745817Y0035125D01*
X0745941Y0035116D01*
X0746064Y0035110D01*
X0746188Y0035108D01*
X0750891Y0034715D02*
X0758687Y0034715D01*
X0758617Y0034750D02*
X0751250Y0034750D01*
X0759105Y0034715D02*
X0771041Y0034715D01*
X0759124Y0037874D02*
X0759124Y0038528D01*
X0759296Y0038652D02*
X0761528Y0038652D01*
X0761093Y0038511D02*
X0761093Y0039946D01*
X0762029Y0040620D02*
X0765382Y0040620D01*
X0763061Y0041364D02*
X0763061Y0039147D01*
X0770106Y0038652D02*
X0771041Y0038652D01*
X0771041Y0040620D02*
X0769575Y0040620D01*
X0768967Y0041228D02*
X0768967Y0046651D01*
X0769140Y0046526D02*
X0766431Y0046526D01*
X0766998Y0045959D02*
X0766998Y0047698D01*
X0765030Y0048004D02*
X0765030Y0047083D01*
X0759124Y0048004D02*
X0759124Y0042225D01*
X0766998Y0041628D02*
X0766998Y0042951D01*
X0767413Y0044557D02*
X0770542Y0044557D01*
X0757156Y0048004D02*
X0757156Y0040807D01*
X0756896Y0040620D02*
X0749033Y0040620D01*
X0749281Y0039250D02*
X0749281Y0047898D01*
X0751250Y0048004D02*
X0751250Y0039250D01*
X0753219Y0039250D02*
X0753219Y0048004D01*
X0755187Y0048004D02*
X0755187Y0039389D01*
X0746621Y0036683D02*
X0746499Y0036685D01*
X0746377Y0036690D01*
X0746256Y0036700D01*
X0746135Y0036712D01*
X0746014Y0036729D01*
X0745894Y0036749D01*
X0745775Y0036773D01*
X0745656Y0036800D01*
X0745538Y0036831D01*
X0745421Y0036866D01*
X0745305Y0036904D01*
X0745191Y0036945D01*
X0745078Y0036990D01*
X0744966Y0037038D01*
X0744855Y0037090D01*
X0744747Y0037145D01*
X0744640Y0037203D01*
X0744535Y0037265D01*
X0744431Y0037329D01*
X0744330Y0037397D01*
X0744231Y0037468D01*
X0744134Y0037541D01*
X0744039Y0037618D01*
X0743947Y0037697D01*
X0743857Y0037779D01*
X0743769Y0037864D01*
X0081959Y0039254D02*
X0081959Y0040777D01*
X0079990Y0041385D02*
X0079990Y0039254D01*
X0078022Y0039253D02*
X0078022Y0042140D01*
X0072116Y0044856D02*
X0072116Y0039252D01*
X0070148Y0039252D02*
X0070148Y0046061D01*
X0048494Y0048956D02*
X0048494Y0068605D01*
X0049358Y0068179D02*
X0003692Y0068179D01*
X0007156Y0069661D02*
X0007156Y0004098D01*
X0009124Y0004098D02*
X0009124Y0069661D01*
X0011093Y0069661D02*
X0011093Y0004098D01*
X0013061Y0004098D02*
X0013061Y0069661D01*
X0015030Y0069661D02*
X0015030Y0004098D01*
X0016998Y0004098D02*
X0016998Y0069661D01*
X0018967Y0069661D02*
X0018967Y0047988D01*
X0018940Y0047961D02*
X0018940Y0047810D01*
X0018883Y0047676D01*
X0018930Y0047561D01*
X0018894Y0047447D01*
X0018857Y0047401D01*
X0018863Y0047347D01*
X0018846Y0047295D01*
X0018873Y0047243D01*
X0018886Y0047117D01*
X0018817Y0047013D01*
X0018845Y0046879D01*
X0018817Y0046746D01*
X0018886Y0046641D01*
X0018873Y0046516D01*
X0018846Y0046464D01*
X0018863Y0046412D01*
X0018857Y0046358D01*
X0018894Y0046312D01*
X0018930Y0046198D01*
X0018883Y0046083D01*
X0018940Y0045949D01*
X0018940Y0045797D01*
X0019033Y0045704D01*
X0019039Y0045644D01*
X0019016Y0045565D01*
X0019055Y0045493D01*
X0019063Y0045414D01*
X0019126Y0045363D01*
X0019147Y0045323D01*
X0019124Y0045204D01*
X0019209Y0045078D01*
X0019215Y0045070D01*
X0019217Y0045058D01*
X0019249Y0044904D01*
X0019357Y0044833D01*
X0019360Y0044822D01*
X0019351Y0044729D01*
X0019412Y0044655D01*
X0019441Y0044562D01*
X0019525Y0044518D01*
X0019525Y0044397D01*
X0019649Y0044273D01*
X0019659Y0044249D01*
X0019719Y0044108D01*
X0019828Y0044064D01*
X0019836Y0043977D01*
X0019917Y0043910D01*
X0019968Y0043816D01*
X0020050Y0043792D01*
X0020071Y0043682D01*
X0020197Y0043597D01*
X0020197Y0043597D01*
X0020221Y0043580D01*
X0020238Y0043555D01*
X0020323Y0043430D01*
X0020434Y0043408D01*
X0020458Y0043327D01*
X0020551Y0043276D01*
X0020618Y0043195D01*
X0020705Y0043186D01*
X0020749Y0043077D01*
X0020891Y0043017D01*
X0020915Y0043007D01*
X0021038Y0042884D01*
X0021159Y0042884D01*
X0021203Y0042800D01*
X0021296Y0042771D01*
X0021370Y0042710D01*
X0021464Y0042719D01*
X0021475Y0042715D01*
X0021546Y0042607D01*
X0021711Y0042574D01*
X0021719Y0042568D01*
X0021719Y0042568D01*
X0021845Y0042483D01*
X0021965Y0042506D01*
X0022005Y0042484D01*
X0022055Y0042422D01*
X0022134Y0042414D01*
X0022206Y0042375D01*
X0022285Y0042398D01*
X0022346Y0042392D01*
X0022439Y0042299D01*
X0022590Y0042299D01*
X0022725Y0042242D01*
X0022839Y0042288D01*
X0023105Y0042205D01*
X0023220Y0042265D01*
X0023654Y0042176D01*
X0023759Y0042245D01*
X0024043Y0042216D01*
X0024145Y0042299D01*
X0029983Y0042299D01*
X0030085Y0042216D01*
X0030369Y0042245D01*
X0030474Y0042176D01*
X0030908Y0042265D01*
X0031023Y0042205D01*
X0031289Y0042288D01*
X0031403Y0042242D01*
X0031538Y0042299D01*
X0031689Y0042299D01*
X0031782Y0042392D01*
X0031843Y0042398D01*
X0031922Y0042375D01*
X0031994Y0042414D01*
X0032073Y0042422D01*
X0032123Y0042484D01*
X0032163Y0042506D01*
X0032283Y0042483D01*
X0032417Y0042574D01*
X0032582Y0042607D01*
X0032653Y0042715D01*
X0032665Y0042719D01*
X0032758Y0042710D01*
X0032832Y0042771D01*
X0032925Y0042800D01*
X0032969Y0042884D01*
X0033090Y0042884D01*
X0033197Y0042991D01*
X0033213Y0043007D01*
X0033237Y0043017D01*
X0033237Y0043018D01*
X0033379Y0043077D01*
X0033423Y0043186D01*
X0033510Y0043195D01*
X0033577Y0043276D01*
X0033670Y0043327D01*
X0033694Y0043408D01*
X0033805Y0043430D01*
X0033907Y0043580D01*
X0034057Y0043682D01*
X0034079Y0043792D01*
X0034160Y0043816D01*
X0034211Y0043910D01*
X0034292Y0043977D01*
X0034300Y0044064D01*
X0034409Y0044108D01*
X0034469Y0044249D01*
X0034469Y0044249D01*
X0034479Y0044273D01*
X0034496Y0044290D01*
X0034603Y0044397D01*
X0034603Y0044518D01*
X0034687Y0044562D01*
X0034716Y0044655D01*
X0034777Y0044729D01*
X0034768Y0044822D01*
X0034772Y0044833D01*
X0034879Y0044904D01*
X0034913Y0045070D01*
X0035004Y0045204D01*
X0034981Y0045323D01*
X0035002Y0045363D01*
X0035065Y0045414D01*
X0035073Y0045493D01*
X0035112Y0045565D01*
X0035089Y0045644D01*
X0035095Y0045704D01*
X0035188Y0045797D01*
X0035188Y0045949D01*
X0035245Y0046084D01*
X0035199Y0046198D01*
X0035234Y0046312D01*
X0035271Y0046357D01*
X0035265Y0046412D01*
X0035282Y0046464D01*
X0035255Y0046516D01*
X0035242Y0046641D01*
X0035311Y0046746D01*
X0035284Y0046879D01*
X0035311Y0047013D01*
X0035242Y0047117D01*
X0035255Y0047243D01*
X0035282Y0047295D01*
X0035265Y0047347D01*
X0035271Y0047401D01*
X0035234Y0047447D01*
X0035199Y0047561D01*
X0035245Y0047675D01*
X0035188Y0047810D01*
X0035188Y0047961D01*
X0035095Y0048055D01*
X0035089Y0048115D01*
X0035112Y0048194D01*
X0035073Y0048266D01*
X0035065Y0048345D01*
X0035002Y0048395D01*
X0034981Y0048435D01*
X0035004Y0048555D01*
X0034913Y0048689D01*
X0034879Y0048854D01*
X0034772Y0048925D01*
X0034768Y0048937D01*
X0034777Y0049030D01*
X0034716Y0049104D01*
X0034687Y0049197D01*
X0034603Y0049241D01*
X0034603Y0049362D01*
X0034479Y0049485D01*
X0034469Y0049509D01*
X0034409Y0049651D01*
X0034300Y0049695D01*
X0034292Y0049782D01*
X0034211Y0049849D01*
X0034160Y0049943D01*
X0034079Y0049967D01*
X0034057Y0050077D01*
X0033907Y0050179D01*
X0033805Y0050329D01*
X0033694Y0050351D01*
X0033670Y0050432D01*
X0033577Y0050483D01*
X0033510Y0050564D01*
X0033423Y0050572D01*
X0033379Y0050681D01*
X0033237Y0050741D01*
X0033237Y0050741D01*
X0033214Y0050751D01*
X0033090Y0050875D01*
X0032969Y0050875D01*
X0032925Y0050959D01*
X0032832Y0050988D01*
X0032758Y0051049D01*
X0032665Y0051040D01*
X0032653Y0051044D01*
X0032582Y0051151D01*
X0032417Y0051185D01*
X0032283Y0051276D01*
X0032163Y0051253D01*
X0032123Y0051274D01*
X0032073Y0051337D01*
X0031994Y0051345D01*
X0031922Y0051384D01*
X0031843Y0051361D01*
X0031782Y0051367D01*
X0031689Y0051460D01*
X0031538Y0051460D01*
X0031403Y0051517D01*
X0031289Y0051471D01*
X0031023Y0051554D01*
X0030908Y0051494D01*
X0030474Y0051583D01*
X0030369Y0051514D01*
X0030085Y0051543D01*
X0029983Y0051460D01*
X0024145Y0051460D01*
X0024043Y0051543D01*
X0023759Y0051514D01*
X0023654Y0051583D01*
X0023220Y0051494D01*
X0023105Y0051554D01*
X0022839Y0051471D01*
X0022725Y0051517D01*
X0022590Y0051460D01*
X0022439Y0051460D01*
X0022346Y0051367D01*
X0022285Y0051361D01*
X0022206Y0051384D01*
X0022134Y0051345D01*
X0022055Y0051337D01*
X0022005Y0051274D01*
X0021965Y0051253D01*
X0021845Y0051276D01*
X0021719Y0051191D01*
X0021711Y0051185D01*
X0021546Y0051151D01*
X0021475Y0051044D01*
X0021464Y0051040D01*
X0021370Y0051049D01*
X0021296Y0050988D01*
X0021203Y0050959D01*
X0021159Y0050875D01*
X0021038Y0050875D01*
X0020914Y0050751D01*
X0020749Y0050682D01*
X0020705Y0050572D01*
X0020618Y0050564D01*
X0020551Y0050483D01*
X0020458Y0050432D01*
X0020434Y0050351D01*
X0020323Y0050329D01*
X0020238Y0050203D01*
X0020221Y0050179D01*
X0020197Y0050162D01*
X0020071Y0050077D01*
X0020050Y0049967D01*
X0019968Y0049943D01*
X0019918Y0049849D01*
X0019836Y0049782D01*
X0019828Y0049695D01*
X0019719Y0049651D01*
X0019649Y0049486D01*
X0019525Y0049362D01*
X0019525Y0049241D01*
X0019441Y0049197D01*
X0019412Y0049104D01*
X0019351Y0049030D01*
X0019360Y0048937D01*
X0019357Y0048925D01*
X0019249Y0048854D01*
X0019217Y0048700D01*
X0019215Y0048689D01*
X0019209Y0048681D01*
X0019209Y0048681D01*
X0019124Y0048555D01*
X0019147Y0048435D01*
X0019126Y0048396D01*
X0019063Y0048345D01*
X0019055Y0048266D01*
X0019016Y0048194D01*
X0019039Y0048115D01*
X0019033Y0048055D01*
X0018940Y0047961D01*
X0019136Y0048494D02*
X0003692Y0048494D01*
X0003692Y0050463D02*
X0020514Y0050463D01*
X0020238Y0050203D02*
X0020238Y0050203D01*
X0020197Y0050162D02*
X0020197Y0050162D01*
X0020935Y0050772D02*
X0020935Y0069661D01*
X0022904Y0069661D02*
X0022904Y0051491D01*
X0021719Y0051191D02*
X0021719Y0051191D01*
X0024872Y0051460D02*
X0024872Y0069661D01*
X0026841Y0069661D02*
X0026841Y0051460D01*
X0028809Y0051460D02*
X0028809Y0069661D01*
X0030778Y0069661D02*
X0030778Y0051521D01*
X0032746Y0051048D02*
X0032746Y0069661D01*
X0034715Y0069661D02*
X0034715Y0049108D01*
X0034469Y0049509D02*
X0034469Y0049509D01*
X0034992Y0048494D02*
X0047789Y0048494D01*
X0033614Y0050463D02*
X0064432Y0050463D01*
X0064242Y0050634D02*
X0064242Y0039251D01*
X0062274Y0039251D02*
X0062274Y0052405D01*
X0062244Y0052431D02*
X0003692Y0052431D01*
X0003692Y0054400D02*
X0060623Y0054400D01*
X0060305Y0054813D02*
X0060305Y0039250D01*
X0058337Y0039250D02*
X0058337Y0057376D01*
X0057599Y0058337D02*
X0003692Y0058337D01*
X0003692Y0056368D02*
X0059111Y0056368D01*
X0019217Y0048700D02*
X0019217Y0048700D01*
X0018874Y0046526D02*
X0003692Y0046526D01*
X0003692Y0044557D02*
X0019450Y0044557D01*
X0019659Y0044249D02*
X0019659Y0044249D01*
X0020238Y0043555D02*
X0020238Y0043555D01*
X0020891Y0043017D02*
X0020891Y0043017D01*
X0020935Y0042987D02*
X0020935Y0030772D01*
X0020941Y0030778D02*
X0003692Y0030778D01*
X0003692Y0028809D02*
X0019240Y0028809D01*
X0019249Y0028854D02*
X0019217Y0028700D01*
X0019215Y0028689D01*
X0019209Y0028681D01*
X0019209Y0028681D01*
X0019124Y0028555D01*
X0019147Y0028435D01*
X0019126Y0028396D01*
X0019063Y0028345D01*
X0019055Y0028266D01*
X0019016Y0028194D01*
X0019039Y0028115D01*
X0019033Y0028055D01*
X0018940Y0027961D01*
X0018940Y0027810D01*
X0018883Y0027676D01*
X0018930Y0027561D01*
X0018894Y0027447D01*
X0018857Y0027401D01*
X0018863Y0027347D01*
X0018846Y0027295D01*
X0018873Y0027243D01*
X0018886Y0027117D01*
X0018817Y0027013D01*
X0018845Y0026879D01*
X0018817Y0026746D01*
X0018886Y0026641D01*
X0018873Y0026516D01*
X0018846Y0026464D01*
X0018863Y0026412D01*
X0018857Y0026358D01*
X0018894Y0026312D01*
X0018930Y0026198D01*
X0018883Y0026083D01*
X0018940Y0025949D01*
X0018940Y0025797D01*
X0019033Y0025704D01*
X0019039Y0025644D01*
X0019016Y0025565D01*
X0019055Y0025493D01*
X0019063Y0025414D01*
X0019126Y0025363D01*
X0019147Y0025323D01*
X0019124Y0025204D01*
X0019209Y0025078D01*
X0019215Y0025070D01*
X0019217Y0025058D01*
X0019249Y0024904D01*
X0019357Y0024833D01*
X0019360Y0024822D01*
X0019351Y0024729D01*
X0019412Y0024655D01*
X0019441Y0024562D01*
X0019525Y0024518D01*
X0019525Y0024397D01*
X0019649Y0024273D01*
X0019659Y0024249D01*
X0019719Y0024108D01*
X0019828Y0024064D01*
X0019836Y0023977D01*
X0019917Y0023910D01*
X0019968Y0023816D01*
X0020050Y0023792D01*
X0020071Y0023682D01*
X0020197Y0023597D01*
X0020197Y0023597D01*
X0020221Y0023580D01*
X0020238Y0023555D01*
X0020323Y0023430D01*
X0020434Y0023408D01*
X0020458Y0023327D01*
X0020551Y0023276D01*
X0020618Y0023195D01*
X0020705Y0023186D01*
X0020749Y0023077D01*
X0020891Y0023017D01*
X0020915Y0023007D01*
X0021038Y0022884D01*
X0021159Y0022884D01*
X0021203Y0022800D01*
X0021296Y0022771D01*
X0021370Y0022710D01*
X0021464Y0022719D01*
X0021475Y0022715D01*
X0021546Y0022607D01*
X0021711Y0022574D01*
X0021719Y0022568D01*
X0021719Y0022568D01*
X0021845Y0022483D01*
X0021965Y0022506D01*
X0022005Y0022484D01*
X0022055Y0022422D01*
X0022134Y0022414D01*
X0022206Y0022375D01*
X0022285Y0022398D01*
X0022346Y0022392D01*
X0022439Y0022299D01*
X0022590Y0022299D01*
X0022725Y0022242D01*
X0022839Y0022288D01*
X0023105Y0022205D01*
X0023220Y0022265D01*
X0023654Y0022176D01*
X0023759Y0022245D01*
X0024043Y0022216D01*
X0024145Y0022299D01*
X0029983Y0022299D01*
X0030085Y0022216D01*
X0030369Y0022245D01*
X0030474Y0022176D01*
X0030908Y0022265D01*
X0031023Y0022205D01*
X0031289Y0022288D01*
X0031403Y0022242D01*
X0031538Y0022299D01*
X0031689Y0022299D01*
X0031782Y0022392D01*
X0031843Y0022398D01*
X0031922Y0022375D01*
X0031994Y0022414D01*
X0032073Y0022422D01*
X0032123Y0022484D01*
X0032163Y0022506D01*
X0032283Y0022483D01*
X0032417Y0022574D01*
X0032582Y0022607D01*
X0032653Y0022715D01*
X0032665Y0022719D01*
X0032758Y0022710D01*
X0032832Y0022771D01*
X0032925Y0022800D01*
X0032969Y0022884D01*
X0033090Y0022884D01*
X0033197Y0022991D01*
X0033213Y0023007D01*
X0033237Y0023017D01*
X0033237Y0023018D01*
X0033379Y0023077D01*
X0033423Y0023186D01*
X0033510Y0023195D01*
X0033577Y0023276D01*
X0033670Y0023327D01*
X0033694Y0023408D01*
X0033805Y0023430D01*
X0033907Y0023580D01*
X0034057Y0023682D01*
X0034079Y0023792D01*
X0034160Y0023816D01*
X0034211Y0023910D01*
X0034292Y0023977D01*
X0034300Y0024064D01*
X0034409Y0024108D01*
X0034469Y0024249D01*
X0034469Y0024249D01*
X0034479Y0024273D01*
X0034496Y0024290D01*
X0034603Y0024397D01*
X0034603Y0024518D01*
X0034687Y0024562D01*
X0034716Y0024655D01*
X0034777Y0024729D01*
X0034768Y0024822D01*
X0034772Y0024833D01*
X0034879Y0024904D01*
X0034913Y0025070D01*
X0035004Y0025204D01*
X0034981Y0025323D01*
X0035002Y0025363D01*
X0035065Y0025414D01*
X0035073Y0025493D01*
X0035112Y0025565D01*
X0035089Y0025644D01*
X0035095Y0025704D01*
X0035188Y0025797D01*
X0035188Y0025949D01*
X0035245Y0026084D01*
X0035199Y0026198D01*
X0035234Y0026312D01*
X0035271Y0026357D01*
X0035265Y0026412D01*
X0035282Y0026464D01*
X0035255Y0026516D01*
X0035242Y0026641D01*
X0035311Y0026746D01*
X0035284Y0026879D01*
X0035311Y0027013D01*
X0035242Y0027117D01*
X0035255Y0027243D01*
X0035282Y0027295D01*
X0035265Y0027347D01*
X0035271Y0027401D01*
X0035234Y0027447D01*
X0035199Y0027561D01*
X0035245Y0027675D01*
X0035188Y0027810D01*
X0035188Y0027961D01*
X0035095Y0028055D01*
X0035089Y0028115D01*
X0035112Y0028194D01*
X0035073Y0028266D01*
X0035065Y0028345D01*
X0035002Y0028395D01*
X0034981Y0028435D01*
X0035004Y0028555D01*
X0034913Y0028689D01*
X0034879Y0028854D01*
X0034772Y0028925D01*
X0034768Y0028937D01*
X0034777Y0029030D01*
X0034716Y0029104D01*
X0034687Y0029197D01*
X0034603Y0029241D01*
X0034603Y0029362D01*
X0034479Y0029485D01*
X0034469Y0029509D01*
X0034409Y0029651D01*
X0034300Y0029695D01*
X0034292Y0029782D01*
X0034211Y0029849D01*
X0034160Y0029943D01*
X0034079Y0029967D01*
X0034057Y0030077D01*
X0033907Y0030179D01*
X0033805Y0030329D01*
X0033694Y0030351D01*
X0033670Y0030432D01*
X0033577Y0030483D01*
X0033510Y0030564D01*
X0033423Y0030572D01*
X0033379Y0030681D01*
X0033237Y0030741D01*
X0033237Y0030741D01*
X0033214Y0030751D01*
X0033090Y0030875D01*
X0032969Y0030875D01*
X0032925Y0030959D01*
X0032832Y0030988D01*
X0032758Y0031049D01*
X0032665Y0031040D01*
X0032653Y0031044D01*
X0032582Y0031151D01*
X0032417Y0031185D01*
X0032283Y0031276D01*
X0032163Y0031253D01*
X0032123Y0031274D01*
X0032073Y0031337D01*
X0031994Y0031345D01*
X0031922Y0031384D01*
X0031843Y0031361D01*
X0031782Y0031367D01*
X0031689Y0031460D01*
X0031538Y0031460D01*
X0031403Y0031517D01*
X0031289Y0031471D01*
X0031023Y0031554D01*
X0030908Y0031494D01*
X0030474Y0031583D01*
X0030369Y0031514D01*
X0030085Y0031543D01*
X0029983Y0031460D01*
X0024145Y0031460D01*
X0024043Y0031543D01*
X0023759Y0031514D01*
X0023654Y0031583D01*
X0023220Y0031494D01*
X0023105Y0031554D01*
X0022839Y0031471D01*
X0022725Y0031517D01*
X0022590Y0031460D01*
X0022439Y0031460D01*
X0022346Y0031367D01*
X0022285Y0031361D01*
X0022206Y0031384D01*
X0022134Y0031345D01*
X0022055Y0031337D01*
X0022005Y0031274D01*
X0021965Y0031253D01*
X0021845Y0031276D01*
X0021719Y0031191D01*
X0021711Y0031185D01*
X0021546Y0031151D01*
X0021475Y0031044D01*
X0021464Y0031040D01*
X0021370Y0031049D01*
X0021296Y0030988D01*
X0021203Y0030959D01*
X0021159Y0030875D01*
X0021038Y0030875D01*
X0020914Y0030751D01*
X0020749Y0030682D01*
X0020705Y0030572D01*
X0020618Y0030564D01*
X0020551Y0030483D01*
X0020458Y0030432D01*
X0020434Y0030351D01*
X0020323Y0030329D01*
X0020238Y0030203D01*
X0020221Y0030179D01*
X0020197Y0030162D01*
X0020071Y0030077D01*
X0020050Y0029967D01*
X0019968Y0029943D01*
X0019918Y0029849D01*
X0019836Y0029782D01*
X0019828Y0029695D01*
X0019719Y0029651D01*
X0019649Y0029486D01*
X0019525Y0029362D01*
X0019525Y0029241D01*
X0019441Y0029197D01*
X0019412Y0029104D01*
X0019351Y0029030D01*
X0019360Y0028937D01*
X0019357Y0028925D01*
X0019249Y0028854D01*
X0019217Y0028700D02*
X0019217Y0028700D01*
X0018967Y0027988D02*
X0018967Y0045771D01*
X0019209Y0045078D02*
X0019209Y0045078D01*
X0019217Y0045058D02*
X0019217Y0045058D01*
X0033197Y0042991D02*
X0033197Y0042991D01*
X0032746Y0042711D02*
X0032746Y0031048D01*
X0033187Y0030778D02*
X0072616Y0030778D01*
X0072116Y0030465D02*
X0072116Y0034751D01*
X0070148Y0034751D02*
X0070148Y0029235D01*
X0069466Y0028809D02*
X0050258Y0028809D01*
X0050139Y0028858D02*
X0049054Y0028858D01*
X0048052Y0028443D01*
X0047285Y0027676D01*
X0046870Y0026674D01*
X0046870Y0025590D01*
X0047285Y0024588D01*
X0048052Y0023821D01*
X0049054Y0023406D01*
X0050139Y0023406D01*
X0051141Y0023821D01*
X0051908Y0024588D01*
X0052323Y0025590D01*
X0052323Y0026674D01*
X0051908Y0027676D01*
X0051141Y0028443D01*
X0050139Y0028858D01*
X0050463Y0028724D02*
X0050463Y0033814D01*
X0048494Y0033686D02*
X0048494Y0028626D01*
X0048935Y0028809D02*
X0034889Y0028809D01*
X0034715Y0029108D02*
X0034715Y0044651D01*
X0034678Y0044557D02*
X0047852Y0044557D01*
X0034496Y0044290D02*
X0034496Y0044290D01*
X0032491Y0042589D02*
X0047003Y0042589D01*
X0049500Y0041750D02*
X0055250Y0036250D01*
X0046598Y0036683D02*
X0003692Y0036683D01*
X0003692Y0034715D02*
X0047048Y0034715D01*
X0051602Y0034715D02*
X0081871Y0034715D01*
X0081959Y0034731D02*
X0081959Y0034751D01*
X0079990Y0034751D02*
X0079990Y0034050D01*
X0078022Y0034751D02*
X0078022Y0033281D01*
X0076651Y0032746D02*
X0003692Y0032746D01*
X0021719Y0031191D02*
X0021719Y0031191D01*
X0022904Y0031491D02*
X0022904Y0042268D01*
X0021638Y0042589D02*
X0003692Y0042589D01*
X0003692Y0040620D02*
X0047124Y0040620D01*
X0048494Y0039322D02*
X0048494Y0038900D01*
X0047894Y0038652D02*
X0003692Y0038652D01*
X0024872Y0042299D02*
X0024872Y0031460D01*
X0026841Y0031460D02*
X0026841Y0042299D01*
X0028809Y0042299D02*
X0028809Y0031460D01*
X0030778Y0031521D02*
X0030778Y0042238D01*
X0035254Y0046526D02*
X0046941Y0046526D01*
X0054400Y0034979D02*
X0054400Y0010707D01*
X0054710Y0011093D02*
X0003692Y0011093D01*
X0003692Y0009124D02*
X0053127Y0009124D01*
X0052431Y0008368D02*
X0052431Y0015468D01*
X0043346Y0016456D02*
X0042931Y0015454D01*
X0042164Y0014687D01*
X0041162Y0014272D01*
X0040078Y0014272D01*
X0039076Y0014687D01*
X0038309Y0015454D01*
X0037894Y0016456D01*
X0037894Y0017540D01*
X0038309Y0018542D01*
X0039076Y0019309D01*
X0040078Y0019724D01*
X0041162Y0019724D01*
X0042164Y0019309D01*
X0042931Y0018542D01*
X0043346Y0017540D01*
X0043346Y0016456D01*
X0043346Y0016998D02*
X0047224Y0016998D01*
X0037894Y0016998D02*
X0003692Y0016998D01*
X0003692Y0015030D02*
X0038733Y0015030D01*
X0038652Y0015111D02*
X0038652Y0004098D01*
X0040620Y0004098D02*
X0040620Y0014272D01*
X0055820Y0013061D02*
X0003692Y0013061D01*
X0003692Y0007156D02*
X0050902Y0007156D01*
X0036683Y0004098D02*
X0036683Y0069661D01*
X0038652Y0069661D02*
X0038652Y0018885D01*
X0038733Y0018967D02*
X0003692Y0018967D01*
X0003692Y0020935D02*
X0060871Y0020935D01*
X0060305Y0020175D02*
X0060305Y0034750D01*
X0062274Y0034750D02*
X0062274Y0022702D01*
X0062492Y0022904D02*
X0033110Y0022904D01*
X0033197Y0022991D02*
X0033197Y0022991D01*
X0032746Y0022711D02*
X0032746Y0004098D01*
X0030778Y0004098D02*
X0030778Y0022238D01*
X0028809Y0022299D02*
X0028809Y0004098D01*
X0026841Y0004098D02*
X0026841Y0022299D01*
X0024872Y0022299D02*
X0024872Y0004098D01*
X0022904Y0004098D02*
X0022904Y0022268D01*
X0021018Y0022904D02*
X0003692Y0022904D01*
X0019659Y0024249D02*
X0019659Y0024249D01*
X0019298Y0024872D02*
X0003692Y0024872D01*
X0003692Y0026841D02*
X0018837Y0026841D01*
X0018967Y0025771D02*
X0018967Y0004098D01*
X0020935Y0004098D02*
X0020935Y0022987D01*
X0020891Y0023017D02*
X0020891Y0023017D01*
X0020238Y0023555D02*
X0020238Y0023555D01*
X0019217Y0025058D02*
X0019217Y0025058D01*
X0019209Y0025078D02*
X0019209Y0025078D01*
X0034496Y0024290D02*
X0034496Y0024290D01*
X0034715Y0024651D02*
X0034715Y0004098D01*
X0042589Y0018885D02*
X0042589Y0069661D01*
X0040620Y0069661D02*
X0040620Y0019724D01*
X0042507Y0018967D02*
X0048529Y0018967D01*
X0048494Y0018952D02*
X0048494Y0023637D01*
X0050463Y0023540D02*
X0050463Y0019331D01*
X0051372Y0018967D02*
X0059406Y0018967D01*
X0061996Y0022446D02*
X0061996Y0022446D01*
X0064242Y0024517D02*
X0064242Y0034750D01*
X0066211Y0034750D02*
X0066211Y0026331D01*
X0066763Y0026841D02*
X0052254Y0026841D01*
X0046939Y0026841D02*
X0035291Y0026841D01*
X0034830Y0024872D02*
X0047167Y0024872D01*
X0052026Y0024872D02*
X0064628Y0024872D01*
X0068179Y0028005D02*
X0068179Y0034751D01*
X0074085Y0034751D02*
X0074085Y0031695D01*
X0076053Y0032512D02*
X0076053Y0034751D01*
X0034469Y0029509D02*
X0034469Y0029509D01*
X0020238Y0030203D02*
X0020238Y0030203D01*
X0020197Y0030162D02*
X0020197Y0030162D01*
D13*
X0049721Y0046093D02*
X0049569Y0046557D01*
M02*
